<svg width="543" height="442" viewBox="0 0 543 442" fill="none" xmlns="http://www.w3.org/2000/svg">
<path d="M525.046 256.964C536.214 221.267 541.692 183.633 542.262 147.542C542.87 109.353 538.705 68.0669 513.308 39.4406C488.468 11.4435 448.618 1.88081 411.136 0.25207C395.952 -0.401894 380.446 0.0299686 366.03 4.82982C336.927 14.5159 316.525 40.1932 290.706 56.7151C240.866 88.6113 173.524 84.8355 125.617 119.52C113.309 128.441 102.736 139.645 94.0221 152.07C59.093 201.87 56.3661 270.87 83.0277 325.507C109.689 380.144 163.31 419.789 222.558 434.299C281.806 448.81 345.765 439.309 400.662 412.792C464.645 381.883 504.483 322.693 525.046 256.964Z" fill="#C6FF00"/>
<path opacity="0.7" d="M525.046 256.964C536.214 221.267 541.692 183.633 542.262 147.542C542.87 109.353 538.705 68.0669 513.308 39.4406C488.468 11.4435 448.618 1.88081 411.136 0.25207C395.952 -0.401894 380.446 0.0299686 366.03 4.82982C336.927 14.5159 316.525 40.1932 290.706 56.7151C240.866 88.6113 173.524 84.8355 125.617 119.52C113.309 128.441 102.736 139.645 94.0221 152.07C59.093 201.87 56.3661 270.87 83.0277 325.507C109.689 380.144 163.31 419.789 222.558 434.299C281.806 448.81 345.765 439.309 400.662 412.792C464.645 381.883 504.483 322.693 525.046 256.964Z" fill="#B9A164"/>
<path d="M436.645 27.1759V277.064C436.645 284.492 430.596 290.514 423.122 290.514H88.3204C87.0189 290.514 85.7546 290.329 84.5647 289.983C78.925 288.367 74.8098 283.197 74.8098 277.064V27.1759C74.8098 19.7355 80.8586 13.7141 88.3204 13.7141H423.122C430.596 13.7141 436.645 19.7355 436.645 27.1759Z" fill="white"/>
<path d="M436.645 34.9001V277.064C436.645 284.492 430.596 290.514 423.122 290.514H88.3203C87.0188 290.514 85.7545 290.329 84.5646 289.983L436.645 34.9001Z" fill="#263238"/>
<path opacity="0.9" d="M436.645 34.9001V277.064C436.645 284.492 430.596 290.514 423.122 290.514H88.3203C87.0188 290.514 85.7545 290.329 84.5646 289.983L436.645 34.9001Z" fill="white"/>
<path d="M343.843 170.172L362.076 161.979L358.184 140.262L338.092 138.658C335.563 131.958 332.167 125.604 327.99 119.78L334.299 109.144L338.34 102.32L322.697 86.8594L305.171 97.3352C295.106 90.4253 283.678 85.7365 271.642 83.5772L266.598 63.5881H244.435L239.242 83.7253C232.412 85.0826 225.756 87.2172 219.397 90.0799L203.519 76.4577L185.398 88.7473L192.934 108.218C188.137 113.166 183.997 118.694 180.589 124.666L159.728 122.568L152.229 143.298L169.47 154.958C168.628 159.82 168.219 164.755 168.243 169.691C168.107 171.727 168.107 173.763 168.243 175.799L150.01 185.99L155.799 207.213H176.387C178.358 211.446 180.675 215.493 183.303 219.355C184.642 221.329 186.067 223.254 187.567 225.117L178.692 243.404L195.698 257.606L212.109 245.365C218.356 248.956 225.012 251.757 231.954 253.707L235.251 273.461L257.339 275.411L263.97 256.779C271.196 256.051 278.323 254.484 285.178 252.103L299.209 266.058L318.421 255.027L313.128 236C318.706 231.348 323.677 225.993 327.916 220.095L347.376 223.575L356.746 203.611L341.451 191.333C343.1 184.399 343.905 177.304 343.843 170.172ZM293.321 170.172C293.321 190.84 276.489 207.596 255.727 207.596C242.217 207.596 230.367 200.501 223.736 189.84C220.178 184.127 218.133 177.378 218.133 170.172C218.133 149.517 234.966 132.76 255.727 132.76C266.065 132.76 275.423 136.918 282.228 143.631C282.909 144.31 283.566 145 284.174 145.728C289.826 152.231 293.272 160.683 293.321 169.938V170.172Z" fill="#B9A164" stroke="#263238" stroke-miterlimit="10"/>
<path opacity="0.2" d="M341.451 191.333L356.746 203.611L347.376 223.575L327.916 220.095C323.677 225.993 318.706 231.348 313.128 236L318.421 255.027L299.209 266.058L285.178 252.103C278.323 254.484 271.196 256.051 263.97 256.779L257.339 275.411L235.251 273.461L231.954 253.707C225.012 251.757 218.356 248.956 212.109 245.366L195.698 257.606L178.692 243.404L187.567 225.117C186.067 223.254 184.642 221.329 183.303 219.355L223.736 189.84C230.367 200.501 242.217 207.596 255.727 207.596C276.489 207.596 293.321 190.84 293.321 170.172V169.938C293.272 160.683 289.826 152.231 284.174 145.729L334.299 109.144L327.99 119.78C332.167 125.604 335.563 131.958 338.092 138.658L358.184 140.262L362.076 161.979L343.843 170.172C343.905 177.304 343.1 184.399 341.451 191.333Z" fill="black"/>
<path d="M419.837 112.463L420.754 112.043C421.808 111.587 422.403 110.451 422.192 109.328L422.006 108.218C421.82 107.083 420.878 106.231 419.725 106.157L418.622 106.071C417.73 106.009 416.949 105.466 416.565 104.664C416.267 104.035 415.945 103.43 415.598 102.838C415.152 102.073 415.152 101.135 415.598 100.37L416.168 99.408C416.738 98.4209 416.577 97.1746 415.771 96.3602L414.978 95.5706C414.172 94.7438 412.896 94.5958 411.904 95.2004L410.925 95.7803C410.156 96.2245 409.214 96.2245 408.446 95.7803C406.859 94.8796 405.174 94.1886 403.401 93.732C402.521 93.5099 401.827 92.8066 401.616 91.9306L401.331 90.783C401.059 89.6479 400.03 88.8458 398.852 88.8828H397.737C396.572 88.8458 395.53 89.6355 395.258 90.7707L394.948 92.0046C394.725 92.8683 394.068 93.547 393.2 93.7814C392.58 93.9541 391.961 94.1392 391.378 94.3613C390.535 94.6698 389.581 94.4971 388.899 93.9048L387.907 93.0534C387.052 92.3007 385.788 92.239 384.858 92.8807L383.978 93.4729C382.999 94.1146 382.615 95.3608 383.049 96.4466L383.495 97.6065C383.829 98.4332 383.681 99.3833 383.111 100.074C382.714 100.543 382.342 101.037 381.995 101.543C381.487 102.295 380.594 102.702 379.69 102.604L378.45 102.493C377.297 102.369 376.219 103.048 375.835 104.134L375.438 105.22C375.041 106.281 375.413 107.465 376.343 108.107L377.483 108.909C378.215 109.415 378.611 110.279 378.524 111.167C378.45 111.809 378.425 112.463 378.425 113.104C378.4 113.968 377.929 114.758 377.186 115.202L376.021 115.843C374.979 116.386 374.471 117.571 374.781 118.694L375.066 119.767C375.351 120.89 376.38 121.655 377.545 121.618H378.785C379.677 121.606 380.508 122.087 380.954 122.852C381.289 123.444 381.648 124.012 382.032 124.567C382.528 125.295 382.602 126.233 382.218 127.035L381.71 128.084C381.189 129.12 381.462 130.366 382.367 131.094L383.222 131.81C384.102 132.563 385.379 132.6 386.308 131.921L387.189 131.304C387.907 130.786 388.862 130.7 389.668 131.07C390.3 131.366 390.944 131.637 391.601 131.884C392.432 132.193 393.027 132.921 393.175 133.784L393.361 134.858C393.547 135.993 394.489 136.844 395.642 136.918L396.782 137.017C397.923 137.128 398.989 136.437 399.36 135.351L399.707 134.389C400.005 133.537 400.736 132.921 401.629 132.772C402.335 132.661 403.029 132.513 403.711 132.328C404.566 132.106 405.496 132.353 406.116 132.982L406.847 133.723C407.64 134.537 408.892 134.71 409.884 134.13L410.863 133.575C411.904 133.032 412.412 131.847 412.102 130.724L411.83 129.762C411.569 128.886 411.805 127.936 412.462 127.294C412.97 126.788 413.466 126.258 413.925 125.702C414.507 125.011 415.412 124.69 416.292 124.863L417.284 125.048C418.412 125.27 419.552 124.69 420.023 123.642L420.494 122.63C421.002 121.581 420.705 120.335 419.787 119.619L419.044 119.015C418.35 118.472 418.002 117.596 418.126 116.72C418.25 115.979 418.325 115.239 418.362 114.498C418.436 113.61 419.006 112.833 419.837 112.463ZM410.937 113.104C410.937 120.014 405.31 125.616 398.369 125.616C391.428 125.616 385.8 120.014 385.8 113.104C385.8 106.194 391.428 100.593 398.369 100.593C405.285 100.58 410.888 106.145 410.913 113.03L410.937 113.104Z" fill="#B9A164" stroke="#263238" stroke-miterlimit="10"/>
<path d="M436.645 27.1759V27.8545H74.8098V27.1759C74.8098 19.7355 80.8586 13.7141 88.3204 13.7141H423.122C430.596 13.7141 436.645 19.7355 436.645 27.1759Z" fill="#263238"/>
<path d="M436.645 27.1759V277.064C436.645 284.492 430.596 290.514 423.122 290.514H88.3204C80.8586 290.514 74.8098 284.492 74.8098 277.064V27.1759C74.8098 19.7355 80.8586 13.7141 88.3204 13.7141H423.122C430.596 13.7141 436.645 19.7355 436.645 27.1759Z" stroke="#263238" stroke-miterlimit="10" stroke-linecap="round" stroke-linejoin="round"/>
<path d="M74.8098 27.176H436.645" stroke="#263238" stroke-miterlimit="10" stroke-linecap="round" stroke-linejoin="round"/>
<path d="M104.979 20.7843C104.979 22.2896 103.752 23.5112 102.24 23.5112C100.728 23.5112 99.5006 22.2896 99.5006 20.7843C99.5006 19.2789 100.728 18.0574 102.24 18.0574C103.752 18.0574 104.979 19.2789 104.979 20.7843Z" fill="#B9A164"/>
<path d="M117.969 20.7843C117.969 22.2896 116.742 23.5112 115.23 23.5112C113.718 23.5112 112.49 22.2896 112.49 20.7843C112.49 19.2789 113.718 18.0574 115.23 18.0574C116.742 18.0574 117.969 19.2789 117.969 20.7843Z" fill="#B9A164"/>
<path d="M130.959 20.7843C130.959 22.2896 129.732 23.5112 128.22 23.5112C126.708 23.5112 125.481 22.2896 125.481 20.7843C125.481 19.2789 126.708 18.0574 128.22 18.0574C129.732 18.0574 130.959 19.2789 130.959 20.7843Z" fill="#B9A164"/>
<path d="M313.525 170.172C313.525 201.772 287.793 227.388 256.049 227.388C224.306 227.388 198.574 201.772 198.574 170.172C198.574 138.572 224.306 112.956 256.049 112.956C287.657 112.956 313.327 138.35 313.525 169.814V170.172Z" stroke="#263238" stroke-width="4" stroke-miterlimit="10"/>
<path d="M526.856 113.302H322.301C314.839 113.302 308.79 107.28 308.79 99.8522V54.6423C308.79 47.2143 314.839 41.1929 322.301 41.1929H526.856C534.317 41.1929 540.366 47.2143 540.366 54.6423V99.8399C540.366 107.28 534.317 113.302 526.856 113.302Z" fill="white" stroke="#263238" stroke-miterlimit="10"/>
<path d="M349.322 76.9265H507.147" stroke="#263238" stroke-miterlimit="10"/>
<path d="M344.401 76.9266L369.327 59.4299H432.802L458.695 76.9266" stroke="#263238" stroke-miterlimit="10"/>
<path d="M463.616 76.9266C463.616 79.6289 461.41 81.8252 458.695 81.8252C455.981 81.8252 453.775 79.6289 453.775 76.9266C453.775 74.2244 455.981 72.0281 458.695 72.0281C461.422 72.0281 463.616 74.2244 463.616 76.9266Z" fill="#B9A164" stroke="#263238" stroke-miterlimit="10"/>
<path d="M369.327 64.3286C372.045 64.3286 374.248 62.1355 374.248 59.4301C374.248 56.7247 372.045 54.5315 369.327 54.5315C366.61 54.5315 364.407 56.7247 364.407 59.4301C364.407 62.1355 366.61 64.3286 369.327 64.3286Z" fill="#B9A164" stroke="#263238" stroke-miterlimit="10"/>
<path d="M437.723 59.4301C437.723 62.1323 435.517 64.3286 432.802 64.3286C430.088 64.3286 427.882 62.1323 427.882 59.4301C427.882 56.7278 430.088 54.5315 432.802 54.5315C435.517 54.5315 437.723 56.7278 437.723 59.4301Z" fill="#B9A164" stroke="#263238" stroke-miterlimit="10"/>
<path d="M344.401 76.9265L369.327 94.4108H486.324L507.147 76.9265" stroke="#263238" stroke-miterlimit="10"/>
<path d="M412.351 94.411C412.351 97.1132 410.144 99.3096 407.43 99.3096C404.715 99.3096 402.509 97.1132 402.509 94.411C402.509 91.7088 404.715 89.5125 407.43 89.5125C410.157 89.5125 412.351 91.7088 412.351 94.411Z" fill="#B9A164" stroke="#263238" stroke-miterlimit="10"/>
<path d="M374.248 94.411C374.248 97.1132 372.042 99.3096 369.327 99.3096C366.613 99.3096 364.407 97.1132 364.407 94.411C364.407 91.7088 366.613 89.5125 369.327 89.5125C372.042 89.5125 374.248 91.7088 374.248 94.411Z" fill="#B9A164" stroke="#263238" stroke-miterlimit="10"/>
<path d="M491.232 94.411C491.232 97.1132 489.026 99.3096 486.311 99.3096C483.597 99.3096 481.391 97.1132 481.391 94.411C481.391 91.7088 483.597 89.5125 486.311 89.5125C489.038 89.5125 491.232 91.7088 491.232 94.411Z" fill="#B9A164" stroke="#263238" stroke-miterlimit="10"/>
<path d="M507.148 81.8252C509.865 81.8252 512.068 79.632 512.068 76.9266C512.068 74.2212 509.865 72.0281 507.148 72.0281C504.43 72.0281 502.227 74.2212 502.227 76.9266C502.227 79.632 504.43 81.8252 507.148 81.8252Z" fill="#B9A164" stroke="#263238" stroke-miterlimit="10"/>
<path d="M349.322 76.9266C349.322 79.6289 347.116 81.8252 344.401 81.8252C341.687 81.8252 339.48 79.6289 339.48 76.9266C339.48 74.2244 341.687 72.0281 344.401 72.0281C347.116 72.0281 349.322 74.2244 349.322 76.9266Z" fill="#B9A164" stroke="#263238" stroke-miterlimit="10"/>
<path d="M200.842 337.29H83.0029C75.5411 337.29 69.4923 331.269 69.4923 323.841V206.534C69.4923 199.106 75.5411 193.085 83.0029 193.085H200.842C208.304 193.085 214.353 199.106 214.353 206.534V323.841C214.365 331.269 208.304 337.29 200.842 337.29Z" fill="white" stroke="#263238" stroke-miterlimit="10"/>
<path d="M123.82 275.411L105.054 311.712H190.096" stroke="#263238" stroke-miterlimit="10" stroke-linecap="round" stroke-linejoin="round"/>
<path d="M190.096 220.552L150.407 246.821L190.096 258.704" stroke="#263238" stroke-miterlimit="10" stroke-linecap="round" stroke-linejoin="round"/>
<path d="M199.479 211.211H180.713V229.892H199.479V211.211Z" fill="#B9A164" stroke="#263238" stroke-miterlimit="10"/>
<path d="M199.479 249.363H180.713V268.044H199.479V249.363Z" fill="#B9A164" stroke="#263238" stroke-miterlimit="10"/>
<path d="M159.79 237.481H141.024V256.162H159.79V237.481Z" fill="#B9A164" stroke="#263238" stroke-miterlimit="10"/>
<path d="M133.203 266.07H114.437V284.751H133.203V266.07Z" fill="#B9A164" stroke="#263238" stroke-miterlimit="10"/>
<path d="M114.437 302.371H95.6707V321.052H114.437V302.371Z" fill="#B9A164" stroke="#263238" stroke-miterlimit="10"/>
<path d="M199.479 302.371H180.713V321.052H199.479V302.371Z" fill="#B9A164" stroke="#263238" stroke-miterlimit="10"/>
<path d="M0.799316 149.998C0.799316 142.57 6.84807 136.548 14.3099 136.548H132.149C139.611 136.548 145.66 142.57 145.66 149.998V267.304C145.66 274.732 139.611 280.753 132.149 280.753H14.3099C6.84807 280.753 0.799316 274.732 0.799316 267.304" fill="white"/>
<path d="M0.799316 149.998C0.799316 142.57 6.84808 136.548 14.3099 136.548H132.149C139.611 136.548 145.66 142.57 145.66 149.998V267.304C145.66 274.732 139.611 280.753 132.149 280.753H14.3099C6.84808 280.753 0.799316 274.732 0.799316 267.304" stroke="#263238" stroke-miterlimit="10"/>
<path d="M112.491 150.503H16.1196V157.931H112.491V150.503Z" fill="#B9A164"/>
<path d="M71.798 162.744H16.1196V170.172H71.798V162.744Z" fill="#B9A164"/>
<path d="M48.5449 174.971H16.1196V182.399H48.5449V174.971Z" fill="#B9A164"/>
<path d="M69.4925 187.212H16.1196V194.64H69.4925V187.212Z" fill="#B9A164"/>
<path d="M99.3149 199.44H16.1196V206.868H99.3149V199.44Z" fill="#B9A164"/>
<path d="M71.798 211.68H16.1196V219.108H71.798V211.68Z" fill="#B9A164"/>
<path d="M54.9656 223.908H16.1196V231.336H54.9656V223.908Z" fill="#B9A164"/>
<path d="M79.0119 236.148H16.1196V243.576H79.0119V236.148Z" fill="#B9A164"/>
<path d="M92.3613 248.376H16.1196V255.804H92.3613V248.376Z" fill="#B9A164"/>
<path d="M112.491 260.616H16.1196V268.044H112.491V260.616Z" fill="#B9A164"/>
<path opacity="0.3" d="M112.491 150.503H16.1196V157.931H112.491V150.503Z" fill="#B9A164"/>
<path opacity="0.3" d="M71.798 162.744H16.1196V170.172H71.798V162.744Z" fill="#B9A164"/>
<path opacity="0.3" d="M48.5449 174.971H16.1196V182.399H48.5449V174.971Z" fill="#B9A164"/>
<path opacity="0.3" d="M69.4925 187.212H16.1196V194.64H69.4925V187.212Z" fill="#B9A164"/>
<path opacity="0.3" d="M99.3149 199.44H16.1196V206.868H99.3149V199.44Z" fill="#B9A164"/>
<path opacity="0.3" d="M71.798 211.68H16.1196V219.108H71.798V211.68Z" fill="#B9A164"/>
<path opacity="0.3" d="M54.9656 223.908H16.1196V231.336H54.9656V223.908Z" fill="#B9A164"/>
<path opacity="0.3" d="M79.0119 236.148H16.1196V243.576H79.0119V236.148Z" fill="#B9A164"/>
<path opacity="0.3" d="M92.3613 248.376H16.1196V255.804H92.3613V248.376Z" fill="#B9A164"/>
<path opacity="0.3" d="M112.491 260.616H16.1196V268.044H112.491V260.616Z" fill="#B9A164"/>
<path d="M113.247 123.876H78.1814C74.6488 123.876 71.798 126.726 71.798 130.231V136.548H119.643V130.231C119.63 126.714 116.779 123.876 113.247 123.876Z" fill="white" stroke="#263238" stroke-miterlimit="10"/>
<path d="M89.1137 123.876H54.4696C50.8255 123.876 47.8755 126.813 47.8755 130.44V136.548H95.7202V130.44C95.7078 126.813 92.7578 123.876 89.1137 123.876Z" fill="#B9A164" stroke="#263238" stroke-miterlimit="10"/>
<path d="M63.3198 123.876H27.8205C24.4119 123.876 21.6478 126.628 21.6478 130.021V136.548H69.4925V130.021C69.4925 126.628 66.7284 123.876 63.3198 123.876Z" fill="white" stroke="#263238" stroke-miterlimit="10"/>
<path d="M479.159 388.263H505.486" stroke="#263238" stroke-miterlimit="10" stroke-linecap="round" stroke-linejoin="round"/>
<path d="M64.2988 388.263H465.302" stroke="#263238" stroke-miterlimit="10" stroke-linecap="round" stroke-linejoin="round"/>
<path d="M471.921 372.913C471.921 372.913 476.594 369.113 478.813 373.271C480.734 376.861 476.135 380.884 470.905 380.872V383.907C470.905 383.907 482.122 384.203 482.99 374.801C483.857 365.399 471.921 367.99 471.921 367.99V372.913Z" fill="#B9A164" stroke="#263238" stroke-linecap="round" stroke-linejoin="round"/>
<path d="M471.536 388.214H449.064L445.705 360.118H474.92L471.536 388.214Z" fill="#B9A164" stroke="#263238" stroke-linecap="round" stroke-linejoin="round"/>
<path d="M445.743 358.773H474.858C475.714 358.773 476.395 359.464 476.395 360.303V360.451C476.395 361.302 475.701 361.981 474.858 361.981H445.743C444.887 361.981 444.206 361.29 444.206 360.451V360.315C444.206 359.464 444.9 358.773 445.743 358.773Z" fill="white" stroke="#263238" stroke-linecap="round" stroke-linejoin="round"/>
<path d="M456.489 355.712C456.489 355.712 466.826 349.543 463.455 342.46C460.084 335.378 448.68 330.714 448.68 319.695C448.68 310.206 458.819 306.69 465.438 302.889" stroke="#263238" stroke-linecap="round" stroke-linejoin="round"/>
<path d="M459.885 309.602C457.195 311.416 455.274 314.328 454.667 317.499C454.06 320.67 454.766 324.075 456.601 326.753" stroke="#263238" stroke-linecap="round" stroke-linejoin="round"/>
<path d="M465.512 337.599C467.558 341.486 468.14 346.125 467.111 350.394" stroke="#263238" stroke-linecap="round" stroke-linejoin="round"/>
<path d="M188.757 385.943C188.757 385.943 188.286 377.886 181.146 375.048C174.007 372.21 170.189 373.382 154.249 377.651C144.209 380.267 133.921 381.859 123.547 382.39V385.943H188.757Z" fill="white" stroke="#263238" stroke-linecap="round" stroke-linejoin="round"/>
<path d="M188.497 385.943C188.497 385.943 188.968 377.886 196.107 375.048C203.247 372.21 207.052 373.382 223.004 377.651C233.044 380.267 243.332 381.859 253.694 382.39V385.943H188.497Z" fill="white" stroke="#263238" stroke-linecap="round" stroke-linejoin="round"/>
<path d="M256.347 384.524H121.886V387.128H256.347V384.524Z" fill="#263238" stroke="#263238" stroke-linecap="round" stroke-linejoin="round"/>
<path d="M191.967 385.795C193.219 381.995 196.182 378.799 199.888 377.232" stroke="#263238" stroke-linecap="round" stroke-linejoin="round"/>
<path d="M196.033 385.228C197.904 381.958 201.263 379.576 204.982 378.898C209.432 378.083 213.956 379.601 218.145 381.292C222.335 382.982 229.623 385.215 234.147 385.228" stroke="#263238" stroke-linecap="round" stroke-linejoin="round"/>
<path d="M149.477 384.487C153.927 384.019 158.302 382.92 162.442 381.255C164.996 380.218 167.487 378.96 170.164 378.318C172.842 377.664 175.829 377.689 178.184 379.12C179.262 379.774 180.155 380.687 180.948 381.674C182.014 383.007 182.894 384.475 183.563 386.042" stroke="#263238" stroke-linecap="round" stroke-linejoin="round"/>
<path d="M174.069 380.872C175.519 381.02 176.833 381.834 177.849 382.871C178.866 383.907 179.634 385.153 180.39 386.4" stroke="#263238" stroke-linecap="round" stroke-linejoin="round"/>
<path d="M290.607 384.647C290.607 384.647 283.244 388.263 274.927 388.263C266.61 388.263 249.641 371.124 249.641 371.124C249.641 371.124 249.022 369.273 250.348 362.376C251.674 355.478 264.119 292.118 264.119 292.118C264.119 292.118 265.594 277.373 274.01 268.328C282.426 259.271 298.949 256.063 298.949 256.063C298.949 256.063 335.489 240.22 355.978 245.106C376.492 253.213 398.815 261.431 406.277 267.798C413.739 274.177 432.096 325.309 438.454 351.604C438.454 351.604 424.448 381.23 411.384 389.558C398.332 397.887 366.774 395.16 366.774 395.16L290.607 384.647Z" fill="#B9A164"/>
<path opacity="0.3" d="M285.959 333.169L280.678 263.343C280.678 263.343 269.585 267.156 266.845 279.631C264.106 292.118 247.596 368.989 249.629 371.124C251.649 373.271 262.458 382.451 262.458 382.451C262.458 382.451 274.072 392.335 285.971 386.437C297.858 380.526 285.959 333.169 285.959 333.169Z" fill="black"/>
<path opacity="0.3" d="M338.414 269.809C337.795 271.894 335.167 272.56 332.973 272.597C326.738 272.684 320.504 270.413 315.793 266.354C314.913 265.601 299.42 275.127 297.635 276.089C294.821 277.595 292.069 279.26 289.194 280.655C286.516 281.963 283.988 282.604 282.24 285.257C280.988 287.145 280.319 289.329 279.65 291.488C275.894 303.741 271.928 315.956 268.506 328.295C265.544 338.969 261.553 350.802 261.726 362.005C261.739 362.807 261.764 363.61 261.9 364.399C264.255 378.725 290.582 384.672 290.582 384.672C290.582 384.672 281.286 390.336 274.902 388.287C268.519 386.239 253.694 377.75 249.009 369.828L261.9 302.655C261.9 302.655 261.739 270.327 285.165 260.666C308.592 251.004 317.801 249.598 317.801 249.598L338.414 269.809Z" fill="black"/>
<path opacity="0.3" d="M424.894 375.405C424.894 375.405 435.12 364.152 438.442 351.604C438.442 351.604 422.75 300.138 418.709 290.513C414.668 280.889 408.062 269.883 403.438 265.182L395.952 371.124L394.378 393.408C394.378 393.408 402.757 393.766 408.657 391.014C414.532 388.263 424.894 375.405 424.894 375.405Z" fill="black"/>
<path d="M394.378 393.421L403.438 265.182C403.438 265.182 359.548 244.761 348.095 242.861C336.642 240.961 280.827 262.813 280.827 262.813L288.933 385.82" stroke="#263238" stroke-miterlimit="10" stroke-linecap="round" stroke-linejoin="round"/>
<path d="M315.236 180.228L310.724 201.747C310.724 201.747 304.948 197.688 303.721 202.278C302.494 206.868 306.249 213.185 313.513 213.531C313.513 213.531 315.484 223.279 321.917 229.892C328.35 236.518 331.51 239.048 331.51 239.048C331.51 239.048 334.051 255.385 342.331 256.014C350.623 256.631 352.247 249.203 353.92 238.875C353.92 238.875 361.085 226.499 363.179 219.811C363.179 219.811 371.98 213.704 366.105 204.795C366.105 204.795 369.005 183.498 363.96 179.895C358.928 176.304 324.036 178.155 315.236 180.228Z" fill="white"/>
<path d="M342.009 257.716C342.009 257.716 339.22 271.672 337.497 272.03C335.774 272.387 328.907 265.86 322.908 257.716C316.909 249.585 317.839 249.585 317.839 249.585C317.839 249.585 320.615 238.912 322.908 237.357C325.201 235.802 333.431 236 333.431 236L351.503 235.309C351.503 235.309 357.577 234.457 361.233 236.839C364.902 239.22 366.762 249.585 366.762 249.585C366.762 249.585 355.966 269.475 347.091 272.03C347.091 272.03 344.327 265.7 342.009 257.716Z" fill="white"/>
<path d="M282.798 362.499L285.19 329.036" stroke="#263238" stroke-miterlimit="10"/>
<path d="M366.762 186.41C366.762 186.41 356.511 190.37 347.438 189.605C347.438 189.605 337.856 199.205 325.598 193.505C325.598 193.505 314.541 223.303 339.889 242.799C339.889 242.799 319.549 236.271 313.513 213.531C313.513 213.531 306.311 214.654 303.721 203.919C303.721 203.919 301.638 199.785 311.145 199.76L310.724 179.031L335.142 183.905L352.656 181.363L366.762 186.41Z" fill="#C6FF00"/>
<path opacity="0.4" d="M366.762 186.41C366.762 186.41 356.511 190.371 347.438 189.606C347.438 189.606 337.856 199.205 325.598 193.505C325.598 193.505 316.661 225.413 338.848 242.268C338.848 242.268 318.731 235.321 313.513 213.543C313.513 213.543 306.361 212.79 303.721 203.931C303.721 203.931 301.638 199.798 311.145 199.773L310.724 179.043L335.142 183.917L352.656 181.376L366.762 186.41Z" fill="#B9A164"/>
<path d="M338.86 227.708C339.654 228.35 340.497 228.942 341.364 229.485C341.934 229.843 342.777 230.127 343.186 229.608C343.347 229.411 343.372 229.139 343.385 228.88C343.744 222.995 342.368 217.047 343.211 211.211" stroke="#263238" stroke-miterlimit="10" stroke-linecap="round" stroke-linejoin="round"/>
<path d="M347.078 207.867C347.078 207.867 350.016 201.414 357.589 207.213" stroke="#263238" stroke-width="2" stroke-miterlimit="10" stroke-linecap="round" stroke-linejoin="round"/>
<path d="M337.559 209.064C337.559 209.064 332.018 202.204 325.151 209.274" stroke="#263238" stroke-width="2" stroke-miterlimit="10" stroke-linecap="round" stroke-linejoin="round"/>
<path d="M330.085 238.024C330.085 238.024 333.035 255.619 343.434 256.15C351.875 256.582 353.524 242.046 353.846 236.839" stroke="#263238" stroke-miterlimit="10" stroke-linecap="round" stroke-linejoin="round"/>
<path d="M312.162 203.709C312.162 203.709 307.575 198.255 304.464 200.92C301.353 203.586 306.014 215.308 313.525 213.531" stroke="#263238" stroke-miterlimit="10" stroke-linecap="round" stroke-linejoin="round"/>
<path d="M332.006 229.892C332.006 229.892 335.105 234.026 340.831 235.309" stroke="#263238" stroke-miterlimit="10" stroke-linecap="round" stroke-linejoin="round"/>
<path d="M331.523 219.688C332.18 219.688 332.712 218.561 332.712 217.171C332.712 215.781 332.18 214.654 331.523 214.654C330.865 214.654 330.333 215.781 330.333 217.171C330.333 218.561 330.865 219.688 331.523 219.688Z" fill="#263238"/>
<path d="M352.036 217.171C352.036 218.565 351.503 219.688 350.846 219.688C350.189 219.688 349.656 218.565 349.656 217.171C349.656 215.777 350.189 214.654 350.846 214.654C351.503 214.654 352.036 215.777 352.036 217.171Z" fill="#263238"/>
<path d="M342.343 256.014C342.343 256.014 339.455 271.672 337.497 272.03C335.539 272.388 320.739 259 317.826 249.585C317.826 249.585 320.962 237.284 323.813 236.839C325.176 236.63 326.738 236.42 327.99 236.272" stroke="#263238" stroke-miterlimit="10" stroke-linecap="round" stroke-linejoin="round"/>
<path d="M342.344 256.014C342.344 256.014 345.145 271.672 347.091 272.03C349.049 272.388 363.849 259 366.762 249.585C366.762 249.585 363.229 237.37 360.539 236.346C357.825 235.309 355.272 234.853 355.272 234.853" stroke="#263238" stroke-miterlimit="10" stroke-linecap="round" stroke-linejoin="round"/>
<path d="M314.938 217.479C316.834 220.749 319.202 209.188 318.198 205.535C317.529 203.104 316.215 200.797 316.091 198.28C315.967 195.479 317.343 192.851 318.334 190.223C319.326 187.594 319.908 184.46 318.359 182.116C323.763 186.052 330.246 188.162 336.914 188.754C338.625 188.902 340.385 188.927 341.996 188.335C343.608 187.742 345.033 186.41 345.306 184.719C351.553 185.509 357.763 186.323 364.01 185.484C369.241 184.781 377.384 183.461 380.074 178.143C384.015 170.369 373.864 162.3 367.877 159.585C353.375 152.996 333.902 151.885 320.85 162.213C319.462 163.311 318.148 164.508 316.649 165.446C313.761 167.247 307.204 168.642 304.91 171.147C301.824 174.515 305.691 200.526 305.691 200.526C305.691 200.526 310.711 198.206 312.794 205.955C314.219 211.211 313.017 214.16 314.938 217.479Z" fill="#263238"/>
<path d="M362.287 183.818C362.2 184.152 362.151 184.485 362.126 184.806C361.903 187.742 362.423 190.704 363.167 193.542C363.502 194.812 363.973 196.046 364.171 197.33C364.655 200.414 364.655 203.388 366.935 205.905C366.935 205.905 371.323 190.642 369.563 179.734C369.352 178.476 368.956 175.292 367.01 175.884C365.597 176.316 364.568 178.735 363.985 179.907C363.365 181.104 362.622 182.461 362.287 183.818Z" fill="#263238"/>
<path d="M301.787 169.493C303.708 168.099 309.36 165.397 315.248 167.692C320.788 157.623 329.49 152.108 329.49 152.108" stroke="#263238" stroke-miterlimit="10" stroke-linecap="round" stroke-linejoin="round"/>
<path opacity="0.47" d="M320.628 165.792C320.628 165.792 344.228 182.499 358.519 178.365C372.811 174.231 368.819 161.991 368.819 161.991" stroke="white" stroke-miterlimit="10" stroke-linecap="round" stroke-linejoin="round"/>
<path opacity="0.47" d="M322.896 162.978C322.896 162.978 352.532 176.539 357.515 157.352" stroke="white" stroke-miterlimit="10" stroke-linecap="round" stroke-linejoin="round"/>
<path d="M330.085 238.024C330.085 238.024 335.725 248.932 340.137 248.746C344.55 248.561 352.669 236.839 352.669 236.839C352.669 236.839 348.293 242.454 341.649 243.034C337.286 243.416 330.085 238.024 330.085 238.024Z" fill="#263238"/>
<path d="M364.183 317.585L365.101 317.166C366.154 316.709 366.749 315.574 366.538 314.451L366.353 313.341C366.167 312.206 365.225 311.354 364.072 311.28L362.969 311.194C362.076 311.132 361.295 310.589 360.911 309.787C360.614 309.158 360.291 308.553 359.944 307.961C359.498 307.196 359.498 306.258 359.944 305.493L360.514 304.531C361.085 303.544 360.923 302.297 360.118 301.483L359.325 300.693C358.519 299.867 357.242 299.719 356.251 300.323L355.271 300.903C354.503 301.347 353.561 301.347 352.792 300.903C351.206 300.002 349.52 299.311 347.748 298.855C346.868 298.633 346.173 297.929 345.963 297.053L345.678 295.906C345.405 294.771 344.376 293.969 343.199 294.006H342.083C340.918 293.969 339.877 294.758 339.604 295.894L339.294 297.127C339.071 297.991 338.414 298.67 337.546 298.904C336.927 299.077 336.307 299.262 335.724 299.484C334.882 299.793 333.927 299.62 333.245 299.028L332.254 298.176C331.399 297.424 330.134 297.362 329.205 298.003L328.325 298.596C327.345 299.237 326.961 300.484 327.395 301.569L327.841 302.729C328.176 303.556 328.027 304.506 327.457 305.197C327.06 305.666 326.689 306.16 326.341 306.665C325.833 307.418 324.941 307.825 324.036 307.727L322.796 307.616C321.644 307.492 320.565 308.171 320.181 309.257L319.784 310.342C319.388 311.404 319.76 312.588 320.689 313.23L321.83 314.032C322.561 314.538 322.958 315.401 322.871 316.29C322.796 316.931 322.772 317.585 322.772 318.227C322.747 319.091 322.276 319.88 321.532 320.325L320.367 320.966C319.326 321.509 318.818 322.694 319.128 323.817L319.413 324.89C319.698 326.013 320.726 326.778 321.892 326.741H323.131C324.024 326.729 324.854 327.21 325.3 327.975C325.635 328.567 325.994 329.135 326.379 329.69C326.874 330.418 326.949 331.356 326.565 332.158L326.056 333.206C325.536 334.243 325.808 335.489 326.713 336.217L327.569 336.933C328.449 337.686 329.725 337.723 330.655 337.044L331.535 336.427C332.254 335.909 333.208 335.822 334.014 336.193C334.646 336.489 335.291 336.76 335.948 337.007C336.778 337.315 337.373 338.043 337.522 338.907L337.708 339.981C337.894 341.116 338.836 341.967 339.988 342.041L341.129 342.14C342.269 342.251 343.335 341.56 343.707 340.474L344.054 339.512C344.351 338.66 345.083 338.043 345.975 337.895C346.682 337.784 347.376 337.636 348.057 337.451C348.913 337.229 349.842 337.476 350.462 338.105L351.193 338.845C351.987 339.66 353.239 339.832 354.23 339.253L355.209 338.697C356.251 338.154 356.759 336.97 356.449 335.847L356.176 334.885C355.916 334.009 356.151 333.058 356.808 332.417C357.317 331.911 357.812 331.38 358.271 330.825C358.854 330.134 359.758 329.813 360.638 329.986L361.63 330.171C362.758 330.393 363.898 329.813 364.369 328.764L364.84 327.753C365.349 326.704 365.051 325.458 364.134 324.742L363.39 324.137C362.696 323.594 362.349 322.718 362.473 321.842C362.597 321.102 362.671 320.362 362.708 319.621C362.795 318.733 363.365 317.943 364.183 317.585ZM349.26 318.227C349.26 321.83 346.335 324.742 342.715 324.742C339.096 324.742 336.171 321.83 336.171 318.227C336.171 314.624 339.096 311.712 342.715 311.712C346.31 311.712 349.235 314.612 349.247 318.19L349.26 318.227Z" fill="#263238"/>
<path d="M283.058 357.983C282.178 359.18 280.901 359.945 279.848 360.957C276.848 363.807 274.208 367.879 272.993 371.84C272.398 373.752 272.275 375.874 273.031 377.738C274.481 381.279 279.104 384.956 282.81 382.624" stroke="#263238" stroke-miterlimit="10" stroke-linecap="round" stroke-linejoin="round"/>
<path d="M282.761 351.678C279.24 351.135 275.77 353.159 273.365 355.775C270.948 358.39 269.287 361.586 267.081 364.375" stroke="#263238" stroke-miterlimit="10" stroke-linecap="round" stroke-linejoin="round"/>
<path d="M282.488 387.708C278.212 388.584 272.461 388.127 268.531 386.215C265.693 384.833 263.226 382.809 260.797 380.798C257.748 378.281 254.699 375.776 251.649 373.259C250.174 372.05 248.551 370.334 249.158 368.533C249.158 368.533 264.441 288.293 266.846 279.631C269.622 269.612 280.827 262.801 280.827 262.801" stroke="#263238" stroke-miterlimit="10" stroke-linecap="round" stroke-linejoin="round"/>
<path d="M397.228 358.884C400.922 361.425 404.418 366.213 405.917 370.433C407.429 374.64 408.037 379.107 408.644 383.537C406.277 384.857 401.393 388.275 397.228 388.275" stroke="#263238" stroke-miterlimit="10" stroke-linecap="round" stroke-linejoin="round"/>
<path d="M397.749 352.171C401.455 351.196 405.137 353.701 407.938 356.317C410.739 358.933 413.627 361.968 417.445 362.376" stroke="#263238" stroke-miterlimit="10" stroke-linecap="round" stroke-linejoin="round"/>
<path d="M398.456 393.864C405.645 393.112 412.189 389.2 417.383 384.203C422.576 379.206 426.58 373.135 430.546 367.126C433.757 362.252 437.029 357.267 438.43 351.616C438.43 351.616 425.749 309.898 418.697 290.526C411.359 270.339 403.426 265.194 403.426 265.194" stroke="#263238" stroke-miterlimit="10" stroke-linecap="round" stroke-linejoin="round"/>
<path d="M397.749 352.171C404.294 346.705 414.321 351.135 421.349 354.787" stroke="#263238" stroke-miterlimit="10" stroke-linecap="round" stroke-linejoin="round"/>
<path d="M397.229 329.838H283.058V395.16H397.229V329.838Z" fill="white"/>
<path d="M397.749 395.16H282.488V398.578H397.749V395.16Z" fill="#263238"/>
<path d="M282.488 395.16L397.229 329.838L397.749 395.16H282.488Z" fill="#263238"/>
<path opacity="0.9" d="M282.488 395.16L397.229 329.838L397.749 395.16H282.488Z" fill="white"/>
<path d="M348.555 368.301C352.355 364.518 352.355 358.385 348.555 354.603C344.755 350.82 338.595 350.82 334.795 354.603C330.995 358.385 330.995 364.518 334.795 368.301C338.595 372.083 344.755 372.083 348.555 368.301Z" fill="#263238"/>
<path d="M397.229 329.838H283.058V395.16H397.229V329.838Z" stroke="#263238" stroke-miterlimit="10" stroke-linecap="round" stroke-linejoin="round"/>
<path d="M311.629 197.095C311.629 197.095 314.12 219.923 317.306 223.982C320.479 228.054 330.705 242.959 341.823 242.737C352.941 242.515 360.205 228.276 362.027 222.168C363.849 216.073 365.659 207.485 366.117 198.44" stroke="#263238" stroke-miterlimit="10" stroke-linecap="round" stroke-linejoin="round"/>
<path d="M363.192 219.811C363.192 219.811 371.447 215.567 366.117 204.795" stroke="#263238" stroke-miterlimit="10" stroke-linecap="round" stroke-linejoin="round"/>
</svg>
