<svg width="29" height="29" viewBox="0 0 29 29" fill="none" xmlns="http://www.w3.org/2000/svg">
<path d="M2.35938 14.1732C2.35938 9.71946 2.35937 7.49202 3.74355 6.10903C5.12655 4.72485 7.35398 4.72485 11.8077 4.72485H16.5318C20.9855 4.72485 23.2129 4.72485 24.5959 6.10903C25.9801 7.49202 25.9801 9.71946 25.9801 14.1732V16.5352C25.9801 20.9889 25.9801 23.2164 24.5959 24.5993C23.2129 25.9835 20.9855 25.9835 16.5318 25.9835H11.8077C7.35398 25.9835 5.12655 25.9835 3.74355 24.5993C2.35937 23.2164 2.35938 20.9889 2.35938 16.5352V14.1732Z" stroke="black" stroke-width="1.77156"/>
<path opacity="0.5" d="M8.26456 4.72468V2.95312M20.0749 4.72468V2.95312M2.35938 10.6299H25.9801" stroke="black" stroke-width="1.77156" stroke-linecap="round"/>
<path d="M10.6328 17.1251L12.4044 15.3535V20.0777" stroke="black" stroke-width="1.77156" stroke-linecap="round" stroke-linejoin="round"/>
<path d="M15.3516 18.8966V16.5346C15.3516 16.2213 15.476 15.9209 15.6975 15.6994C15.919 15.4779 16.2194 15.3535 16.5326 15.3535C16.8458 15.3535 17.1462 15.4779 17.3677 15.6994C17.5892 15.9209 17.7136 16.2213 17.7136 16.5346V18.8966C17.7136 19.2099 17.5892 19.5103 17.3677 19.7317C17.1462 19.9532 16.8458 20.0777 16.5326 20.0777C16.2194 20.0777 15.919 19.9532 15.6975 19.7317C15.476 19.5103 15.3516 19.2099 15.3516 18.8966Z" stroke="black" stroke-width="1.77156" stroke-linecap="round"/>
</svg>
