<svg width="1397" height="114" viewBox="0 0 1397 114" fill="none" xmlns="http://www.w3.org/2000/svg">
<path d="M767.176 48.4413L770.143 46.4797L768.245 43.6133L784.388 42.6259L777.174 57.1L775.275 54.2284L772.309 56.1952L777.608 64.1993L790.321 38.6976L761.877 40.4373L767.176 48.4413Z" fill="white"/>
<path d="M804.309 58.0359L809.558 43.0918L806.623 43.2713L802.941 54.1087L797.944 43.8021L795.01 43.9816L802.041 58.1746L804.309 58.0359Z" fill="white"/>
<path d="M813.029 42.8795L813.92 57.448L824.763 56.7848L824.605 54.2041L816.551 54.6967L816.337 51.2003L823.143 50.784L822.985 48.2033L816.179 48.6196L815.976 45.2896L823.926 44.8034L823.768 42.2226L813.029 42.8795Z" fill="white"/>
<path d="M827.874 41.9715L828.765 56.5401L831.554 56.3695L831.24 51.2289L834.632 51.0214L838.006 55.9749L841.107 55.7852L837.433 50.3696C839.073 49.5172 840.057 47.8485 839.941 45.9546C839.86 44.6226 839.313 43.528 838.28 42.6929C837.268 41.8566 836.053 41.4712 834.617 41.5591L827.874 41.9715ZM834.775 44.1398C836.003 44.0647 836.953 44.9049 837.028 46.1328C837.103 47.3607 836.264 48.3312 835.036 48.4063L831.082 48.6482L830.821 44.3817L834.775 44.1398Z" fill="white"/>
<path d="M847.831 43.3413L848.564 55.3291L851.374 55.1573L850.641 43.1694L855.469 42.8741L855.311 40.2934L842.845 41.0559L843.003 43.6366L847.831 43.3413Z" fill="white"/>
<path d="M859.109 40.0611L860 54.6297L870.843 53.9665L870.685 51.3858L862.631 51.8784L862.417 48.3819L869.222 47.9657L869.065 45.385L862.259 45.8012L862.055 42.4713L870.006 41.985L869.848 39.4043L859.109 40.0611Z" fill="white"/>
<path d="M878.782 46.0232L873.825 53.7841L877.176 53.5792L880.587 48.2107L884.626 53.1234L887.956 52.9198L882.112 45.8195L886.857 38.3639L883.527 38.5676L880.307 43.632L876.493 38.9979L873.142 39.2028L878.782 46.0232Z" fill="white"/>
<path d="M976.218 47.0278C976.023 46.7554 975.775 46.5247 975.489 46.349C975.204 46.1734 974.886 46.0565 974.555 46.0051C973.287 45.7907 972.155 45.083 971.406 44.0366C970.658 42.9902 970.355 41.6902 970.562 40.4207C970.642 39.93 970.574 39.4268 970.369 38.9742C970.163 38.5216 969.829 38.1398 969.407 37.8768C968.985 37.6138 968.495 37.4813 967.998 37.4959C967.502 37.5105 967.02 37.6715 966.614 37.9588C966.209 38.2462 965.897 38.6469 965.719 39.1108C965.54 39.5747 965.503 40.081 965.611 40.5661C965.719 41.0512 965.968 41.4936 966.327 41.8375C966.686 42.1815 967.138 42.4118 967.627 42.4995C968.26 42.602 968.866 42.8284 969.41 43.1655C969.955 43.5026 970.428 43.9439 970.801 44.4641C971.175 44.9843 971.443 45.5731 971.588 46.1969C971.734 46.8206 971.755 47.467 971.651 48.0989C971.591 48.5059 971.631 48.9213 971.769 49.3089C971.906 49.6966 972.136 50.0448 972.439 50.3231C972.742 50.6015 973.108 50.8015 973.506 50.9059C973.904 51.0102 974.321 51.0156 974.722 50.9217C975.122 50.8278 975.494 50.6374 975.804 50.3671C976.114 50.0967 976.353 49.7547 976.5 49.3707C976.648 48.9867 976.699 48.5725 976.65 48.1642C976.601 47.7558 976.452 47.3657 976.218 47.0278Z" fill="white"/>
<path d="M960.568 45.18C961.023 45.3934 961.532 45.4659 962.028 45.3883C962.525 45.3108 962.987 45.0865 963.355 44.7445C963.724 44.4024 963.981 43.9581 964.095 43.4686C964.209 42.9791 964.175 42.4667 963.995 41.9971C963.768 41.3982 963.661 40.7604 963.681 40.1201C963.7 39.4798 963.846 38.8497 964.11 38.2659C964.373 37.6821 964.749 37.156 965.217 36.7179C965.684 36.2798 966.233 35.9382 966.833 35.7127C967.298 35.5353 967.7 35.2243 967.988 34.819C968.277 34.4136 968.439 33.9319 968.454 33.4346C968.47 32.9373 968.338 32.4465 968.075 32.024C967.812 31.6015 967.43 31.2663 966.977 31.0604C966.524 30.8545 966.02 30.7871 965.529 30.8668C965.038 30.9465 964.581 31.1697 964.217 31.5084C963.852 31.8469 963.596 32.2858 963.48 32.7697C963.365 33.2537 963.395 33.761 963.566 34.2279C964.017 35.4329 963.971 36.7672 963.439 37.9386C962.908 39.1101 961.934 40.0233 960.731 40.4784C960.256 40.6484 959.842 40.9573 959.544 41.365C959.246 41.7727 959.077 42.2605 959.06 42.7651C959.042 43.2699 959.176 43.7682 959.445 44.1958C959.714 44.6233 960.105 44.9603 960.567 45.1632L960.568 45.18Z" fill="white"/>
<path d="M967.021 44.3722C966.687 44.4045 966.363 44.503 966.068 44.6621C965.772 44.8212 965.512 45.0376 965.301 45.2987C964.482 46.2897 963.304 46.916 962.024 47.0408C960.745 47.1657 959.468 46.7788 958.473 45.9648C958.215 45.7514 957.918 45.5912 957.598 45.4936C957.279 45.3961 956.943 45.3631 956.61 45.3965C956.201 45.4409 955.809 45.5849 955.468 45.8158C955.127 46.0466 954.848 46.3574 954.655 46.721C954.462 47.0845 954.361 47.4898 954.36 47.9014C954.36 48.3131 954.46 48.7186 954.653 49.0825C954.845 49.4464 955.124 49.7577 955.464 49.9893C955.804 50.2208 956.196 50.3655 956.605 50.4108C957.014 50.456 957.428 50.4004 957.811 50.2489C958.194 50.0973 958.534 49.8544 958.801 49.5413C959.206 49.0449 959.705 48.6332 960.27 48.33C960.835 48.0268 961.454 47.838 962.091 47.7743C962.729 47.7107 963.373 47.7735 963.986 47.9591C964.6 48.1448 965.17 48.4496 965.666 48.8561C965.988 49.1132 966.368 49.2875 966.773 49.3637C967.178 49.4399 967.595 49.4157 967.989 49.2932C968.382 49.1707 968.74 48.9537 969.03 48.6611C969.32 48.3686 969.534 48.0093 969.654 47.6149C969.773 47.2204 969.794 46.8028 969.714 46.3984C969.635 45.9941 969.457 45.6154 969.197 45.2954C968.938 44.9755 968.604 44.7241 968.224 44.5631C967.845 44.4022 967.432 44.3366 967.021 44.3722Z" fill="white"/>
<path d="M993.685 46.1231C995.037 46.0405 995.849 45.4982 996.123 44.4964C996.211 44.1192 996.265 43.6419 996.286 43.0645L995.562 43.0809C995.529 44.3654 995.245 45.0333 994.709 45.0847C994.299 45.0726 994.067 44.6221 994.013 43.7332L993.658 37.9279C993.516 35.6132 992.355 34.253 990.174 33.8474C989.61 33.7517 989.005 33.7237 988.357 33.7633C985.838 33.9174 984.288 34.5605 983.707 35.6927C983.557 35.9806 983.492 36.282 983.511 36.5968C983.556 37.319 983.926 37.7518 984.622 37.895C984.792 37.9404 984.97 37.9574 985.155 37.9461C985.951 37.8974 986.465 37.4757 986.695 36.6809C986.725 36.5675 986.769 36.379 986.828 36.1152C986.986 35.362 987.217 34.8832 987.52 34.6788C987.718 34.5737 987.947 34.5133 988.206 34.4974C989.077 34.4442 989.637 34.9397 989.886 35.9839C989.984 36.3682 990.05 36.8289 990.082 37.3659L990.193 39.1714C985.439 39.5551 983.128 40.9604 983.258 43.3873C983.358 45.0354 984.145 46.0468 985.618 46.4214C986.052 46.525 986.528 46.5609 987.046 46.5292C988.62 46.4329 989.741 45.7695 990.41 44.5391C990.543 44.2893 990.648 44.032 990.725 43.767C991.211 45.3358 992.198 46.1212 993.685 46.1231ZM988.418 45.2464C987.489 45.266 986.967 44.4709 986.85 42.8609C986.775 41.6388 987.226 40.8119 988.204 40.3804C988.73 40.1809 989.409 40.0371 990.24 39.9491L990.405 42.6435C990.133 43.9613 989.617 44.7921 988.857 45.1359C988.694 45.2017 988.547 45.2385 988.418 45.2464Z" fill="white"/>
<path d="M1004.29 44.4708L1002.23 44.5965L1001.87 38.5967C1001.88 36.6444 1002.28 35.4304 1003.07 34.9547C1003.19 34.8912 1003.31 34.8561 1003.42 34.8493C1003.63 34.8368 1003.86 35.0362 1004.13 35.4474C1004.5 36.0195 1004.88 36.3678 1005.28 36.4922C1005.47 36.5364 1005.67 36.5517 1005.9 36.5381C1006.64 36.4928 1007.14 36.1087 1007.41 35.3858C1007.51 35.1382 1007.55 34.8849 1007.54 34.6256C1007.48 33.6997 1006.99 33.1441 1006.07 32.9589C1005.84 32.917 1005.61 32.9033 1005.37 32.9181C1004.22 32.9883 1003.24 33.5037 1002.42 34.4643C1002.06 34.9325 1001.79 35.4321 1001.62 35.9631L1001.27 33.3917L996.409 33.689L996.454 34.4112L998.065 34.3127L998.619 43.3679C998.668 44.1827 998.373 44.6654 997.731 44.8162C997.548 44.8645 997.337 44.8961 997.096 44.9108L997.14 45.633L1005 45.1522C1004.97 44.7263 1004.84 44.5022 1004.6 44.4799C1004.5 44.467 1004.4 44.464 1004.29 44.4708Z" fill="white"/>
<path d="M1012.58 38.6388C1012.42 36.0463 1012.63 34.3697 1013.22 33.609C1013.58 33.1593 1014.11 32.9129 1014.82 32.8699C1016 32.7974 1016.8 33.3528 1017.2 34.5361C1017.47 35.3002 1017.66 36.5249 1017.76 38.21C1017.93 40.9136 1017.68 42.6387 1017.02 43.3855C1016.64 43.7993 1016.12 44.026 1015.47 44.0656C1014.33 44.1358 1013.55 43.5886 1013.14 42.4238C1012.87 41.6411 1012.68 40.3795 1012.58 38.6388ZM1014.91 32.1392C1012.63 32.2785 1010.93 33.1633 1009.8 34.7935C1009.02 35.9567 1008.67 37.279 1008.76 38.7604C1008.89 40.8529 1009.72 42.4661 1011.23 43.5999C1012.44 44.4927 1013.84 44.8903 1015.43 44.7929C1017.62 44.6593 1019.28 43.7675 1020.43 42.1176C1021.28 40.8758 1021.66 39.4772 1021.57 37.9217C1021.44 35.8477 1020.61 34.2721 1019.07 33.195C1017.89 32.3937 1016.5 32.0418 1014.91 32.1392Z" fill="white"/>
<path d="M1028.93 42.9639L1028.43 42.9945L1028.02 35.8264C1028.04 34.3567 1028.46 33.3735 1029.29 32.877C1029.52 32.7327 1029.76 32.6531 1030 32.6384C1030.68 32.5965 1031.2 32.9924 1031.55 33.8261C1031.7 34.2256 1031.79 34.6753 1031.83 35.1753L1032.2 41.3139C1032.25 42.0731 1032.1 42.5376 1031.76 42.7073C1031.59 42.773 1031.36 42.8149 1031.07 42.8331L1031.11 43.5553L1037 43.1951C1036.97 42.7692 1036.84 42.5451 1036.6 42.5228C1036.48 42.511 1036.37 42.5086 1036.26 42.5154L1035.79 42.5442L1035.35 35.4334L1035.34 35.239C1035.38 33.6941 1035.82 32.7098 1036.67 32.2862C1036.85 32.2008 1037.03 32.1525 1037.22 32.1411C1038.01 32.0924 1038.59 32.5312 1038.94 33.4575C1039.08 33.8396 1039.16 34.2621 1039.19 34.7251L1039.56 40.8637C1039.61 41.6229 1039.46 42.0874 1039.12 42.257C1038.95 42.3228 1038.72 42.3647 1038.43 42.3829L1038.47 43.105L1044.8 42.7177C1044.78 42.2918 1044.64 42.0677 1044.4 42.0454C1044.29 42.0336 1044.18 42.0312 1044.07 42.038L1043.15 42.094L1042.71 34.8443C1042.6 33.0296 1041.91 31.7794 1040.66 31.0938C1040.09 30.7759 1039.47 30.6368 1038.83 30.6764C1037.03 30.8048 1035.74 31.748 1034.96 33.506C1034.43 32.2184 1033.59 31.4425 1032.45 31.1783C1032.14 31.1224 1031.85 31.1034 1031.55 31.1216C1029.77 31.2488 1028.53 32.1429 1027.81 33.8038L1027.55 31.7846L1022.6 32.087L1022.65 32.8091L1024.26 32.7106L1024.81 41.7658C1024.86 42.6176 1024.49 43.1142 1023.7 43.2555C1023.58 43.2819 1023.44 43.2997 1023.29 43.3088L1023.33 44.0309L1029.64 43.6453C1029.61 43.2194 1029.48 42.9953 1029.24 42.973C1029.14 42.9601 1029.04 42.9571 1028.93 42.9639Z" fill="white"/>
<path d="M1052.04 41.5504L1051.01 41.6133L1050.32 30.3915L1045.19 30.7058L1045.23 31.4279L1046.84 31.3294L1047.39 40.3846C1047.44 41.1994 1047.15 41.6822 1046.51 41.8329C1046.32 41.8813 1046.11 41.9128 1045.87 41.9275L1045.92 42.6497L1052.75 42.2318C1052.72 41.8059 1052.59 41.5818 1052.35 41.5595C1052.25 41.5466 1052.15 41.5436 1052.04 41.5504ZM1050.35 26.7374C1050.3 25.9226 1049.9 25.3429 1049.16 24.9982C1048.83 24.8323 1048.49 24.7601 1048.14 24.7816C1047.34 24.8303 1046.76 25.2282 1046.4 25.9753C1046.25 26.3003 1046.19 26.6387 1046.21 26.9905C1046.26 27.8053 1046.66 28.3758 1047.4 28.702C1047.73 28.8494 1048.06 28.9129 1048.39 28.8925C1049.21 28.8427 1049.79 28.4633 1050.13 27.7544C1050.3 27.4282 1050.37 27.0893 1050.35 26.7374Z" fill="white"/>
<path d="M1053.44 42.1893L1057.64 41.9328L1057.59 41.2106L1055.65 41.3295L1058.73 36.9592L1061.76 40.9558L1060.23 41.0492L1060.28 41.7714L1066.69 41.379C1066.67 40.9531 1066.5 40.7306 1066.21 40.7117C1066.13 40.6977 1066.05 40.6936 1065.95 40.6992L1065.4 40.7332L1060.97 34.8704L1063.5 31.119C1063.84 30.5964 1064.3 30.2897 1064.87 30.199C1065.14 30.145 1065.3 30.0237 1065.35 29.8351C1065.36 29.7229 1065.36 29.602 1065.35 29.4724L1061.24 29.7238L1061.28 30.446L1063.09 30.3356L1060.45 34.2048L1057.78 30.66L1059.31 30.5666L1059.27 29.8444L1052.82 30.2386L1052.87 30.9607L1054.15 30.8826L1058.27 36.318L1055.24 40.5461C1054.88 41.0328 1054.42 41.3395 1053.87 41.466C1053.62 41.5004 1053.47 41.6206 1053.45 41.8265C1053.44 41.9388 1053.44 42.0597 1053.44 42.1893Z" fill="white"/>
<path d="M1145.61 23.8014C1142.87 23.9691 1137.24 22.083 1137.07 19.3421L1137.03 19.3446C1137.17 21.5383 1138.17 23.5888 1139.81 25.0452C1141.46 26.5015 1143.62 27.2443 1145.81 27.1102C1147.13 27.0297 1148.42 27.4754 1149.41 28.3492C1150.4 29.2229 1151 30.4533 1151.08 31.7695C1151.16 33.0857 1150.71 34.3802 1149.84 35.368C1148.97 36.3558 1147.74 36.9561 1146.42 37.0369C1145.1 37.1176 1143.81 36.6722 1142.82 35.7986C1141.83 34.925 1141.23 33.6947 1141.15 32.3786C1141.09 31.2923 1140.81 30.2298 1140.33 29.2517C1139.85 28.2736 1139.19 27.399 1138.37 26.6779C1137.56 25.9568 1136.61 25.4034 1135.58 25.0491C1134.55 24.6948 1133.46 24.5467 1132.37 24.6132L1132.38 24.6534C1135.12 24.4858 1137.67 29.8376 1137.84 32.5789L1137.84 32.5789C1137.94 34.2149 1138.53 35.7844 1139.52 37.0891C1140.51 38.3937 1141.87 39.3749 1143.42 39.9085C1144.97 40.4423 1146.64 40.5044 1148.22 40.0871C1149.81 39.6699 1151.23 38.792 1152.32 37.5646C1153.41 36.337 1154.1 34.8151 1154.33 33.191C1154.55 31.567 1154.28 29.9139 1153.56 28.4407C1152.84 26.9675 1151.71 25.7405 1150.29 24.9147C1148.87 24.0889 1147.24 23.7015 1145.61 23.8014Z" fill="white"/>
<path d="M1162.92 38.1624C1162.93 38.4191 1163.18 38.636 1163.43 38.6203L1164.72 38.5418C1165.02 38.523 1165.43 38.3952 1165.41 38.0101L1164.94 30.361L1169.84 30.0611L1170.31 37.7103C1170.32 37.967 1170.57 38.1839 1170.83 38.1682L1172.29 38.0787C1172.55 38.063 1172.76 37.8178 1172.75 37.5611L1172.18 28.2692C1172.16 28.0125 1171.92 27.7956 1171.66 27.8113L1164.81 28.2305L1164.61 25.0476C1164.5 23.2765 1165.54 22.4662 1166.59 22.4018C1167.72 22.3327 1169.07 22.9457 1169.31 23.0599C1169.6 23.1966 1169.83 23.2082 1169.97 22.8907L1170.54 21.6964C1170.66 21.4832 1170.59 21.1783 1170.37 21.0626C1169.81 20.7618 1168.17 20.0378 1166.45 20.143C1163.91 20.2984 1161.94 22.1453 1162.12 25.1999L1162.32 28.3828L1161.11 28.4566C1160.83 28.4738 1160.64 28.6917 1160.65 28.9741L1160.72 30.1292C1160.74 30.3858 1160.96 30.6043 1161.24 30.587L1162.45 30.5132L1162.92 38.1624Z" fill="white"/>
<path d="M1176.08 37.3571C1176.1 37.6138 1176.34 37.8307 1176.6 37.815L1177.83 37.7396C1178.24 37.7145 1178.52 37.6459 1178.5 37.2096L1178.1 30.6898C1178.19 30.5038 1178.84 29.3818 1180.33 29.2907C1180.66 29.2703 1181.05 29.3494 1181.21 29.417C1181.45 29.5056 1181.7 29.4385 1181.82 29.1483L1182.35 27.8529C1182.59 27.1426 1181.4 26.9581 1180.42 27.0178C1178.55 27.1324 1177.67 28.4226 1177.51 28.6902L1177.17 27.8348C1177.11 27.6326 1176.9 27.4911 1176.72 27.5021L1175.97 27.5476C1175.72 27.5633 1175.5 27.8085 1175.51 28.0652L1176.08 37.3571Z" fill="white"/>
<path d="M1183.6 32.2339C1183.78 35.1857 1185.98 37.4986 1189.09 37.3087C1190.81 37.2035 1192.11 36.4801 1192.81 35.7929C1193.1 35.5174 1193.01 35.3167 1192.82 35.1224L1192.04 34.1909C1191.82 33.9468 1191.65 34.0605 1191.35 34.259C1190.86 34.6241 1190.04 35.0866 1189.11 35.1431C1187.44 35.2452 1186.15 33.9585 1185.99 32.5771L1192.97 32.1501C1193.21 32.136 1193.4 31.9437 1193.41 31.6855C1193.42 31.5042 1193.43 31.169 1193.42 30.9893C1193.25 28.2428 1191.08 26.3662 1188.41 26.5295C1185.33 26.7179 1183.42 29.3333 1183.6 32.2339ZM1186.02 30.9522C1186.1 29.6593 1187.11 28.5923 1188.5 28.5076C1189.76 28.4306 1190.85 29.4202 1191 30.6476L1186.02 30.9522Z" fill="white"/>
<path d="M1196.21 36.126C1196.23 36.3827 1196.47 36.5996 1196.73 36.5839L1198.19 36.4944C1198.45 36.4787 1198.67 36.2335 1198.65 35.9769L1197.61 18.9844C1197.59 18.7277 1197.35 18.5108 1197.09 18.5265L1195.63 18.616C1195.37 18.6317 1195.16 18.8768 1195.17 19.1335L1196.21 36.126Z" fill="white"/>
<path d="M1202.3 21.7376C1203.15 21.6857 1203.78 20.9775 1203.73 20.1562C1203.67 19.3091 1202.97 18.6825 1202.12 18.7344C1201.3 18.7846 1200.7 19.4912 1200.75 20.3383C1200.8 21.1597 1201.48 21.7878 1202.3 21.7376ZM1201.98 35.7734C1201.99 36.0301 1202.24 36.247 1202.49 36.2313L1203.96 36.1418C1204.21 36.1261 1204.43 35.8809 1204.41 35.6242L1203.85 26.3323C1203.83 26.0756 1203.59 25.8587 1203.33 25.8744L1201.87 25.9639C1201.61 25.9796 1201.39 26.2247 1201.41 26.4814L1201.98 35.7734Z" fill="white"/>
<path d="M1279.61 30.741L1278.76 16.8274L1278.43 13.9969L1280.52 16.72L1291.16 30.0345L1293.65 29.8822L1292.34 8.50114L1289.57 8.67095L1290.4 22.3293L1290.76 25.5746L1288.36 22.3904L1277.98 9.37946L1275.53 9.52975L1276.83 30.9108L1279.61 30.741ZM1301.67 29.7124C1304.86 29.5172 1306.38 27.1181 1306.76 25.0445L1306.83 26.1295C1306.96 28.2995 1308.16 28.9951 1309.75 28.8975L1311.54 28.7882L1311.39 26.2672L1310.4 26.3277C1309.82 26.3628 1309.52 26.157 1309.48 25.423L1309.09 19.0725C1308.86 15.4026 1306.68 13.2618 1302.88 13.4941C1299.44 13.7048 1297.26 15.792 1296.43 17.4442L1298.43 19.2757C1299.13 17.5356 1300.52 16.1693 1302.72 16.0346C1305.14 15.8863 1306.09 17.1739 1306.3 18.987L1300.86 21.8177C1298.72 22.9417 1297.24 24.3457 1297.36 26.42C1297.49 28.4624 1299.05 29.8725 1301.67 29.7124ZM1300.15 25.8015C1300.09 24.8441 1300.72 24.1649 1302.14 23.373L1306.51 20.9916L1306.64 23.1297C1306.78 25.3636 1305.04 27.2 1302.42 27.3601C1300.98 27.4479 1300.21 26.8546 1300.15 25.8015ZM1319.51 28.6531C1321.65 28.5223 1323.05 27.4433 1323.66 26.3492L1322.57 23.6614C1322.21 24.6441 1321.32 25.8515 1319.95 25.9354C1318.74 26.0096 1317.78 25.5875 1317.66 23.609L1317.14 15.1203L1322.22 14.81L1322.09 12.64L1317.01 12.9503L1316.77 8.92941L1314.11 11.1416L1314.23 13.1201L1311.75 13.2724L1311.88 15.4424L1314.37 15.2902L1314.94 24.6085C1315.1 27.2572 1316.99 28.8073 1319.51 28.6531ZM1328.56 27.747L1328.03 19.0031C1327.87 16.3544 1329.51 13.9155 1331.49 13.7945C1332.61 13.7262 1333.13 14.4628 1333.19 15.3564C1333.24 16.218 1332.88 17.2007 1332.4 17.6787L1335.43 17.4933C1335.66 17.0947 1335.96 16.1159 1335.88 14.8075C1335.74 12.6375 1334.07 11.5543 1332.42 11.6558C1329.8 11.8159 1328.33 13.9878 1327.87 16.4182L1327.62 12.3016L1324.84 12.4714L1325.79 27.9168L1328.56 27.747ZM1345.05 27.0587C1349.33 26.7971 1352.17 23.4524 1351.87 18.5699C1351.57 13.6873 1348.35 10.7134 1344.07 10.975C1339.79 11.2365 1336.99 14.5793 1337.29 19.4618C1337.59 24.3444 1340.78 27.3202 1345.05 27.0587ZM1344.91 24.7291C1342.3 24.8891 1340.36 23.1814 1340.13 19.2881C1339.89 15.3629 1341.6 13.4646 1344.21 13.3046C1346.86 13.1426 1348.82 14.8164 1349.06 18.7416C1349.3 22.6349 1347.56 24.5671 1344.91 24.7291ZM1358.6 25.9096L1358.07 17.1657C1357.91 14.5808 1358.87 12.4401 1361.2 12.2977C1363.53 12.1552 1364.65 13.2077 1364.79 15.4734L1365.4 25.4938L1368.18 25.324L1367.64 16.5801C1367.49 13.9952 1368.44 11.8546 1370.81 11.7102C1373.1 11.5696 1374.26 12.6202 1374.39 14.8859L1375.01 24.9063L1377.75 24.7385L1377.1 14.0479C1376.9 10.7929 1375.22 9.06955 1372.19 9.25498C1369.38 9.42674 1367.92 11.5986 1367.46 14.0929C1367.12 11.1987 1365.46 9.66681 1362.62 9.84052C1359.84 10.0103 1358.37 12.1503 1357.91 14.5489L1357.66 10.4641L1354.88 10.6339L1355.83 26.0794L1358.6 25.9096ZM1385.15 24.606C1388.35 24.4108 1389.86 22.0117 1390.25 19.9381L1390.32 21.0231C1390.45 23.1931 1391.65 23.8887 1393.24 23.7911L1395.03 23.6818L1394.87 21.1608L1393.88 21.2213C1393.31 21.2564 1393.01 21.0506 1392.96 20.3166L1392.58 13.9661C1392.35 10.2962 1390.17 8.1554 1386.37 8.38766C1382.93 8.59846 1380.75 10.6856 1379.92 12.3378L1381.92 14.1693C1382.62 12.4292 1384.01 11.0629 1386.21 10.9282C1388.63 10.7799 1389.58 12.0675 1389.78 13.8806L1384.35 16.7113C1382.21 17.8353 1380.73 19.2393 1380.85 21.3136C1380.98 23.356 1382.54 24.7661 1385.15 24.606ZM1383.63 20.6951C1383.58 19.7377 1384.21 19.0585 1385.63 18.2666L1390 15.8852L1390.13 18.0234C1390.27 20.2572 1388.52 22.0937 1385.91 22.2537C1384.47 22.3415 1383.7 21.7482 1383.63 20.6951Z" fill="white"/>
<path d="M22.7472 95.2972L22.7309 95.2828C22.7296 95.282 22.7286 95.2809 22.7279 95.2796L12.5428 86.2685L3.53198 96.4535C3.53095 96.4546 3.53042 96.4562 3.52935 96.457L3.51445 96.4733C2.13707 98.0389 1.32254 100.02 1.20036 102.102C1.07818 104.184 1.65535 106.246 2.84012 107.963C4.02489 109.679 5.74927 110.949 7.73915 111.573C9.72901 112.196 11.8702 112.137 13.8223 111.403C13.9865 111.342 14.1655 111.331 14.336 111.372C16.3628 111.862 18.4951 111.66 20.394 110.798C22.293 109.937 23.8495 108.466 24.8162 106.618C25.7829 104.771 26.1045 102.653 25.7296 100.602C25.3547 98.5505 24.305 96.6834 22.7472 95.2972ZM7.33314 102.593C7.28928 102.642 7.25562 102.7 7.23408 102.763C7.21252 102.825 7.20351 102.892 7.20756 102.958C7.32825 104.651 7.90835 106.278 8.88544 107.666C8.90763 107.698 8.9193 107.735 8.91878 107.774C8.91826 107.812 8.90558 107.85 8.88254 107.881C8.85952 107.912 8.82731 107.934 8.79054 107.946C8.75378 107.957 8.71433 107.957 8.67785 107.944C7.99242 107.704 7.36037 107.333 6.81705 106.851C5.70375 105.866 5.02693 104.479 4.93522 102.995C4.84351 101.511 5.34442 100.052 6.32794 98.9372L12.8658 91.5482L20.255 98.0854C21.3672 99.0718 22.0424 100.459 22.1322 101.943C22.2221 103.427 21.7192 104.886 20.7342 106C20.2536 106.544 19.6716 106.99 19.0207 107.312C18.9859 107.329 18.9468 107.334 18.9089 107.327C18.871 107.32 18.8363 107.301 18.8096 107.273C18.783 107.246 18.7658 107.21 18.7606 107.172C18.7554 107.134 18.7624 107.095 18.7806 107.061C19.5814 105.565 19.9591 103.878 19.8728 102.183C19.8688 102.117 19.8516 102.052 19.8225 101.993C19.7933 101.933 19.7528 101.88 19.7031 101.836L16.1957 98.544C16.1612 98.5187 16.119 98.5062 16.0762 98.5088C16.0336 98.5114 15.9931 98.5289 15.9621 98.5583C15.9309 98.5876 15.9112 98.627 15.9061 98.6695C15.9009 98.712 15.9109 98.7548 15.9342 98.7907C17.355 101.027 16.4584 104.42 14.7362 106.367L14.7271 106.377C14.4893 106.643 14.156 106.804 13.7999 106.826C13.4437 106.847 13.0934 106.728 12.8251 106.492L12.8156 106.484C10.8683 104.762 9.56555 101.504 10.7034 99.1111C10.7222 99.0726 10.7268 99.0289 10.7166 98.9874C10.7064 98.9458 10.6819 98.9091 10.6475 98.8839C10.613 98.8585 10.5708 98.846 10.5281 98.8486C10.4854 98.8513 10.445 98.8688 10.4139 98.8982L7.33314 102.593Z" fill="white"/>
<path d="M46.262 92.2521L49.4386 92.0578L46.817 103.269L43.1867 103.491L41.2495 97.074L40.089 103.68L36.4586 103.902L32.4903 93.0944L35.8642 92.888L38.0538 100.517L39.2775 92.6792L42.8487 92.4608L45.0186 100.091L46.262 92.2521Z" fill="white"/>
<path d="M58.1498 99.0703C58.6075 98.567 58.8098 97.8813 58.7567 97.0132C58.7036 96.1451 58.4196 95.4957 57.9048 95.0651C57.3892 94.6213 56.8157 94.4187 56.1843 94.4574C55.5529 94.496 55.0084 94.7669 54.5507 95.2702C54.093 95.7735 53.8906 96.4592 53.9437 97.3274C53.9968 98.1955 54.2812 98.8514 54.7968 99.2952C55.3117 99.7258 55.8848 99.9218 56.5162 99.8832C57.1475 99.8446 57.6921 99.5736 58.1498 99.0703ZM52.2181 101.493C51.1804 100.5 50.6112 99.1815 50.5107 97.5373C50.4101 95.8931 50.8143 94.5151 51.7233 93.4033C52.6315 92.2784 53.7828 91.6732 55.177 91.588C56.5845 91.5019 57.6948 91.9555 58.5081 92.9488L58.42 91.5084L61.7939 91.3021L62.4673 102.312L59.0934 102.518L58.9957 100.92C58.2509 102.127 57.1946 102.773 55.8266 102.856C54.4587 102.94 53.2558 102.485 52.2181 101.493Z" fill="white"/>
<path d="M63.3574 91.2065L66.9483 90.9868L69.9548 99.0216L71.9598 90.6803L75.5507 90.4607L72.3174 101.709L67.9373 101.977L63.3574 91.2065Z" fill="white"/>
<path d="M82.4668 101.227C80.862 101.325 79.5153 100.893 78.4266 99.9294C77.3371 98.953 76.74 97.6098 76.6354 95.8999C76.5308 94.1899 76.954 92.7976 77.9049 91.7228C78.8689 90.6472 80.1598 90.06 81.7777 89.961C83.3956 89.862 84.7678 90.2798 85.8944 91.2143C87.021 92.1488 87.6386 93.5039 87.7472 95.2797C87.7705 95.6611 87.7659 96.0179 87.7334 96.3499L80.157 96.8133C80.2525 97.296 80.4941 97.6839 80.8817 97.977C81.2685 98.257 81.6724 98.3842 82.0933 98.3584C82.5274 98.3319 82.8472 98.2727 83.0528 98.1809C83.2577 98.076 83.4037 97.9812 83.4909 97.8967C83.5905 97.7982 83.7132 97.6454 83.859 97.4385L87.5091 97.2152C87.261 98.3394 86.6843 99.2725 85.7791 100.014C84.8731 100.743 83.769 101.147 82.4668 101.227ZM84.1712 94.4488C84.0872 93.939 83.8383 93.5383 83.4244 93.2468C83.0097 92.9421 82.5327 92.8062 81.9934 92.8392C81.4541 92.8722 81.0103 93.0644 80.6621 93.4157C80.3132 93.7539 80.1083 94.1823 80.0476 94.701L84.1712 94.4488Z" fill="white"/>
<path d="M92.949 89.3966L93.0745 91.4485C93.7753 89.9533 94.7833 89.1655 96.0986 89.0851L96.3086 92.5182L95.4799 92.5688C94.7039 92.6163 94.1298 92.8363 93.7577 93.2287C93.3988 93.6203 93.2475 94.2765 93.3038 95.1972L93.6224 100.406L90.2485 100.612L89.5752 89.6029L92.949 89.3966Z" fill="white"/>
<path d="M100.939 87.6602C100.581 88.065 100.126 88.2843 99.5734 88.3181C99.021 88.3518 98.5424 88.1897 98.1376 87.8316C97.7328 87.4734 97.5135 87.0182 97.4797 86.4657C97.4452 85.9001 97.6069 85.4149 97.965 85.0101C98.3232 84.6053 98.7784 84.3861 99.3309 84.3523C99.8833 84.3185 100.362 84.4807 100.767 84.8388C101.172 85.1969 101.391 85.6588 101.426 86.2244C101.46 86.7768 101.297 87.2554 100.939 87.6602ZM98.6108 100.101L97.9374 89.0915L101.311 88.8851L101.985 99.8946L98.6108 100.101Z" fill="white"/>
<path d="M111.348 95.8562C111.767 95.3553 111.948 94.6576 111.894 93.7632C111.839 92.8687 111.567 92.2054 111.079 91.7732C110.589 91.3278 110.029 91.1245 109.398 91.1631C108.766 91.2017 108.235 91.4718 107.804 91.9735C107.385 92.4613 107.202 93.1523 107.257 94.0468C107.312 94.9412 107.584 95.6111 108.073 96.0565C108.576 96.501 109.143 96.704 109.774 96.6654C110.405 96.6268 110.93 96.357 111.348 95.8562ZM105.731 98.2395C104.563 97.268 103.927 95.9338 103.823 94.237C103.719 92.5402 104.189 91.1516 105.232 90.0712C106.274 88.9777 107.61 88.381 109.241 88.2813C110.872 88.1815 112.265 88.6112 113.42 89.5704C114.586 90.5157 115.222 91.8367 115.326 93.5335C115.429 95.2303 114.967 96.6316 113.939 97.7375C112.911 98.8434 111.581 99.4463 109.95 99.546C108.319 99.6458 106.913 99.2103 105.731 98.2395Z" fill="white"/>
<path d="M195.924 78.7939L196.892 77.6992C198.794 75.5494 202.089 75.2975 204.25 77.1871C205.069 77.9048 205.642 78.861 205.89 79.9213C206.137 80.9816 206.046 82.0929 205.63 83.0989C205.43 83.5796 205.385 84.1107 205.502 84.618C205.618 85.1253 205.891 85.5835 206.28 85.9287C206.914 85.2106 207.4 84.3748 207.711 83.4688C208.021 82.5628 208.15 81.6046 208.091 80.6487C208.031 79.6929 207.783 78.7582 207.362 77.898C206.941 77.0378 206.354 76.2691 205.636 75.6357C202.614 72.9769 197.992 73.3161 195.325 76.3309L186.093 86.7654L185.235 86.0064C183.049 84.0722 182.83 80.7054 184.803 78.5535C185.533 77.7593 186.492 77.2113 187.547 76.9853C188.602 76.7593 189.701 76.8663 190.693 77.2915C191.146 77.4897 191.65 77.5397 192.133 77.4343C192.616 77.329 193.053 77.0737 193.382 76.705L193.406 76.6785C193.413 76.6703 193.419 76.6607 193.422 76.6503C193.426 76.6399 193.428 76.6288 193.427 76.6178C193.426 76.6068 193.423 76.5961 193.419 76.5862C193.414 76.5763 193.407 76.5675 193.399 76.5602C191.965 75.3235 190.106 74.6933 188.215 74.803C186.325 74.9126 184.551 75.7534 183.269 77.1475C180.509 80.1587 180.808 84.8669 183.867 87.5737L194.299 96.8028L193.318 97.9109C191.416 100.061 188.121 100.313 185.96 98.423C185.142 97.7054 184.568 96.7491 184.321 95.6888C184.073 94.6285 184.164 93.5173 184.58 92.5112C184.78 92.0305 184.825 91.4995 184.708 90.9922C184.592 90.4849 184.32 90.0266 183.93 89.6814C183.296 90.3995 182.81 91.2353 182.5 92.1413C182.189 93.0473 182.06 94.0055 182.12 94.9614C182.18 95.9172 182.427 96.852 182.848 97.7121C183.269 98.5723 183.856 99.341 184.574 99.9744C187.597 102.633 192.218 102.294 194.885 99.2793L204.129 88.8309L204.99 89.5928C207.14 91.4947 207.392 94.7898 205.502 96.9504C204.785 97.7694 203.828 98.3428 202.768 98.5904C201.708 98.838 200.597 98.7471 199.591 98.3306C199.11 98.1306 198.578 98.0857 198.071 98.2025C197.563 98.3192 197.105 98.5915 196.76 98.9815C197.478 99.6153 198.314 100.101 199.22 100.412C200.126 100.723 201.084 100.852 202.04 100.792C202.996 100.732 203.93 100.484 204.791 100.063C205.651 99.6422 206.42 99.0556 207.053 98.3373C209.712 95.315 209.373 90.6936 206.358 88.0264L195.924 78.7939ZM195.677 95.2444L187.651 88.1441L194.545 80.3523L202.57 87.4527L195.677 95.2444Z" fill="white"/>
<path d="M221.57 94.9897C220.065 95.0818 218.887 94.7106 218.037 93.8762C217.193 93.0414 216.678 91.862 216.491 90.3378L218.843 89.5948C219.107 91.9756 219.976 93.1209 221.45 93.0308C222.644 92.9578 223.204 92.3242 223.131 91.1302C223.11 90.7757 223.04 90.4523 222.922 90.1599C222.81 89.8608 222.647 89.593 222.433 89.3565C222.218 89.1137 222.026 88.9226 221.855 88.7832C221.684 88.6376 221.451 88.4614 221.158 88.2547L218.026 86.0492C217.453 85.6536 216.981 85.1362 216.611 84.4972C216.247 83.8515 216.039 83.1058 215.988 82.2601C215.912 81.0287 216.235 80.0259 216.955 79.2515C217.676 78.4771 218.667 78.0513 219.93 77.974C221.285 77.8911 222.382 78.158 223.218 78.7748C224.061 79.3849 224.612 80.2906 224.873 81.4919C224.9 81.6213 224.933 81.8004 224.972 82.0289L222.62 82.772C222.607 82.6667 222.582 82.509 222.544 82.2991C222.392 81.5469 222.116 80.9552 221.715 80.524C221.32 80.0863 220.765 79.8893 220.049 79.933C219.477 79.968 219.046 80.1567 218.754 80.4991C218.463 80.8353 218.335 81.2894 218.37 81.8616C218.427 82.8006 218.873 83.563 219.708 84.1486L222.839 86.3541C224.51 87.544 225.4 89.0345 225.51 90.8256C225.585 92.0507 225.264 93.0316 224.547 93.7683C223.837 94.5046 222.844 94.9118 221.57 94.9897Z" fill="white"/>
<path d="M230.619 92.4699C231.248 92.4315 231.835 92.2333 232.381 91.8753L231.929 84.4873C231.903 84.4764 231.839 84.4429 231.736 84.3868C231.632 84.3306 231.558 84.2946 231.514 84.2786C231.475 84.256 231.407 84.2227 231.311 84.1786C231.215 84.1346 231.135 84.1052 231.071 84.0903C231.014 84.0688 230.938 84.0485 230.843 84.0294C230.754 84.0036 230.666 83.9872 230.578 83.98C230.496 83.9726 230.409 83.9717 230.315 83.9774C230.116 83.9895 229.942 84.047 229.792 84.1498C229.648 84.246 229.53 84.3593 229.439 84.4898C229.347 84.6203 229.27 84.8028 229.21 85.0375C229.156 85.2718 229.118 85.48 229.098 85.6623C229.078 85.8383 229.067 86.0762 229.067 86.3758C229.066 86.6692 229.068 86.897 229.071 87.0591C229.081 87.2207 229.095 87.4477 229.113 87.74C229.114 87.7525 229.114 87.7618 229.115 87.768C229.121 87.8737 229.132 88.0447 229.146 88.2811C229.161 88.5174 229.174 88.7444 229.188 88.962C229.201 89.1797 229.214 89.3849 229.225 89.5777C229.257 89.994 229.298 90.3598 229.349 90.675C229.405 90.9837 229.483 91.2879 229.582 91.5877C229.688 91.8809 229.826 92.1065 229.998 92.2645C230.176 92.4159 230.383 92.4844 230.619 92.4699ZM232.739 97.7335L232.454 93.0787C232.122 93.4673 231.774 93.7882 231.408 94.0415C231.049 94.2945 230.627 94.4357 230.142 94.4654C229.682 94.4936 229.265 94.4036 228.89 94.1956C228.521 93.9809 228.216 93.6968 227.976 93.3432C227.742 92.9892 227.539 92.5679 227.365 92.0791C227.198 91.5837 227.071 91.0952 226.985 90.6136C226.906 90.1316 226.85 89.6293 226.818 89.107L226.707 87.2879C226.674 86.7469 226.669 86.251 226.691 85.8002C226.713 85.3494 226.776 84.9023 226.88 84.459C226.984 84.0157 227.133 83.6383 227.326 83.3269C227.525 83.0088 227.796 82.7488 228.14 82.5468C228.483 82.3385 228.888 82.2201 229.354 82.1916C229.622 82.1752 229.873 82.1973 230.107 82.2579C230.348 82.3118 230.578 82.4101 230.799 82.5526C231.027 82.6948 231.203 82.8213 231.328 82.9323C231.459 83.0366 231.638 83.1942 231.863 83.4052L231.79 82.2112L234.178 82.0651L235.127 97.5875L232.739 97.7335Z" fill="white"/>
<path d="M238.538 93.9519C238.015 93.9839 237.584 93.8261 237.245 93.4786C236.905 93.1248 236.718 92.6743 236.685 92.1271L236.062 81.9499L238.45 81.8038L239.028 91.2534C239.043 91.5022 239.13 91.6997 239.289 91.8461C239.454 91.992 239.658 92.0576 239.9 92.0428C240.031 92.0348 240.158 92.0114 240.28 91.9727C240.403 91.934 240.521 91.8737 240.634 91.7919C240.754 91.7034 240.846 91.6353 240.912 91.5876C240.977 91.5337 241.069 91.447 241.186 91.3274C241.31 91.2075 241.387 91.1341 241.416 91.1073L240.838 81.6577L243.226 81.5117L243.957 93.452L241.569 93.598L241.49 92.3107C241.266 92.5304 241.101 92.6903 240.995 92.7904C240.895 92.8902 240.738 93.0277 240.524 93.2031C240.309 93.3723 240.117 93.4995 239.948 93.5848C239.784 93.6635 239.577 93.7386 239.325 93.8101C239.074 93.8879 238.811 93.9352 238.538 93.9519Z" fill="white"/>
<path d="M249.202 91.3334C249.369 91.3232 249.528 91.2635 249.677 91.1545C249.833 91.0451 249.948 90.9413 250.024 90.8431C250.099 90.7448 250.191 90.6144 250.299 90.4517C250.316 90.4194 250.33 90.3967 250.342 90.3835L250.14 87.0813C250.045 87.1558 249.886 87.2716 249.665 87.4287C249.444 87.5858 249.267 87.7152 249.136 87.8168C249.005 87.9123 248.848 88.0467 248.665 88.2202C248.481 88.3875 248.341 88.549 248.245 88.7047C248.148 88.8542 248.065 89.0371 247.998 89.2535C247.93 89.4699 247.903 89.6931 247.917 89.9232C247.977 90.912 248.406 91.3821 249.202 91.3334ZM248.127 93.3654C247.462 93.4061 246.878 93.1546 246.377 92.611C245.882 92.0608 245.612 91.425 245.568 90.7036C245.532 90.1253 245.596 89.5939 245.76 89.1095C245.93 88.6246 246.116 88.2357 246.316 87.9425C246.516 87.6431 246.862 87.3286 247.354 86.9989C247.845 86.663 248.218 86.431 248.473 86.3031C248.727 86.1752 249.17 85.964 249.801 85.6695C249.91 85.6191 249.992 85.5797 250.046 85.5514L249.994 84.6932C249.957 84.09 249.845 83.6287 249.656 83.3094C249.468 82.9838 249.144 82.8351 248.683 82.8633C248.273 82.8884 247.986 83.0495 247.824 83.3466C247.667 83.6371 247.591 84.0319 247.596 84.5309C247.594 84.5997 247.597 84.7025 247.606 84.8393L245.218 84.9854C245.16 83.8403 245.425 82.9097 246.011 82.1934C246.598 81.4771 247.451 81.0847 248.571 81.0163C249.684 80.9482 250.579 81.2399 251.255 81.8914C251.938 82.5363 252.313 83.4216 252.382 84.5472L252.711 89.9203C252.787 91.1641 252.95 92.1528 253.201 92.8865L250.822 93.032L250.396 91.2604C250.286 91.5168 250.196 91.7158 250.123 91.8576C250.057 91.999 249.955 92.1768 249.819 92.3912C249.682 92.5993 249.542 92.7639 249.399 92.885C249.257 92.9998 249.076 93.1045 248.857 93.1991C248.638 93.2936 248.395 93.349 248.127 93.3654Z" fill="white"/>
<path d="M254.955 92.7793L254.224 80.839L256.612 80.6929L256.71 82.2881C256.924 81.8006 257.25 81.3687 257.689 80.9923C258.134 80.6093 258.639 80.4005 259.205 80.3658C259.223 80.3647 259.352 80.3693 259.59 80.3798L259.751 83.0197C259.299 82.8726 258.852 82.8125 258.41 82.8395C257.913 82.8699 257.521 83.0437 257.234 83.3609C256.948 83.678 256.82 84.0822 256.85 84.5735L257.343 92.6332L254.955 92.7793Z" fill="white"/>
<path d="M264.722 92.3504C264.144 92.3858 263.634 92.3171 263.193 92.1443C262.758 91.9712 262.403 91.7338 262.129 91.4323C261.86 91.1241 261.633 90.726 261.447 90.238C261.261 89.7438 261.121 89.2498 261.029 88.7561C260.942 88.2558 260.872 87.6733 260.819 87.0087C260.768 86.4874 260.736 85.965 260.723 85.4415C260.704 84.8185 260.711 84.2656 260.743 83.783C260.782 83.2937 260.868 82.8171 261.002 82.3533C261.136 81.8894 261.322 81.5035 261.559 81.1956C261.802 80.8874 262.127 80.6334 262.533 80.4338C262.945 80.2276 263.431 80.1074 263.99 80.0732C264.5 80.042 264.952 80.083 265.346 80.1962C265.746 80.3029 266.082 80.4852 266.353 80.7432C266.631 80.9947 266.864 81.2801 267.052 81.5994C267.246 81.9183 267.401 82.3115 267.517 82.7788C267.633 83.2399 267.72 83.6965 267.779 84.1485C267.844 84.6002 267.895 85.1215 267.931 85.7123L267.948 85.9921L263.172 86.2842L263.208 86.8813C263.213 86.9621 263.221 87.0896 263.232 87.2637C263.233 87.4946 263.245 87.7342 263.266 87.9826C263.293 88.2243 263.321 88.463 263.347 88.6986C263.374 88.9341 263.422 89.159 263.492 89.3733C263.561 89.5813 263.64 89.7637 263.731 89.9204C263.822 90.0772 263.942 90.1978 264.09 90.2823C264.245 90.3665 264.422 90.4025 264.621 90.3903C264.87 90.3751 265.072 90.3159 265.228 90.2127C265.384 90.1033 265.493 89.95 265.556 89.7526C265.625 89.5549 265.669 89.3587 265.689 89.164C265.708 88.9693 265.712 88.7256 265.7 88.433L265.669 87.9292L268.039 87.7843L268.068 88.2601C268.09 89.5383 267.835 90.5215 267.302 91.2095C266.77 91.8974 265.91 92.2778 264.722 92.3504ZM263.099 85.0902L265.468 84.9453L265.424 84.227C265.398 83.9102 265.363 83.6346 265.317 83.4002C265.272 83.1658 265.201 82.9329 265.106 82.7015C265.017 82.4698 264.888 82.2967 264.719 82.1822C264.549 82.0677 264.346 82.0177 264.11 82.0321C263.868 82.0469 263.666 82.1248 263.506 82.2657C263.353 82.4061 263.243 82.6032 263.177 82.8569C263.118 83.104 263.079 83.3467 263.063 83.5849C263.046 83.8231 263.045 84.1072 263.059 84.4372L263.099 85.0902Z" fill="white"/>
<path d="M274.517 91.7513C273.012 91.8434 271.835 91.4722 270.985 90.6378C270.141 89.803 269.626 88.6236 269.439 87.0994L271.79 86.3564C272.054 88.7372 272.924 89.8825 274.397 89.7924C275.591 89.7193 276.152 89.0858 276.079 87.8918C276.057 87.5373 275.988 87.2139 275.87 86.9214C275.758 86.6224 275.595 86.3546 275.381 86.118C275.166 85.8752 274.973 85.6841 274.802 85.5448C274.631 85.3992 274.399 85.223 274.105 85.0163L270.974 82.8108C270.401 82.4152 269.929 81.8978 269.559 81.2588C269.195 80.6131 268.987 79.8674 268.935 79.0216C268.86 77.7903 269.183 76.7874 269.903 76.013C270.623 75.2386 271.615 74.8128 272.877 74.7356C274.233 74.6527 275.329 74.9196 276.166 75.5364C277.008 76.1465 277.56 77.0522 277.821 78.2535C277.847 78.3829 277.88 78.5619 277.919 78.7905L275.568 79.5336C275.555 79.4283 275.53 79.2706 275.492 79.0607C275.34 78.3085 275.063 77.7168 274.662 77.2856C274.267 76.8478 273.712 76.6508 272.997 76.6946C272.425 76.7296 271.993 76.9183 271.702 77.2607C271.411 77.5969 271.282 78.051 271.317 78.6232C271.375 79.5622 271.821 80.3246 272.656 80.9102L275.787 83.1157C277.458 84.3056 278.348 85.7961 278.457 87.5871C278.532 88.8123 278.211 89.7932 277.495 90.5299C276.785 91.2662 275.792 91.6734 274.517 91.7513Z" fill="white"/>
<path d="M283.65 91.1928C282.711 91.2502 282.012 91.0526 281.554 90.6C281.101 90.147 280.839 89.4358 280.768 88.4664L280.313 81.0411L279.119 81.1141L279.01 79.3231L280.204 79.25L279.948 75.0709L282.336 74.9249L282.592 79.104L284.383 78.9944L284.493 80.7855L282.701 80.895L283.128 87.8633C283.157 88.3421 283.244 88.6895 283.388 88.9054C283.532 89.1213 283.803 89.2171 284.202 89.1927C284.376 89.1821 284.641 89.1346 284.998 89.0504L285.117 90.9907C284.524 91.1018 284.035 91.1692 283.65 91.1928Z" fill="white"/>
<path d="M292.835 89.5074C292.327 90.2875 291.433 90.7167 290.152 90.7951C288.87 90.8734 287.93 90.5564 287.331 89.844C286.732 89.1316 286.39 88.0726 286.304 86.6672L286.084 83.0851C285.999 81.6796 286.209 80.5868 286.717 79.8067C287.225 79.0266 288.12 78.5973 289.401 78.519C290.682 78.4406 291.622 78.7577 292.221 79.4701C292.82 80.1825 293.163 81.2414 293.249 82.6469L293.468 86.229C293.554 87.6345 293.343 88.7273 292.835 89.5074ZM289.579 88.7889C289.713 88.8307 289.864 88.8464 290.032 88.8361C290.2 88.8259 290.344 88.7921 290.466 88.7347C290.593 88.677 290.695 88.6114 290.772 88.5381C290.854 88.4581 290.919 88.348 290.967 88.2078C291.014 88.0613 291.05 87.9343 291.075 87.8267C291.099 87.719 291.112 87.5653 291.112 87.3656C291.112 87.1658 291.109 87.01 291.102 86.898C291.101 86.7795 291.094 86.6052 291.08 86.3751L290.861 82.793C290.847 82.5629 290.833 82.392 290.82 82.2805C290.813 82.1623 290.797 82.0041 290.772 81.8059C290.748 81.6076 290.716 81.4566 290.679 81.3528C290.641 81.249 290.59 81.1304 290.526 80.997C290.461 80.8574 290.383 80.756 290.292 80.6929C290.207 80.6232 290.097 80.5675 289.964 80.5258C289.836 80.4836 289.688 80.4677 289.521 80.4779C289.353 80.4882 289.205 80.5222 289.077 80.58C288.956 80.6373 288.854 80.706 288.772 80.7859C288.695 80.8593 288.633 80.9692 288.586 81.1156C288.538 81.2559 288.502 81.3798 288.477 81.4874C288.453 81.5951 288.44 81.7487 288.44 81.9485C288.44 82.1483 288.44 82.3074 288.441 82.426C288.448 82.5379 288.458 82.7089 288.473 82.939L288.692 86.5211C288.706 86.7512 288.716 86.9253 288.724 87.0435C288.737 87.1551 288.755 87.31 288.78 87.5082C288.805 87.7065 288.836 87.8575 288.873 87.9613C288.911 88.0651 288.962 88.1868 289.027 88.3264C289.091 88.4598 289.166 88.5614 289.251 88.6311C289.343 88.6941 289.452 88.7468 289.579 88.7889Z" fill="white"/>
<path d="M295.682 90.2883L294.952 78.348L297.34 78.2019L297.419 79.4892C297.753 79.1442 298.028 78.8809 298.241 78.6992C298.454 78.5114 298.752 78.3309 299.135 78.1577C299.524 77.9779 299.942 77.8743 300.389 77.8469C300.899 77.8157 301.324 77.977 301.664 78.3307C302.004 78.6844 302.191 79.1318 302.224 79.6729L302.846 89.8501L300.458 89.9962L299.911 81.0409C299.885 80.6243 299.808 80.3263 299.678 80.1469C299.548 79.9614 299.303 79.8796 298.942 79.9017C298.737 79.9142 298.534 79.9703 298.334 80.0699C298.14 80.163 297.996 80.2498 297.901 80.3305C297.806 80.405 297.669 80.5257 297.492 80.6926L298.07 90.1422L295.682 90.2883Z" fill="white"/>
<path d="M308.323 89.6837C307.745 89.719 307.235 89.6504 306.794 89.4776C306.359 89.3045 306.004 89.0671 305.73 88.7655C305.461 88.4574 305.234 88.0593 305.048 87.5713C304.862 87.0771 304.722 86.5831 304.63 86.0894C304.543 85.5891 304.473 85.0066 304.42 84.3419C304.369 83.8207 304.337 83.2983 304.324 82.7748C304.304 82.1517 304.311 81.5989 304.344 81.1162C304.383 80.627 304.469 80.1504 304.603 79.6865C304.737 79.2227 304.923 78.8368 305.16 78.5289C305.403 78.2206 305.728 77.9667 306.134 77.7671C306.545 77.5609 307.031 77.4407 307.591 77.4064C308.101 77.3752 308.553 77.4163 308.947 77.5295C309.347 77.6361 309.682 77.8185 309.954 78.0765C310.232 78.3279 310.464 78.6133 310.652 78.9327C310.847 79.2516 311.002 79.6447 311.118 80.112C311.233 80.5731 311.321 81.0297 311.38 81.4818C311.445 81.9335 311.495 82.4547 311.531 83.0455L311.548 83.3254L306.772 83.6175L306.809 84.2145C306.814 84.2954 306.822 84.4229 306.832 84.597C306.834 84.8278 306.845 85.0675 306.867 85.3158C306.894 85.5576 306.921 85.7963 306.948 86.0318C306.975 86.2674 307.023 86.4923 307.092 86.7065C307.161 86.9146 307.241 87.0969 307.332 87.2537C307.423 87.4104 307.542 87.5311 307.691 87.6156C307.846 87.6998 308.023 87.7357 308.222 87.7236C308.471 87.7084 308.673 87.6492 308.829 87.546C308.985 87.4366 309.094 87.2832 309.157 87.0859C309.226 86.8882 309.27 86.6919 309.289 86.4973C309.309 86.3026 309.312 86.0589 309.301 85.7662L309.27 85.2625L311.639 85.1176L311.668 85.5933C311.69 86.8716 311.435 87.8548 310.903 88.5427C310.371 89.2307 309.511 89.611 308.323 89.6837ZM306.699 82.4235L309.069 82.2786L309.025 81.5603C308.999 81.2435 308.964 80.9679 308.918 80.7335C308.872 80.4991 308.802 80.2662 308.707 80.0348C308.618 79.803 308.489 79.6299 308.319 79.5154C308.15 79.4009 307.947 79.3509 307.711 79.3654C307.468 79.3802 307.267 79.4581 307.107 79.5989C306.953 79.7394 306.844 79.9365 306.778 80.1902C306.718 80.4373 306.68 80.68 306.663 80.9182C306.647 81.1564 306.645 81.4405 306.659 81.7705L306.699 82.4235Z" fill="white"/>
<path d="M496.25 75.2208C495.832 74.808 495.47 74.341 495.174 73.8322C494.707 73.0348 494.086 72.3396 493.349 71.7874C492.611 71.2352 491.771 70.8372 490.878 70.6169C490.098 70.4252 489.29 70.373 488.492 70.4626C489.073 70.3934 489.658 70.5478 490.131 70.895C490.604 71.242 490.929 71.7561 491.041 72.3342C491.329 73.5806 491.955 74.7222 492.849 75.6315C493.744 76.5408 494.871 77.1819 496.106 77.4833C497.518 77.8275 499.001 77.7136 500.344 77.1578C498.801 77.0002 497.357 76.3169 496.25 75.2208Z" fill="white"/>
<path d="M486.1 70.4841C486.325 71.2506 486.684 71.9721 487.16 72.616C486.813 72.1486 486.655 71.5687 486.717 70.9909C486.779 70.4131 487.057 69.8792 487.496 69.4945C488.426 68.6309 489.096 67.5283 489.432 66.3095C489.768 65.0907 489.757 63.8036 489.4 62.5914C488.992 61.2047 488.15 59.983 486.996 59.1027C487.63 60.5167 487.759 62.1036 487.361 63.601C487.208 64.1664 486.98 64.7094 486.684 65.2159C486.231 66.0109 485.942 66.8879 485.836 67.7951C485.73 68.7023 485.808 69.6212 486.065 70.4977L486.1 70.4841Z" fill="white"/>
<path d="M489.679 72.9822C489.452 73.5211 489.033 73.9526 488.505 74.19C487.978 74.4274 487.381 74.4533 486.834 74.2624C485.633 73.8873 484.353 73.8586 483.138 74.1797C481.923 74.5008 480.821 75.159 479.954 76.0806C478.965 77.136 478.333 78.4836 478.149 79.929C479.051 78.6658 480.351 77.7537 481.834 77.3436C482.392 77.1917 482.966 77.1109 483.543 77.1032C484.448 77.0955 485.343 76.9036 486.174 76.5388C487.005 76.174 487.755 75.6437 488.38 74.9792C488.927 74.396 489.369 73.72 489.687 72.9817L489.679 72.9822Z" fill="white"/>
<path d="M378.416 85.9373L381.687 85.7372L381.2 77.7703C381.146 76.8878 381.344 76.1655 381.794 75.6031C382.245 75.0408 382.861 74.7357 383.644 74.6879C384.443 74.639 385.092 74.8667 385.591 75.371C386.105 75.8576 386.39 76.5504 386.445 77.4495L386.932 85.4164L390.204 85.2163L389.716 77.2494C389.662 76.367 389.86 75.6446 390.311 75.0823C390.761 74.5199 391.377 74.2148 392.16 74.167C392.959 74.1181 393.608 74.3458 394.107 74.8501C394.621 75.3367 394.906 76.0295 394.961 76.9286L395.448 84.8955L398.72 84.6954L398.185 75.9543C398.123 74.9387 397.844 74.0616 397.348 73.3233C396.867 72.5672 396.239 71.9956 395.463 71.6086C394.687 71.2215 393.816 71.0575 392.851 71.1165C391.952 71.1715 391.147 71.4046 390.437 71.8157C389.743 72.2258 389.186 72.8114 388.764 73.5725C388.324 72.9309 387.717 72.4333 386.943 72.0795C386.186 71.7247 385.35 71.5753 384.434 71.6313C383.585 71.6833 382.838 71.8961 382.192 72.2698C381.546 72.6435 381.069 73.1741 380.76 73.8615L380.656 72.1632L377.585 72.3511L378.416 85.9373Z" fill="white"/>
<path d="M405.627 84.5738C407.392 84.4659 408.771 83.7966 409.766 82.5659L409.854 84.0144L412.951 83.825L412.398 74.7842C412.34 73.8351 412.047 73.0091 411.52 72.306C410.992 71.603 410.291 71.0776 409.418 70.73C408.56 70.3646 407.573 70.2161 406.458 70.2843C405.092 70.3678 403.897 70.7668 402.871 71.4813C401.845 72.1959 401.165 73.0981 400.83 74.1882L403.582 75.3234C403.794 74.6921 404.155 74.177 404.666 73.7781C405.175 73.3626 405.788 73.1329 406.504 73.0891C407.253 73.0433 407.865 73.2064 408.339 73.5785C408.828 73.933 409.091 74.4015 409.127 74.9843L409.154 75.4338L405.148 76.3306C403.566 76.6948 402.415 77.2749 401.695 78.071C400.975 78.8671 400.649 79.8312 400.718 80.9634C400.792 82.1622 401.274 83.0852 402.166 83.7326C403.058 84.38 404.212 84.6604 405.627 84.5738ZM404.107 80.6308C404.049 79.6817 404.654 79.0431 405.92 78.715L409.307 77.9313L409.34 78.4807C409.397 79.4131 409.121 80.2239 408.512 80.9129C407.919 81.6009 407.106 81.9765 406.074 82.0397C405.524 82.0733 405.066 81.9676 404.701 81.7226C404.334 81.4609 404.136 81.097 404.107 80.6308Z" fill="white"/>
<path d="M415.975 83.6401L419.247 83.44L418.784 75.8726C418.721 74.8403 418.955 74.0238 419.486 73.4231C420.034 72.8047 420.765 72.4676 421.681 72.4115L422.854 72.3397L422.677 69.4427L421.878 69.4916C421.046 69.5425 420.322 69.7371 419.708 70.0755C419.093 70.4139 418.635 70.9851 418.334 71.789L418.216 69.866L415.144 70.0538L415.975 83.6401Z" fill="white"/>
<path d="M431.885 82.8174C432.434 82.7838 432.973 82.7091 433.501 82.5932L433.328 79.7711C433.015 79.8404 432.725 79.8832 432.458 79.8995C431.659 79.9484 431.065 79.8008 430.677 79.457C430.288 79.1131 430.073 78.5998 430.031 77.9172L429.675 72.0981L432.797 71.9071L432.618 68.9851L429.496 69.176L429.307 66.0792L426.035 66.2793L426.099 67.3282C426.14 67.9942 425.988 68.5132 425.643 68.8853C425.298 69.2573 424.793 69.4637 424.127 69.5044L423.877 69.5197L424.056 72.4418L426.403 72.2982L426.77 78.2921C426.863 79.8072 427.351 80.9639 428.236 81.7621C429.137 82.5593 430.353 82.9111 431.885 82.8174Z" fill="white"/>
<path d="M435.075 67.3057L438.346 67.1056L438.132 63.6091L434.861 63.8092L435.075 67.3057ZM435.999 82.4154L439.27 82.2153L438.439 68.629L435.168 68.8291L435.999 82.4154Z" fill="white"/>
<path d="M442.291 82.0305L445.563 81.8304L445.076 73.8635C445.022 72.981 445.228 72.2582 445.695 71.6948C446.179 71.1304 446.828 70.8233 447.644 70.7734C448.46 70.7235 449.134 70.9497 449.666 71.4519C450.214 71.9365 450.515 72.6283 450.57 73.5274L451.057 81.4943L454.329 81.2942L453.794 72.5531C453.732 71.5375 453.461 70.6599 452.982 69.9205C452.501 69.1645 451.856 68.5939 451.047 68.2089C450.255 67.8228 449.359 67.6604 448.36 67.7215C447.511 67.7734 446.755 67.9867 446.093 68.3615C445.447 68.7352 444.961 69.258 444.634 69.9297L444.532 68.2564L441.46 68.4443L442.291 82.0305Z" fill="white"/>
<path d="M463.757 81.0184C465.072 80.938 466.253 80.5649 467.298 79.8994C468.343 79.2171 469.157 78.3234 469.742 77.2181C470.325 76.0961 470.574 74.8525 470.491 73.4872C470.407 72.1219 470.008 70.9263 469.294 69.9005C468.596 68.8736 467.687 68.0852 466.567 67.5354C465.447 66.9855 464.221 66.7513 462.889 66.8328C461.541 66.9153 460.344 67.2976 459.3 67.9799C458.255 68.6621 457.441 69.5559 456.857 70.6612C456.289 71.7655 456.047 73.0002 456.131 74.3655C456.214 75.7308 456.605 76.9269 457.303 77.9538C458.017 78.9797 458.934 79.7675 460.054 80.3174C461.191 80.8662 462.425 81.0999 463.757 81.0184ZM463.574 78.0214C462.841 78.0663 462.173 77.9317 461.569 77.6177C460.981 77.3026 460.502 76.8473 460.131 76.2516C459.776 75.6383 459.575 74.9403 459.527 74.1578C459.479 73.3752 459.595 72.6663 459.873 72.0309C460.169 71.3945 460.589 70.8841 461.133 70.4999C461.694 70.0979 462.34 69.8746 463.073 69.8298C463.805 69.785 464.458 69.9289 465.029 70.2616C465.617 70.5766 466.088 71.0325 466.442 71.6292C466.812 72.2248 467.022 72.9139 467.069 73.6965C467.117 74.479 466.994 75.1968 466.7 75.8499C466.421 76.4853 466.009 76.9951 465.465 77.3794C464.937 77.7626 464.306 77.9766 463.574 78.0214Z" fill="white"/>
<path d="M569.733 57.1955L571.285 57.8564C571.57 57.9605 571.875 57.9966 572.176 57.9618C572.477 57.927 572.766 57.8222 573.019 57.6559L574.385 56.6426C574.619 56.4499 574.804 56.2045 574.925 55.9264C575.046 55.6484 575.1 55.3457 575.081 55.0431L574.887 53.3505C574.836 53.0524 574.715 52.7704 574.535 52.5274C574.354 52.2844 574.12 52.0871 573.849 51.9515L572.296 51.2718C572.012 51.1662 571.707 51.129 571.405 51.1632C571.104 51.1973 570.815 51.3019 570.562 51.4685L569.195 52.4818C568.962 52.6749 568.777 52.9204 568.656 53.1984C568.535 53.4763 568.482 53.7788 568.5 54.0813L568.694 55.7739C568.742 56.0764 568.861 56.3631 569.042 56.6103C569.222 56.8576 569.459 57.0582 569.733 57.1955Z" fill="white"/>
<path d="M578.952 58.8384L577.399 58.1587C577.115 58.0546 576.81 58.0185 576.51 58.0532C576.21 58.088 575.922 58.1928 575.669 58.359L574.287 59.3732C574.055 59.5671 573.871 59.8127 573.75 60.0905C573.629 60.3682 573.575 60.6703 573.591 60.9727L573.786 62.6652C573.837 62.9635 573.958 63.2455 574.138 63.4885C574.318 63.7315 574.553 63.9287 574.824 64.0643L576.376 64.7252C576.659 64.8308 576.964 64.8681 577.264 64.8339C577.565 64.7998 577.853 64.6952 578.106 64.5287L579.476 63.5152C579.709 63.3205 579.893 63.0742 580.014 62.7958C580.134 62.5175 580.188 62.2148 580.172 61.9119L579.978 60.2231C579.925 59.9289 579.805 59.6508 579.627 59.4106C579.449 59.1704 579.218 58.9746 578.952 58.8384Z" fill="white"/>
<path d="M584.037 65.7157L582.485 65.0548C582.201 64.9491 581.896 64.9119 581.594 64.9461C581.293 64.9803 581.004 65.0849 580.751 65.2515L579.384 66.2648C579.151 66.4583 578.967 66.7039 578.846 66.9817C578.725 67.2595 578.671 67.5619 578.688 67.8643L578.883 69.5569C578.937 69.85 579.058 70.1268 579.236 70.3656C579.415 70.6044 579.646 70.7988 579.912 70.9338L581.464 71.5947C581.748 71.6988 582.053 71.7349 582.354 71.7001C582.655 71.6653 582.944 71.5605 583.197 71.3942L584.568 70.3807C584.801 70.1872 584.985 69.9415 585.105 69.6637C585.225 69.3858 585.278 69.0835 585.26 68.7813L585.079 67.1183C585.028 66.8189 584.907 66.5359 584.726 66.2921C584.545 66.0484 584.309 65.8509 584.037 65.7157Z" fill="white"/>
<path d="M572.683 62.1773L572.531 60.8601C572.514 60.5577 572.568 60.2556 572.689 59.9778C572.81 59.7001 572.994 59.4545 573.227 59.2605L575.891 57.2873C576.144 57.1211 576.432 57.0164 576.732 56.9816C577.033 56.9468 577.337 56.983 577.621 57.0871L578.84 57.6172C579.124 57.7227 579.429 57.76 579.731 57.7258C580.032 57.6916 580.321 57.587 580.574 57.4204L581.94 56.4034C582.174 56.2101 582.358 55.9645 582.479 55.6866C582.6 55.4088 582.654 55.1064 582.636 54.8038L582.442 53.1151C582.391 52.8162 582.271 52.5334 582.091 52.2897C581.91 52.046 581.675 51.8482 581.404 51.7123L579.851 51.0325C579.566 50.9284 579.261 50.8923 578.96 50.9271C578.659 50.962 578.37 51.0667 578.117 51.233L576.719 52.2331C576.487 52.4266 576.303 52.6722 576.182 52.9501C576.062 53.228 576.009 53.5302 576.027 53.8324L576.176 55.1498C576.194 55.452 576.141 55.7543 576.021 56.0322C575.901 56.31 575.717 56.5557 575.484 56.7491L572.82 58.7223C572.566 58.8889 572.277 58.9935 571.976 59.0277C571.675 59.0619 571.37 59.0247 571.086 58.9191L569.87 58.3925C569.586 58.2869 569.281 58.2497 568.98 58.2839C568.679 58.3181 568.39 58.4227 568.137 58.5893L566.77 59.6025C566.536 59.7957 566.352 60.0412 566.231 60.3191C566.11 60.597 566.056 60.8996 566.074 61.2021L566.268 62.8946C566.319 63.1936 566.439 63.4765 566.62 63.7203C566.8 63.964 567.035 64.1617 567.307 64.2974L568.859 64.9583C569.143 65.0624 569.448 65.0986 569.749 65.0637C570.05 65.0289 570.339 64.9242 570.592 64.7578L571.959 63.7445C572.193 63.5574 572.38 63.3184 572.506 63.0463C572.632 62.7743 572.692 62.4768 572.683 62.1773Z" fill="white"/>
<path d="M587.511 59.9931C587.459 59.6946 587.338 59.4124 587.158 59.1688C586.978 58.9253 586.743 58.7272 586.473 58.5903L584.921 57.9294C584.636 57.8256 584.331 57.7896 584.03 57.8244C583.729 57.8592 583.44 57.9639 583.187 58.1299L581.82 59.1432C581.587 59.3367 581.403 59.5823 581.282 59.8601C581.161 60.1379 581.107 60.4403 581.125 60.7427L581.277 62.0637C581.294 62.3661 581.241 62.6684 581.12 62.9463C580.999 63.2241 580.814 63.4697 580.581 63.6632L577.92 65.6324C577.667 65.7987 577.378 65.9035 577.077 65.9383C576.776 65.9731 576.471 65.937 576.187 65.8329L574.968 65.3028C574.684 65.1987 574.379 65.1626 574.079 65.1973C573.778 65.2322 573.49 65.3368 573.238 65.5031L571.856 66.5135C571.623 66.7075 571.439 66.9531 571.318 67.2308C571.197 67.5085 571.143 67.8107 571.16 68.1131L571.354 69.8056C571.406 70.1038 571.526 70.3858 571.706 70.6288C571.887 70.8718 572.122 71.0691 572.392 71.2047L573.945 71.8844C574.229 71.99 574.533 72.0272 574.834 71.9931C575.135 71.9589 575.423 71.8543 575.676 71.6878L577.046 70.6743C577.278 70.4802 577.462 70.2346 577.583 69.9569C577.704 69.6792 577.758 69.3772 577.742 69.0748L577.589 67.7539C577.571 67.4514 577.625 67.1489 577.746 66.8711C577.867 66.5932 578.051 66.3477 578.285 66.1543L580.946 64.1814C581.199 64.0148 581.488 63.9102 581.789 63.876C582.09 63.8418 582.395 63.879 582.68 63.9846L583.895 64.5112C584.179 64.6168 584.484 64.654 584.785 64.6198C585.086 64.5856 585.375 64.481 585.629 64.3144L586.999 63.301C587.231 63.1072 587.415 62.8616 587.536 62.5838C587.656 62.3059 587.709 62.0038 587.691 61.7016L587.511 59.9931Z" fill="white"/>
<path d="M592.152 52.8964L597.796 52.5511L601.099 63.1033L603.091 52.2273L608.985 51.8668L604.666 69.3778L598.298 69.7673L592.152 52.8964Z" fill="white"/>
<path d="M615.589 68.9103C614.191 68.9958 613.073 68.613 612.235 67.7617C611.398 66.9105 610.931 65.7107 610.837 64.1622L610.366 56.47L615.661 56.1462L616.118 63.6136C616.141 63.9966 616.259 64.2902 616.472 64.4944C616.701 64.681 616.982 64.7641 617.315 64.7437C617.648 64.7233 617.983 64.6025 618.32 64.3814L618.807 67.836C618.458 68.1415 617.989 68.3875 617.399 68.574C616.825 68.7595 616.222 68.8716 615.589 68.9103ZM612.899 54.435C612.116 54.4829 611.436 54.2822 610.857 53.833C610.293 53.3661 609.99 52.7746 609.946 52.0587C609.902 51.3428 610.149 50.7261 610.685 50.2086C611.222 49.6911 611.856 49.41 612.589 49.3652C613.355 49.3183 614.028 49.5279 614.608 49.9937C615.204 50.4586 615.524 51.0324 615.565 51.715C615.61 52.4476 615.364 53.0726 614.828 53.5901C614.291 54.1076 613.648 54.3892 612.899 54.435Z" fill="white"/>
<path d="M619.548 56.0839L624.818 55.7616L624.974 58.309C625.297 57.3033 625.769 56.5474 626.389 56.0415C627.026 55.5179 627.785 55.2292 628.668 55.1752L629.641 59.2018C628.059 59.2985 626.905 59.5446 626.177 59.9401C625.464 60.3179 625.131 60.8731 625.176 61.6057L625.573 68.0991L620.303 68.4214L619.548 56.0839Z" fill="white"/>
<path d="M638.03 67.5377C636.631 67.6233 635.365 67.4249 634.233 66.9427C633.117 66.4595 632.222 65.7538 631.547 64.8258C630.887 63.8801 630.519 62.7746 630.441 61.5092C630.364 60.2438 630.604 59.1095 631.161 58.1061C631.717 57.0861 632.519 56.2766 633.569 55.6776C634.635 55.0776 635.868 54.7348 637.266 54.6493C638.682 54.5627 639.947 54.7611 641.063 55.2443C642.194 55.7099 643.089 56.4072 643.748 57.3362C644.406 58.2653 644.774 59.3625 644.852 60.6279C644.93 61.9099 644.691 63.0609 644.135 64.0809C643.595 65.0833 642.792 65.8928 641.727 66.5094C640.677 67.1084 639.445 67.4512 638.03 67.5377ZM637.85 63.7885C638.533 63.7467 639.075 63.4629 639.478 62.9369C639.896 62.3933 640.08 61.7219 640.031 60.9227C639.983 60.1235 639.718 59.4879 639.238 59.0159C638.774 58.5262 638.2 58.3023 637.517 58.344C636.835 58.3858 636.284 58.6785 635.866 59.2221C635.464 59.7481 635.287 60.4107 635.336 61.2098C635.385 62.009 635.642 62.6535 636.106 63.1431C636.586 63.6151 637.168 63.8302 637.85 63.7885Z" fill="white"/>
<path d="M654.525 72.0689C653.609 72.1249 652.729 72.0868 651.885 71.9546L652.059 68.2339C652.714 68.2941 653.317 68.3074 653.866 68.2738C654.899 68.2106 655.662 67.8547 656.157 67.2061C656.654 66.5741 656.908 65.5392 656.92 64.1012C656.022 65.5432 654.566 66.3258 652.551 66.449C651.453 66.5162 650.42 66.2953 649.453 65.7862C648.502 65.2761 647.723 64.5551 647.114 63.623C646.522 62.6899 646.191 61.6489 646.121 60.5001C646.05 59.3346 646.251 58.2527 646.725 57.2544C647.197 56.2395 647.874 55.421 648.755 54.7989C649.653 54.1758 650.652 53.8306 651.75 53.7634C652.766 53.7013 653.665 53.9137 654.447 54.4007C655.244 54.87 655.786 55.5387 656.073 56.4069L655.896 53.5098L661.166 53.1875L661.748 62.7029C661.926 65.6166 661.395 67.8634 660.155 69.4434C658.932 71.0389 657.055 71.9141 654.525 72.0689ZM653.946 62.6035C654.612 62.5628 655.172 62.2946 655.626 61.7988C656.079 61.2865 656.303 60.7046 656.296 60.0532L656.284 59.8534C656.212 59.2227 655.912 58.6813 655.383 58.229C654.87 57.7757 654.289 57.5689 653.64 57.6086C652.957 57.6503 652.39 57.9357 651.938 58.4648C651.484 58.9771 651.279 59.5746 651.32 60.2573C651.362 60.9399 651.64 61.5162 652.153 61.9862C652.665 62.4395 653.263 62.6453 653.946 62.6035Z" fill="white"/>
<path d="M670.004 65.5821C668.922 65.6483 667.889 65.4274 666.905 64.9193C665.937 64.3936 665.14 63.6569 664.514 62.7092C663.886 61.7448 663.536 60.6549 663.461 59.4395C663.388 58.2407 663.605 57.1412 664.112 56.1409C664.618 55.1239 665.329 54.3117 666.244 53.7042C667.159 53.0967 668.15 52.7604 669.216 52.6952C670.081 52.6422 670.895 52.8348 671.657 53.2728C672.436 53.7098 673.047 54.3995 673.489 55.3417L673.311 52.4447L678.556 52.1239L679.332 64.811L674.087 65.1318L673.945 62.8092C673.216 64.5417 671.902 65.466 670.004 65.5821ZM671.386 61.5368C672.052 61.4961 672.604 61.2284 673.041 60.7337C673.495 60.2213 673.718 59.6394 673.712 58.988L673.699 58.7882C673.625 58.1243 673.324 57.5745 672.796 57.1388C672.285 56.7022 671.713 56.5032 671.08 56.5419C670.381 56.5847 669.797 56.8711 669.328 57.4011C668.875 57.9135 668.669 58.511 668.711 59.1936C668.753 59.8929 669.039 60.4687 669.568 60.921C670.097 61.3733 670.703 61.5786 671.386 61.5368Z" fill="white"/>
<path d="M681.107 52.3188L686.127 52.0118L686.283 54.5592C687.13 52.5688 688.603 51.5094 690.701 51.3811C692.299 51.2833 693.583 51.7814 694.553 52.8752C695.538 53.9514 696.092 55.4968 696.215 57.5114L696.597 63.7551L691.352 64.0759L690.938 57.3077C690.894 56.5918 690.703 56.052 690.363 55.6884C690.04 55.3238 689.603 55.1583 689.054 55.1919C688.654 55.2163 688.271 55.3735 687.905 55.6633C687.537 55.9365 687.243 56.3221 687.023 56.8202C686.819 57.3173 686.736 57.8739 686.774 58.4899L687.131 64.334L681.862 64.6563L681.107 52.3188Z" fill="white"/>
</svg>
