<svg width="193" height="72" viewBox="0 0 193 72" fill="none" xmlns="http://www.w3.org/2000/svg">
<mask id="mask0_668_833" style="mask-type:alpha" maskUnits="userSpaceOnUse" x="3" y="32" width="36" height="36">
<path d="M19.2163 33.0224C20.1156 32.5586 21.1838 32.5586 22.0832 33.0224L36.3915 40.4011C37.4318 40.9376 38.0855 42.0102 38.0855 43.1807V57.3516C38.0855 58.5222 37.4318 59.5948 36.3915 60.1313L22.0832 67.51C21.1838 67.9738 20.1156 67.9738 19.2163 67.51L4.90797 60.1313C3.8676 59.5948 3.21393 58.5222 3.21393 57.3516V43.1807C3.21393 42.0102 3.8676 40.9376 4.90797 40.4011L19.2163 33.0224Z" fill="#D9D9D9"/>
</mask>
<g mask="url(#mask0_668_833)">
<path d="M21.3362 32.729C20.7817 32.4487 20.127 32.4487 19.5725 32.729L2.86229 41.1759L20.4543 50.0686L38.0464 41.1759L21.3362 32.729Z" fill="#F9A682"/>
<path d="M2.86229 41.1759V58.0972C2.86229 58.8597 3.30559 59.5525 3.99784 59.872L20.4543 67.4673V50.0686L2.86229 41.1759Z" fill="#BAE3E2"/>
<path d="M20.4543 50.0686V67.4673L36.9108 59.872C37.6031 59.5525 38.0464 58.8597 38.0464 58.0972V41.1759L20.4543 50.0686Z" fill="#30B3AB"/>
</g>
<path d="M57.9824 62.8403H70.53V59.3226H62.4696V43.0357H57.9824V62.8403ZM79.5267 63.145C83.4877 63.145 85.9806 61.4 86.4514 58.27H82.6567C82.4074 59.4888 81.4933 60.292 79.6375 60.292C77.4493 60.292 76.1475 58.9071 76.0367 56.4973H86.4791V55.3893C86.4791 50.2097 83.1553 48.0214 79.4159 48.0214C75.2057 48.0214 71.9649 50.9852 71.9649 55.5555V55.7771C71.9649 60.4028 75.1503 63.145 79.5267 63.145ZM76.0921 54.0321C76.3967 51.9824 77.6155 50.7913 79.4159 50.7913C81.3271 50.7913 82.4351 51.8439 82.5736 54.0321H76.0921ZM93.1489 63.145C95.4202 63.145 96.6944 62.2587 97.5254 61.0953V62.8403H101.431V53.395C101.431 49.4618 98.9103 48.0214 95.3648 48.0214C91.8194 48.0214 89.1049 49.5449 88.8556 52.9795H92.6504C92.8165 51.7331 93.5367 50.9298 95.1156 50.9298C96.9437 50.9298 97.47 51.8716 97.47 53.5889V54.1706H95.8357C91.4039 54.1706 88.3016 55.4447 88.3016 58.824C88.3016 61.8709 90.5175 63.145 93.1489 63.145ZM94.34 60.3474C92.8719 60.3474 92.2349 59.655 92.2349 58.6024C92.2349 57.0513 93.5921 56.5527 95.9188 56.5527H97.47V57.7714C97.47 59.378 96.1127 60.3474 94.34 60.3474ZM104.878 62.8403H108.894V55.5832C108.894 52.8133 110.612 51.8439 113.576 51.8716V48.1322C111.221 48.1599 109.808 49.1848 108.894 51.1237V48.3538H104.878V62.8403ZM116.212 62.8403H120.228V54.4753C120.228 52.3425 121.53 51.2899 123.247 51.2899C125.02 51.2899 125.796 52.2317 125.796 54.1983V62.8403H129.812V53.6166C129.812 49.7388 127.79 48.0214 124.937 48.0214C122.527 48.0214 120.948 49.2125 120.228 50.6528V48.3538H116.212V62.8403ZM135.331 46.3872C136.632 46.3872 137.63 45.4455 137.63 44.199C137.63 42.9526 136.632 42.0108 135.331 42.0108C134.056 42.0108 133.059 42.9526 133.059 44.199C133.059 45.4455 134.056 46.3872 135.331 46.3872ZM133.364 62.8403H137.353V48.3538H133.364V62.8403ZM141.044 62.8403H145.06V54.4753C145.06 52.3425 146.362 51.2899 148.079 51.2899C149.852 51.2899 150.627 52.2317 150.627 54.1983V62.8403H154.644V53.6166C154.644 49.7388 152.622 48.0214 149.769 48.0214C147.359 48.0214 145.78 49.2125 145.06 50.6528V48.3538H141.044V62.8403ZM160.162 46.3872C161.464 46.3872 162.461 45.4455 162.461 44.199C162.461 42.9526 161.464 42.0108 160.162 42.0108C158.888 42.0108 157.891 42.9526 157.891 44.199C157.891 45.4455 158.888 46.3872 160.162 46.3872ZM156.284 68.02C160.799 67.9646 162.184 66.1088 162.184 63.0896V48.3538H158.196V63.1173C158.196 64.2807 157.669 64.9177 156.284 65.0285V68.02ZM169.781 63.145C172.052 63.145 173.326 62.2587 174.157 61.0953V62.8403H178.063V53.395C178.063 49.4618 175.542 48.0214 171.997 48.0214C168.451 48.0214 165.737 49.5449 165.487 52.9795H169.282C169.448 51.7331 170.168 50.9298 171.747 50.9298C173.575 50.9298 174.102 51.8716 174.102 53.5889V54.1706H172.467C168.036 54.1706 164.933 55.4447 164.933 58.824C164.933 61.8709 167.149 63.145 169.781 63.145ZM170.972 60.3474C169.504 60.3474 168.867 59.655 168.867 58.6024C168.867 57.0513 170.224 56.5527 172.551 56.5527H174.102V57.7714C174.102 59.378 172.744 60.3474 170.972 60.3474Z" fill="black"/>
<circle cx="189.152" cy="59.507" r="3.5212" fill="#F9A682"/>
<path d="M8.73098 2.87139C8.91377 2.3691 9.62415 2.3691 9.80694 2.87139L11.1624 6.59625C11.2448 6.82243 11.4597 6.97297 11.7004 6.97297H15.9362C16.5063 6.97297 16.7261 7.71546 16.2477 8.02575L12.9367 10.1736C12.713 10.3187 12.6191 10.5991 12.7103 10.8497L14.0005 14.3951C14.1884 14.9113 13.6119 15.3701 13.151 15.0711L9.58052 12.755C9.391 12.632 9.14691 12.632 8.95739 12.755L5.38694 15.0711C4.92606 15.3701 4.34954 14.9113 4.5374 14.3951L5.82761 10.8497C5.9188 10.5991 5.8249 10.3187 5.60119 10.1736L2.29018 8.02575C1.81186 7.71546 2.0316 6.97297 2.60175 6.97297H6.83749C7.07817 6.97297 7.29316 6.82243 7.37547 6.59625L8.73098 2.87139Z" fill="#AC9450"/>
<path d="M25.5271 2.87139C25.7099 2.3691 26.4203 2.3691 26.6031 2.87139L27.9586 6.59625C28.0409 6.82243 28.2559 6.97297 28.4966 6.97297H32.7323C33.3025 6.97297 33.5222 7.71546 33.0439 8.02575L29.7329 10.1736C29.5092 10.3187 29.4153 10.5991 29.5064 10.8497L30.7967 14.3951C30.9845 14.9113 30.408 15.3701 29.9471 15.0711L26.3767 12.755C26.1871 12.632 25.9431 12.632 25.7535 12.755L22.1831 15.0711C21.7222 15.3701 21.1457 14.9113 21.3335 14.3951L22.6237 10.8497C22.7149 10.5991 22.621 10.3187 22.3973 10.1736L19.0863 8.02575C18.608 7.71546 18.8277 6.97297 19.3979 6.97297H23.6336C23.8743 6.97297 24.0893 6.82243 24.1716 6.59625L25.5271 2.87139Z" fill="#AC9450"/>
<path d="M42.3242 2.87139C42.507 2.3691 43.2174 2.3691 43.4002 2.87139L44.7557 6.59625C44.838 6.82243 45.053 6.97297 45.2937 6.97297H49.5294C50.0996 6.97297 50.3193 7.71546 49.841 8.02575L46.53 10.1736C46.3063 10.3187 46.2124 10.5991 46.3036 10.8497L47.5938 14.3951C47.7816 14.9113 47.2051 15.3701 46.7442 15.0711L43.1738 12.755C42.9843 12.632 42.7402 12.632 42.5507 12.755L38.9802 15.0711C38.5193 15.3701 37.9428 14.9113 38.1307 14.3951L39.4209 10.8497C39.5121 10.5991 39.4182 10.3187 39.1945 10.1736L35.8834 8.02575C35.4051 7.71546 35.6249 6.97297 36.195 6.97297H40.4307C40.6714 6.97297 40.8864 6.82243 40.9687 6.59625L42.3242 2.87139Z" fill="#AC9450"/>
<path d="M59.1206 2.87139C59.3034 2.3691 60.0138 2.3691 60.1966 2.87139L61.5521 6.59625C61.6344 6.82243 61.8494 6.97297 62.0901 6.97297H66.3258C66.896 6.97297 67.1157 7.71546 66.6374 8.02575L63.3264 10.1736C63.1027 10.3187 63.0088 10.5991 63.1 10.8497L64.3902 14.3951C64.578 14.9113 64.0015 15.3701 63.5406 15.0711L59.9702 12.755C59.7807 12.632 59.5366 12.632 59.347 12.755L55.7766 15.0711C55.3157 15.3701 54.7392 14.9113 54.927 14.3951L56.2173 10.8497C56.3084 10.5991 56.2146 10.3187 55.9908 10.1736L52.6798 8.02575C52.2015 7.71546 52.4212 6.97297 52.9914 6.97297H57.2271C57.4678 6.97297 57.6828 6.82243 57.7651 6.59625L59.1206 2.87139Z" fill="#AC9450"/>
<path d="M75.9175 2.87139C76.1003 2.3691 76.8107 2.3691 76.9935 2.87139L78.349 6.59625C78.4313 6.82243 78.6463 6.97297 78.887 6.97297H83.1227C83.6928 6.97297 83.9126 7.71546 83.4343 8.02575L80.1232 10.1736C79.8995 10.3187 79.8056 10.5991 79.8968 10.8497L81.187 14.3951C81.3749 14.9113 80.7984 15.3701 80.3375 15.0711L76.767 12.755C76.5775 12.632 76.3334 12.632 76.1439 12.755L72.5735 15.0711C72.1126 15.3701 71.5361 14.9113 71.7239 14.3951L73.0141 10.8497C73.1053 10.5991 73.0114 10.3187 72.7877 10.1736L69.4767 8.02575C68.9984 7.71546 69.2181 6.97297 69.7883 6.97297H74.024C74.2647 6.97297 74.4797 6.82243 74.562 6.59625L75.9175 2.87139Z" fill="#AC9450"/>
<path d="M90.7537 9.23328L96.1366 2.05607C96.3291 2.00107 96.5491 1.95982 96.7965 1.93232C97.044 1.89107 97.264 1.87045 97.4565 1.87045C97.759 1.87045 98.0409 1.9117 98.3021 1.99419C98.5771 2.06294 98.7971 2.20043 98.9621 2.40668C99.1408 2.61292 99.2302 2.91541 99.2302 3.31414V9.68701H101.086C101.141 9.79701 101.196 9.94138 101.251 10.1201C101.32 10.2989 101.354 10.4982 101.354 10.7182C101.354 11.0757 101.272 11.3438 101.107 11.5226C100.942 11.6876 100.715 11.7701 100.426 11.7701H99.2302V14.5543C99.134 14.5681 98.9758 14.5956 98.7558 14.6368C98.5359 14.6781 98.3227 14.6987 98.1165 14.6987C97.6765 14.6987 97.3397 14.6299 97.1059 14.4924C96.8722 14.3549 96.7553 14.0662 96.7553 13.6262V11.7701H91.3105C91.0905 11.6601 90.898 11.4813 90.733 11.2338C90.568 10.9726 90.4856 10.677 90.4856 10.347C90.4856 10.1545 90.5062 9.962 90.5474 9.76951C90.5887 9.56327 90.6574 9.38452 90.7537 9.23328ZM96.8584 9.68701L96.879 4.44847H96.8172L93.2079 9.68701H96.8584ZM102.122 13.2756C102.122 12.8356 102.26 12.4644 102.535 12.1619C102.81 11.8594 103.188 11.7082 103.669 11.7082C104.15 11.7082 104.528 11.8594 104.803 12.1619C105.078 12.4644 105.216 12.8356 105.216 13.2756C105.216 13.7156 105.078 14.0868 104.803 14.3893C104.528 14.6918 104.15 14.8431 103.669 14.8431C103.188 14.8431 102.81 14.6918 102.535 14.3893C102.26 14.0868 102.122 13.7156 102.122 13.2756ZM110.317 1.99419L109.781 3.6235L109.513 6.94399C109.747 6.84775 110.035 6.75838 110.379 6.67588C110.737 6.57963 111.135 6.53151 111.575 6.53151C112.469 6.53151 113.232 6.70338 113.865 7.04712C114.497 7.3771 114.985 7.84458 115.329 8.44956C115.686 9.05454 115.865 9.76951 115.865 10.5945C115.865 11.3782 115.686 12.0932 115.329 12.7394C114.971 13.3719 114.428 13.8806 113.7 14.2656C112.971 14.6368 112.057 14.8224 110.957 14.8224C110.145 14.8224 109.43 14.7331 108.812 14.5543C108.207 14.3893 107.732 14.1625 107.389 13.8737C107.045 13.5712 106.873 13.2344 106.873 12.8631C106.873 12.5606 106.962 12.3063 107.141 12.1C107.334 11.88 107.533 11.7219 107.739 11.6257C108.083 11.9007 108.502 12.1619 108.997 12.4094C109.492 12.6569 110.104 12.7806 110.833 12.7806C111.644 12.7806 112.256 12.5744 112.668 12.1619C113.081 11.7494 113.287 11.2338 113.287 10.6151C113.287 9.98262 113.081 9.48077 112.668 9.10953C112.27 8.7383 111.706 8.55268 110.977 8.55268C110.551 8.55268 110.173 8.61455 109.843 8.7383C109.513 8.84829 109.183 8.99266 108.853 9.17141C108.344 9.14391 107.932 8.99954 107.616 8.7383C107.313 8.46331 107.162 8.07832 107.162 7.58334C107.162 7.50085 107.162 7.4046 107.162 7.29461C107.176 7.17086 107.189 7.03337 107.203 6.88212L107.492 3.41726C107.533 2.97728 107.671 2.63354 107.904 2.38605C108.138 2.12481 108.475 1.99419 108.915 1.99419H110.317ZM109.183 4.07723V1.99419H115.04C115.109 2.09044 115.171 2.22793 115.226 2.40668C115.281 2.58542 115.308 2.77791 115.308 2.98415C115.308 3.34164 115.226 3.61663 115.061 3.80912C114.91 3.98786 114.683 4.07723 114.38 4.07723H109.183Z" fill="black"/>
</svg>
