<svg width="1440" height="214" viewBox="0 0 1440 214" fill="none" xmlns="http://www.w3.org/2000/svg">
<rect x="-215.895" y="114.1" width="1869" height="100" transform="rotate(-3.5 -215.895 114.1)" fill="#B9A164"/>
<path d="M789.176 98.4413L792.143 96.4797L790.245 93.6133L806.388 92.6259L799.174 107.1L797.275 104.228L794.309 106.195L799.608 114.199L812.321 88.6976L783.877 90.4373L789.176 98.4413Z" fill="white"><animateTransform 
    attributeName="transform"
    type="translate"
    values="0 0; -100 0"  
    dur="2s"
    repeatCount="indefinite"
    keyTimes="0;1"
    calcMode="linear"
  />

    </path>
<path d="M826.309 108.036L831.558 93.0918L828.623 93.2713L824.941 104.109L819.944 93.8021L817.01 93.9816L824.04 108.175L826.309 108.036Z" fill="white"><animateTransform 
    attributeName="transform"
    type="translate"
    values="0 0; -100 0"  
    dur="2s"
    repeatCount="indefinite"
    keyTimes="0;1"
    calcMode="linear"
  />

    </path>
<path d="M835.029 92.8795L835.92 107.448L846.763 106.785L846.605 104.204L838.551 104.697L838.337 101.2L845.143 100.784L844.985 98.2033L838.179 98.6196L837.976 95.2896L845.926 94.8034L845.768 92.2226L835.029 92.8795Z" fill="white"><animateTransform 
    attributeName="transform"
    type="translate"
    values="0 0; -100 0"  
    dur="2s"
    repeatCount="indefinite"
    keyTimes="0;1"
    calcMode="linear"
  />

    </path>
<path d="M849.874 91.9715L850.765 106.54L853.554 106.369L853.239 101.229L856.632 101.021L860.006 105.975L863.107 105.785L859.433 100.37C861.073 99.5172 862.057 97.8485 861.941 95.9546C861.86 94.6226 861.312 93.528 860.279 92.6929C859.267 91.8566 858.053 91.4712 856.617 91.5591L849.874 91.9715ZM856.775 94.1398C858.003 94.0647 858.952 94.9049 859.028 96.1328C859.103 97.3607 858.264 98.3312 857.036 98.4063L853.082 98.6482L852.821 94.3817L856.775 94.1398Z" fill="white"><animateTransform 
    attributeName="transform"
    type="translate"
    values="0 0; -100 0"  
    dur="2s"
    repeatCount="indefinite"
    keyTimes="0;1"
    calcMode="linear"
  />

    </path>
<path d="M869.831 93.3413L870.564 105.329L873.374 105.157L872.64 93.1694L877.469 92.8741L877.311 90.2934L864.845 91.0559L865.002 93.6366L869.831 93.3413Z" fill="white"><animateTransform 
    attributeName="transform"
    type="translate"
    values="0 0; -100 0"  
    dur="2s"
    repeatCount="indefinite"
    keyTimes="0;1"
    calcMode="linear"
  />

    </path>
<path d="M881.108 90.0611L882 104.63L892.843 103.966L892.685 101.386L884.631 101.878L884.417 98.3819L891.222 97.9657L891.064 95.385L884.259 95.8012L884.055 92.4713L892.005 91.985L891.848 89.4043L881.108 90.0611Z" fill="white"><animateTransform 
    attributeName="transform"
    type="translate"
    values="0 0; -100 0"  
    dur="2s"
    repeatCount="indefinite"
    keyTimes="0;1"
    calcMode="linear"
  />

    </path>
<path d="M900.781 96.0232L895.825 103.784L899.175 103.579L902.586 98.2107L906.626 103.123L909.956 102.92L904.111 95.8195L908.857 88.3639L905.527 88.5676L902.306 93.632L898.493 88.9979L895.142 89.2028L900.781 96.0232Z" fill="white"><animateTransform 
    attributeName="transform"
    type="translate"
    values="0 0; -100 0"  
    dur="2s"
    repeatCount="indefinite"
    keyTimes="0;1"
    calcMode="linear"
  />

    </path>
<path d="M998.218 97.0278C998.022 96.7554 997.775 96.5247 997.489 96.349C997.204 96.1734 996.886 96.0565 996.555 96.0051C995.286 95.7907 994.154 95.083 993.406 94.0366C992.658 92.9902 992.355 91.6902 992.562 90.4207C992.641 89.93 992.574 89.4268 992.369 88.9742C992.163 88.5216 991.829 88.1398 991.407 87.8768C990.985 87.6138 990.495 87.4813 989.998 87.4959C989.501 87.5105 989.02 87.6715 988.614 87.9588C988.209 88.2462 987.897 88.6469 987.719 89.1108C987.54 89.5747 987.502 90.081 987.611 90.5661C987.719 91.0512 987.968 91.4936 988.327 91.8375C988.686 92.1815 989.138 92.4118 989.627 92.4995C990.26 92.602 990.865 92.8284 991.41 93.1655C991.955 93.5026 992.428 93.9439 992.801 94.4641C993.175 94.9843 993.442 95.5731 993.588 96.1969C993.734 96.8206 993.755 97.467 993.651 98.0989C993.591 98.5059 993.631 98.9213 993.769 99.3089C993.906 99.6966 994.136 100.045 994.439 100.323C994.742 100.601 995.108 100.802 995.506 100.906C995.904 101.01 996.321 101.016 996.722 100.922C997.122 100.828 997.494 100.637 997.804 100.367C998.114 100.097 998.353 99.7547 998.5 99.3707C998.648 98.9867 998.699 98.5725 998.65 98.1642C998.601 97.7558 998.452 97.3657 998.218 97.0278Z" fill="white"><animateTransform 
    attributeName="transform"
    type="translate"
    values="0 0; -100 0"  
    dur="2s"
    repeatCount="indefinite"
    keyTimes="0;1"
    calcMode="linear"
  />

    </path>
<path d="M982.568 95.18C983.023 95.3934 983.532 95.4659 984.028 95.3883C984.525 95.3108 984.987 95.0865 985.355 94.7445C985.724 94.4024 985.981 93.9581 986.095 93.4686C986.209 92.9791 986.174 92.4667 985.995 91.9971C985.768 91.3982 985.661 90.7604 985.68 90.1201C985.7 89.4798 985.846 88.8497 986.109 88.2659C986.373 87.6821 986.749 87.156 987.217 86.7179C987.684 86.2798 988.233 85.9382 988.833 85.7127C989.298 85.5353 989.699 85.2243 989.988 84.819C990.277 84.4136 990.439 83.9319 990.454 83.4346C990.47 82.9373 990.338 82.4465 990.075 82.024C989.812 81.6015 989.43 81.2663 988.977 81.0604C988.524 80.8545 988.02 80.7871 987.529 80.8668C987.038 80.9465 986.581 81.1697 986.217 81.5084C985.852 81.8469 985.596 82.2858 985.48 82.7697C985.364 83.2537 985.394 83.761 985.566 84.2279C986.016 85.4329 985.971 86.7672 985.439 87.9386C984.908 89.1101 983.934 90.0233 982.731 90.4784C982.256 90.6484 981.842 90.9573 981.544 91.365C981.246 91.7727 981.077 92.2605 981.059 92.7651C981.042 93.2699 981.176 93.7682 981.445 94.1958C981.714 94.6233 982.105 94.9603 982.567 95.1632L982.568 95.18Z" fill="white"><animateTransform 
    attributeName="transform"
    type="translate"
    values="0 0; -100 0"  
    dur="2s"
    repeatCount="indefinite"
    keyTimes="0;1"
    calcMode="linear"
  />

    </path>
<path d="M989.021 94.3722C988.687 94.4045 988.363 94.503 988.068 94.6621C987.772 94.8212 987.511 95.0376 987.301 95.2987C986.482 96.2897 985.304 96.916 984.024 97.0408C982.745 97.1657 981.468 96.7788 980.473 95.9648C980.215 95.7514 979.918 95.5912 979.598 95.4936C979.279 95.3961 978.943 95.3631 978.61 95.3965C978.201 95.4409 977.809 95.5849 977.468 95.8158C977.127 96.0466 976.848 96.3574 976.655 96.721C976.462 97.0845 976.361 97.4898 976.36 97.9014C976.36 98.3131 976.46 98.7186 976.653 99.0825C976.845 99.4464 977.123 99.7577 977.464 99.9893C977.804 100.221 978.196 100.365 978.605 100.411C979.014 100.456 979.428 100.4 979.811 100.249C980.194 100.097 980.534 99.8544 980.801 99.5413C981.206 99.0449 981.705 98.6332 982.27 98.33C982.834 98.0268 983.453 97.838 984.091 97.7743C984.729 97.7107 985.373 97.7735 985.986 97.9591C986.6 98.1448 987.17 98.4496 987.666 98.8561C987.988 99.1132 988.368 99.2875 988.773 99.3637C989.178 99.4399 989.595 99.4157 989.989 99.2932C990.382 99.1707 990.74 98.9537 991.03 98.6611C991.32 98.3686 991.534 98.0093 991.653 97.6149C991.773 97.2204 991.793 96.8028 991.714 96.3984C991.634 95.9941 991.457 95.6154 991.197 95.2954C990.938 94.9755 990.603 94.7241 990.224 94.5631C989.845 94.4022 989.432 94.3366 989.021 94.3722Z" fill="white"><animateTransform 
    attributeName="transform"
    type="translate"
    values="0 0; -100 0"  
    dur="2s"
    repeatCount="indefinite"
    keyTimes="0;1"
    calcMode="linear"
  />

    </path>
<path d="M1015.69 96.1231C1017.04 96.0405 1017.85 95.4982 1018.12 94.4964C1018.21 94.1192 1018.27 93.6419 1018.29 93.0645L1017.56 93.0809C1017.53 94.3654 1017.24 95.0333 1016.71 95.0847C1016.3 95.0726 1016.07 94.6221 1016.01 93.7332L1015.66 87.9279C1015.52 85.6132 1014.35 84.253 1012.17 83.8474C1011.61 83.7517 1011 83.7237 1010.36 83.7633C1007.84 83.9174 1006.29 84.5605 1005.71 85.6927C1005.56 85.9806 1005.49 86.282 1005.51 86.5968C1005.56 87.319 1005.93 87.7518 1006.62 87.895C1006.79 87.9404 1006.97 87.9574 1007.16 87.9461C1007.95 87.8974 1008.46 87.4757 1008.69 86.6809C1008.73 86.5675 1008.77 86.379 1008.83 86.1152C1008.99 85.362 1009.22 84.8832 1009.52 84.6788C1009.72 84.5737 1009.95 84.5133 1010.21 84.4974C1011.08 84.4442 1011.64 84.9397 1011.89 85.9839C1011.98 86.3682 1012.05 86.8289 1012.08 87.3659L1012.19 89.1714C1007.44 89.5551 1005.13 90.9604 1005.26 93.3873C1005.36 95.0354 1006.15 96.0468 1007.62 96.4214C1008.05 96.525 1008.53 96.5609 1009.05 96.5292C1010.62 96.4329 1011.74 95.7695 1012.41 94.5391C1012.54 94.2893 1012.65 94.032 1012.72 93.767C1013.21 95.3358 1014.2 96.1212 1015.69 96.1231ZM1010.42 95.2464C1009.49 95.266 1008.97 94.4709 1008.85 92.8609C1008.78 91.6388 1009.23 90.8119 1010.2 90.3804C1010.73 90.1809 1011.41 90.0371 1012.24 89.9491L1012.41 92.6435C1012.13 93.9613 1011.62 94.7921 1010.86 95.1359C1010.69 95.2017 1010.55 95.2385 1010.42 95.2464Z" fill="white"><animateTransform 
    attributeName="transform"
    type="translate"
    values="0 0; -100 0"  
    dur="2s"
    repeatCount="indefinite"
    keyTimes="0;1"
    calcMode="linear"
  />

    </path>
<path d="M1026.29 94.4708L1024.23 94.5965L1023.87 88.5967C1023.88 86.6444 1024.28 85.4304 1025.07 84.9547C1025.19 84.8912 1025.31 84.8561 1025.42 84.8493C1025.63 84.8368 1025.86 85.0362 1026.13 85.4474C1026.5 86.0195 1026.88 86.3678 1027.28 86.4922C1027.47 86.5364 1027.67 86.5517 1027.9 86.5381C1028.64 86.4928 1029.14 86.1087 1029.41 85.3858C1029.51 85.1382 1029.55 84.8849 1029.54 84.6256C1029.48 83.6997 1028.99 83.1441 1028.07 82.9589C1027.84 82.917 1027.61 82.9033 1027.37 82.9181C1026.22 82.9883 1025.24 83.5037 1024.42 84.4643C1024.06 84.9325 1023.79 85.4321 1023.62 85.9631L1023.27 83.3917L1018.41 83.689L1018.45 84.4112L1020.06 84.3127L1020.62 93.3679C1020.67 94.1827 1020.37 94.6654 1019.73 94.8162C1019.55 94.8645 1019.34 94.8961 1019.1 94.9108L1019.14 95.633L1027 95.1522C1026.97 94.7263 1026.84 94.5022 1026.6 94.4799C1026.5 94.467 1026.4 94.464 1026.29 94.4708Z" fill="white"><animateTransform 
    attributeName="transform"
    type="translate"
    values="0 0; -100 0"  
    dur="2s"
    repeatCount="indefinite"
    keyTimes="0;1"
    calcMode="linear"
  />

    </path>
<path d="M1034.58 88.6388C1034.42 86.0463 1034.63 84.3697 1035.22 83.609C1035.58 83.1593 1036.11 82.9129 1036.82 82.8699C1038 82.7974 1038.8 83.3528 1039.2 84.5361C1039.47 85.3002 1039.66 86.5249 1039.76 88.21C1039.93 90.9136 1039.68 92.6387 1039.02 93.3855C1038.64 93.7993 1038.12 94.026 1037.47 94.0656C1036.33 94.1358 1035.55 93.5886 1035.14 92.4238C1034.87 91.6411 1034.68 90.3795 1034.58 88.6388ZM1036.91 82.1392C1034.63 82.2785 1032.93 83.1633 1031.8 84.7935C1031.02 85.9567 1030.67 87.279 1030.76 88.7604C1030.89 90.8529 1031.72 92.4661 1033.23 93.5999C1034.44 94.4927 1035.84 94.8903 1037.43 94.7929C1039.62 94.6593 1041.28 93.7675 1042.43 92.1176C1043.28 90.8758 1043.66 89.4772 1043.57 87.9217C1043.44 85.8477 1042.61 84.2721 1041.07 83.195C1039.89 82.3937 1038.5 82.0418 1036.91 82.1392Z" fill="white"><animateTransform 
    attributeName="transform"
    type="translate"
    values="0 0; -100 0"  
    dur="2s"
    repeatCount="indefinite"
    keyTimes="0;1"
    calcMode="linear"
  />

    </path>
<path d="M1050.93 92.9639L1050.43 92.9945L1050.02 85.8264C1050.04 84.3567 1050.46 83.3735 1051.29 82.877C1051.52 82.7327 1051.76 82.6531 1052 82.6384C1052.68 82.5965 1053.2 82.9924 1053.55 83.8261C1053.7 84.2256 1053.79 84.6753 1053.83 85.1753L1054.2 91.3139C1054.25 92.0731 1054.1 92.5376 1053.76 92.7073C1053.59 92.773 1053.36 92.8149 1053.07 92.8331L1053.11 93.5553L1059 93.1951C1058.97 92.7692 1058.84 92.5451 1058.6 92.5228C1058.48 92.511 1058.37 92.5086 1058.26 92.5154L1057.79 92.5442L1057.35 85.4334L1057.34 85.239C1057.38 83.6941 1057.82 82.7098 1058.67 82.2862C1058.85 82.2008 1059.03 82.1525 1059.22 82.1411C1060.01 82.0924 1060.59 82.5312 1060.94 83.4575C1061.08 83.8396 1061.16 84.2621 1061.19 84.7251L1061.56 90.8637C1061.61 91.6229 1061.46 92.0874 1061.12 92.257C1060.95 92.3228 1060.72 92.3647 1060.43 92.3829L1060.47 93.105L1066.81 92.7177C1066.78 92.2918 1066.64 92.0677 1066.4 92.0454C1066.29 92.0336 1066.18 92.0312 1066.07 92.038L1065.15 92.094L1064.71 84.8443C1064.6 83.0296 1063.91 81.7794 1062.66 81.0938C1062.09 80.7759 1061.48 80.6368 1060.83 80.6764C1059.03 80.8048 1057.74 81.748 1056.96 83.506C1056.43 82.2184 1055.6 81.4425 1054.45 81.1783C1054.14 81.1224 1053.85 81.1034 1053.55 81.1216C1051.77 81.2488 1050.53 82.1429 1049.81 83.8038L1049.55 81.7846L1044.6 82.087L1044.65 82.8091L1046.26 82.7106L1046.81 91.7658C1046.86 92.6176 1046.49 93.1142 1045.7 93.2555C1045.58 93.2819 1045.44 93.2997 1045.29 93.3088L1045.33 94.0309L1051.64 93.6453C1051.61 93.2194 1051.48 92.9953 1051.24 92.973C1051.14 92.9601 1051.04 92.9571 1050.93 92.9639Z" fill="white">
<animateTransform 
    attributeName="transform"
    type="translate"
    values="0 0; -100 0"  
    dur="2s"
    repeatCount="indefinite"
    keyTimes="0;1"
    calcMode="linear"
  />

    </path>
<path d="M1074.04 91.5504L1073.01 91.6133L1072.32 80.3915L1067.19 80.7058L1067.23 81.4279L1068.84 81.3294L1069.39 90.3846C1069.44 91.1994 1069.15 91.6822 1068.51 91.8329C1068.32 91.8813 1068.11 91.9128 1067.87 91.9275L1067.92 92.6497L1074.75 92.2318C1074.72 91.8059 1074.59 91.5818 1074.35 91.5595C1074.25 91.5466 1074.15 91.5436 1074.04 91.5504ZM1072.35 76.7374C1072.3 75.9226 1071.9 75.3429 1071.16 74.9982C1070.83 74.8323 1070.49 74.7601 1070.14 74.7816C1069.34 74.8303 1068.77 75.2282 1068.4 75.9753C1068.25 76.3003 1068.19 76.6387 1068.21 76.9905C1068.26 77.8053 1068.66 78.3758 1069.4 78.702C1069.73 78.8494 1070.06 78.9129 1070.39 78.8925C1071.21 78.8427 1071.79 78.4633 1072.14 77.7544C1072.3 77.4282 1072.37 77.0893 1072.35 76.7374Z" fill="white"><animateTransform 
    attributeName="transform"
    type="translate"
    values="0 0; -100 0"  
    dur="2s"
    repeatCount="indefinite"
    keyTimes="0;1"
    calcMode="linear"
  />

    </path>
<path d="M1075.44 92.1893L1079.64 91.9328L1079.59 91.2106L1077.65 91.3295L1080.73 86.9592L1083.76 90.9558L1082.23 91.0492L1082.28 91.7714L1088.69 91.379C1088.67 90.9531 1088.5 90.7306 1088.21 90.7117C1088.13 90.6977 1088.05 90.6936 1087.95 90.6992L1087.4 90.7332L1082.97 84.8704L1085.5 81.119C1085.84 80.5964 1086.3 80.2897 1086.87 80.199C1087.14 80.145 1087.3 80.0237 1087.35 79.8351C1087.36 79.7229 1087.36 79.602 1087.35 79.4724L1083.24 79.7238L1083.28 80.446L1085.09 80.3356L1082.46 84.2048L1079.78 80.66L1081.31 80.5666L1081.27 79.8444L1074.82 80.2386L1074.87 80.9607L1076.15 80.8826L1080.27 86.318L1077.24 90.5461C1076.88 91.0328 1076.42 91.3395 1075.87 91.466C1075.62 91.5004 1075.47 91.6206 1075.45 91.8265C1075.44 91.9388 1075.44 92.0597 1075.44 92.1893Z" fill="white"><animateTransform 
    attributeName="transform"
    type="translate"
    values="0 0; -100 0"  
    dur="2s"
    repeatCount="indefinite"
    keyTimes="0;1"
    calcMode="linear"
  />

    </path>
<path d="M1167.61 73.8014C1164.87 73.9691 1159.24 72.083 1159.07 69.3421L1159.03 69.3446C1159.17 71.5383 1160.17 73.5888 1161.81 75.0452C1163.46 76.5015 1165.62 77.2443 1167.81 77.1102C1169.13 77.0297 1170.42 77.4754 1171.41 78.3492C1172.4 79.2229 1173 80.4533 1173.08 81.7695C1173.16 83.0857 1172.71 84.3802 1171.84 85.368C1170.97 86.3558 1169.74 86.9561 1168.42 87.0369C1167.1 87.1176 1165.81 86.6722 1164.82 85.7986C1163.83 84.925 1163.23 83.6947 1163.15 82.3786C1163.09 81.2923 1162.81 80.2298 1162.33 79.2517C1161.85 78.2736 1161.19 77.399 1160.37 76.6779C1159.56 75.9568 1158.61 75.4034 1157.58 75.0491C1156.55 74.6948 1155.46 74.5467 1154.37 74.6132L1154.38 74.6534C1157.12 74.4858 1159.67 79.8376 1159.84 82.5789L1159.84 82.5789C1159.94 84.2149 1160.53 85.7844 1161.52 87.0891C1162.51 88.3937 1163.87 89.3749 1165.42 89.9085C1166.97 90.4423 1168.64 90.5044 1170.22 90.0871C1171.81 89.6699 1173.23 88.792 1174.32 87.5646C1175.41 86.337 1176.1 84.8151 1176.33 83.191C1176.55 81.567 1176.28 79.9139 1175.56 78.4407C1174.84 76.9675 1173.71 75.7405 1172.29 74.9147C1170.87 74.0889 1169.24 73.7015 1167.61 73.8014Z" fill="white"><animateTransform 
    attributeName="transform"
    type="translate"
    values="0 0; -100 0"  
    dur="2s"
    repeatCount="indefinite"
    keyTimes="0;1"
    calcMode="linear"
  />

    </path>
<path d="M1184.92 88.1624C1184.93 88.4191 1185.18 88.636 1185.43 88.6203L1186.72 88.5418C1187.02 88.523 1187.43 88.3952 1187.41 88.0101L1186.94 80.361L1191.84 80.0611L1192.31 87.7103C1192.32 87.967 1192.57 88.1839 1192.83 88.1682L1194.29 88.0787C1194.55 88.063 1194.76 87.8178 1194.75 87.5611L1194.18 78.2692C1194.16 78.0125 1193.92 77.7956 1193.66 77.8113L1186.81 78.2305L1186.61 75.0476C1186.5 73.2765 1187.54 72.4662 1188.59 72.4018C1189.72 72.3327 1191.07 72.9457 1191.31 73.0599C1191.6 73.1966 1191.83 73.2082 1191.97 72.8907L1192.54 71.6964C1192.66 71.4832 1192.59 71.1783 1192.37 71.0626C1191.81 70.7618 1190.17 70.0378 1188.45 70.143C1185.91 70.2984 1183.94 72.1453 1184.12 75.1999L1184.32 78.3828L1183.11 78.4566C1182.83 78.4738 1182.64 78.6917 1182.65 78.9741L1182.72 80.1292C1182.74 80.3858 1182.96 80.6043 1183.24 80.587L1184.45 80.5132L1184.92 88.1624Z" fill="white"><animateTransform 
    attributeName="transform"
    type="translate"
    values="0 0; -100 0"  
    dur="2s"
    repeatCount="indefinite"
    keyTimes="0;1"
    calcMode="linear"
  />

    </path>
<path d="M1198.08 87.3571C1198.1 87.6138 1198.34 87.8307 1198.6 87.815L1199.83 87.7396C1200.24 87.7145 1200.52 87.6459 1200.49 87.2096L1200.1 80.6898C1200.19 80.5038 1200.84 79.3818 1202.33 79.2907C1202.66 79.2703 1203.05 79.3494 1203.21 79.417C1203.45 79.5056 1203.7 79.4385 1203.82 79.1483L1204.35 77.8529C1204.59 77.1426 1203.4 76.9581 1202.42 77.0178C1200.55 77.1324 1199.67 78.4226 1199.51 78.6902L1199.17 77.8348C1199.11 77.6326 1198.9 77.4911 1198.72 77.5021L1197.97 77.5476C1197.72 77.5633 1197.5 77.8085 1197.51 78.0652L1198.08 87.3571Z" fill="white">
<animateTransform 
    attributeName="transform"
    type="translate"
    values="0 0; -100 0"  
    dur="2s"
    repeatCount="indefinite"
    keyTimes="0;1"
    calcMode="linear"
  />

    </path>
<path d="M1205.6 82.2339C1205.78 85.1857 1207.98 87.4986 1211.09 87.3087C1212.81 87.2035 1214.11 86.4801 1214.81 85.7929C1215.1 85.5174 1215.01 85.3167 1214.82 85.1224L1214.04 84.1909C1213.82 83.9468 1213.65 84.0605 1213.35 84.259C1212.86 84.6241 1212.04 85.0866 1211.11 85.1431C1209.44 85.2452 1208.15 83.9585 1207.99 82.5771L1214.97 82.1501C1215.21 82.136 1215.4 81.9437 1215.41 81.6855C1215.42 81.5042 1215.43 81.169 1215.42 80.9893C1215.25 78.2428 1213.07 76.3662 1210.41 76.5295C1207.33 76.7179 1205.42 79.3333 1205.6 82.2339ZM1208.02 80.9522C1208.1 79.6593 1209.11 78.5923 1210.5 78.5076C1211.76 78.4306 1212.85 79.4202 1213 80.6476L1208.02 80.9522Z" fill="white">
<animateTransform 
    attributeName="transform"
    type="translate"
    values="0 0; -100 0"  
    dur="2s"
    repeatCount="indefinite"
    keyTimes="0;1"
    calcMode="linear"
  />

    </path>
<path d="M1218.21 86.126C1218.23 86.3827 1218.47 86.5996 1218.73 86.5839L1220.19 86.4944C1220.45 86.4787 1220.66 86.2335 1220.65 85.9769L1219.61 68.9844C1219.59 68.7277 1219.35 68.5108 1219.09 68.5265L1217.63 68.616C1217.37 68.6317 1217.16 68.8768 1217.17 69.1335L1218.21 86.126Z" fill="white">
<animateTransform 
    attributeName="transform"
    type="translate"
    values="0 0; -100 0"  
    dur="2s"
    repeatCount="indefinite"
    keyTimes="0;1"
    calcMode="linear"
  />

    </path>
<path d="M1224.3 71.7376C1225.15 71.6857 1225.78 70.9775 1225.73 70.1562C1225.67 69.3091 1224.97 68.6825 1224.12 68.7344C1223.3 68.7846 1222.7 69.4912 1222.75 70.3383C1222.8 71.1597 1223.48 71.7878 1224.3 71.7376ZM1223.98 85.7734C1223.99 86.0301 1224.24 86.247 1224.49 86.2313L1225.96 86.1418C1226.21 86.1261 1226.43 85.8809 1226.41 85.6242L1225.85 76.3323C1225.83 76.0756 1225.59 75.8587 1225.33 75.8744L1223.87 75.9639C1223.61 75.9796 1223.39 76.2247 1223.41 76.4814L1223.98 85.7734Z" fill="white">
<animateTransform 
    attributeName="transform"
    type="translate"
    values="0 0; -100 0"  
    dur="2s"
    repeatCount="indefinite"
    keyTimes="0;1"
    calcMode="linear"
  />

    </path>
<path d="M1301.61 80.741L1300.76 66.8274L1300.43 63.9969L1302.52 66.72L1313.16 80.0345L1315.65 79.8822L1314.34 58.5011L1311.57 58.6709L1312.4 72.3293L1312.76 75.5746L1310.36 72.3904L1299.98 59.3795L1297.53 59.5297L1298.83 80.9108L1301.61 80.741ZM1323.67 79.7124C1326.86 79.5172 1328.38 77.1181 1328.76 75.0445L1328.83 76.1295C1328.96 78.2995 1330.16 78.9951 1331.75 78.8975L1333.54 78.7882L1333.38 76.2672L1332.4 76.3277C1331.82 76.3628 1331.52 76.157 1331.48 75.423L1331.09 69.0725C1330.86 65.4026 1328.68 63.2618 1324.88 63.4941C1321.44 63.7048 1319.26 65.792 1318.43 67.4442L1320.43 69.2757C1321.13 67.5356 1322.52 66.1693 1324.72 66.0346C1327.14 65.8863 1328.09 67.1739 1328.29 68.987L1322.86 71.8177C1320.72 72.9417 1319.24 74.3457 1319.36 76.42C1319.49 78.4624 1321.05 79.8725 1323.67 79.7124ZM1322.15 75.8015C1322.09 74.8441 1322.72 74.1649 1324.14 73.373L1328.51 70.9916L1328.64 73.1297C1328.78 75.3636 1327.04 77.2 1324.42 77.3601C1322.98 77.4479 1322.21 76.8546 1322.15 75.8015ZM1341.51 78.6531C1343.65 78.5223 1345.05 77.4433 1345.66 76.3492L1344.57 73.6614C1344.21 74.6441 1343.32 75.8515 1341.95 75.9354C1340.74 76.0096 1339.78 75.5875 1339.66 73.609L1339.14 65.1203L1344.22 64.81L1344.08 62.64L1339.01 62.9503L1338.76 58.9294L1336.11 61.1416L1336.23 63.1201L1333.75 63.2724L1333.88 65.4424L1336.37 65.2902L1336.94 74.6085C1337.1 77.2572 1338.99 78.8073 1341.51 78.6531ZM1350.56 77.747L1350.03 69.0031C1349.87 66.3544 1351.51 63.9155 1353.49 63.7945C1354.61 63.7262 1355.13 64.4628 1355.19 65.3564C1355.24 66.218 1354.88 67.2007 1354.4 67.6787L1357.43 67.4933C1357.66 67.0947 1357.95 66.1159 1357.87 64.8075C1357.74 62.6375 1356.07 61.5543 1354.41 61.6558C1351.8 61.8159 1350.33 63.9878 1349.87 66.4182L1349.62 62.3016L1346.84 62.4714L1347.79 77.9168L1350.56 77.747ZM1367.05 77.0587C1371.33 76.7971 1374.17 73.4524 1373.87 68.5699C1373.57 63.6873 1370.35 60.7134 1366.07 60.975C1361.79 61.2365 1358.99 64.5793 1359.29 69.4618C1359.58 74.3444 1362.78 77.3202 1367.05 77.0587ZM1366.91 74.7291C1364.29 74.8891 1362.36 73.1814 1362.13 69.2881C1361.89 65.3629 1363.6 63.4646 1366.21 63.3046C1368.86 63.1426 1370.82 64.8164 1371.06 68.7416C1371.3 72.6349 1369.56 74.5671 1366.91 74.7291ZM1380.6 75.9096L1380.07 67.1657C1379.91 64.5808 1380.87 62.4401 1383.2 62.2977C1385.53 62.1552 1386.65 63.2077 1386.79 65.4734L1387.4 75.4938L1390.18 75.324L1389.64 66.5801C1389.49 63.9952 1390.44 61.8546 1392.8 61.7102C1395.1 61.5696 1396.26 62.6202 1396.39 64.8859L1397.01 74.9063L1399.75 74.7385L1399.1 64.0479C1398.9 60.7929 1397.22 59.0696 1394.19 59.255C1391.38 59.4267 1389.92 61.5986 1389.46 64.0929C1389.12 61.1987 1387.46 59.6668 1384.62 59.8405C1381.84 60.0103 1380.37 62.1503 1379.91 64.5489L1379.66 60.4641L1376.88 60.6339L1377.83 76.0794L1380.6 75.9096ZM1407.15 74.606C1410.35 74.4108 1411.86 72.0117 1412.25 69.9381L1412.32 71.0231C1412.45 73.1931 1413.64 73.8887 1415.24 73.7911L1417.03 73.6818L1416.87 71.1608L1415.88 71.2213C1415.31 71.2564 1415.01 71.0506 1414.96 70.3166L1414.58 63.9661C1414.35 60.2962 1412.17 58.1554 1408.37 58.3877C1404.93 58.5985 1402.75 60.6856 1401.92 62.3378L1403.92 64.1693C1404.62 62.4292 1406.01 61.0629 1408.21 60.9282C1410.63 60.7799 1411.58 62.0675 1411.78 63.8806L1406.35 66.7113C1404.21 67.8353 1402.73 69.2393 1402.85 71.3136C1402.98 73.356 1404.54 74.7661 1407.15 74.606ZM1405.63 70.6951C1405.58 69.7377 1406.21 69.0585 1407.63 68.2666L1412 65.8852L1412.13 68.0234C1412.27 70.2572 1410.52 72.0937 1407.91 72.2537C1406.47 72.3415 1405.7 71.7482 1405.63 70.6951Z" fill="white">
<animateTransform 
    attributeName="transform"
    type="translate"
    values="0 0; -100 0"  
    dur="2s"
    repeatCount="indefinite"
    keyTimes="0;1"
    calcMode="linear"
  />

    </path>
<path d="M44.7471 145.297L44.7308 145.283C44.7296 145.282 44.7285 145.281 44.7278 145.28L34.5428 136.268L25.5319 146.453C25.5309 146.455 25.5303 146.456 25.5293 146.457L25.5144 146.473C24.137 148.039 23.3225 150.02 23.2003 152.102C23.0781 154.184 23.6553 156.246 24.84 157.963C26.0248 159.679 27.7492 160.949 29.7391 161.573C31.7289 162.196 33.8701 162.137 35.8222 161.403C35.9865 161.342 36.1654 161.331 36.336 161.372C38.3627 161.862 40.495 161.66 42.3939 160.798C44.2929 159.937 45.8494 158.466 46.8161 156.618C47.7829 154.771 48.1044 152.653 47.7295 150.602C47.3546 148.55 46.3049 146.683 44.7471 145.297ZM29.3331 152.593C29.2892 152.642 29.2555 152.7 29.234 152.763C29.2124 152.825 29.2034 152.892 29.2075 152.958C29.3282 154.651 29.9083 156.278 30.8854 157.666C30.9076 157.698 30.9192 157.735 30.9187 157.774C30.9182 157.812 30.9055 157.85 30.8825 157.881C30.8594 157.912 30.8272 157.934 30.7905 157.946C30.7537 157.957 30.7142 157.957 30.6778 157.944C29.9923 157.704 29.3603 157.333 28.817 156.851C27.7037 155.866 27.0268 154.479 26.9351 152.995C26.8434 151.511 27.3443 150.052 28.3279 148.937L34.8657 141.548L42.2549 148.085C43.3671 149.072 44.0424 150.459 44.1321 151.943C44.222 153.427 43.7191 154.886 42.7341 156C42.2535 156.544 41.6715 156.99 41.0206 157.312C40.9858 157.329 40.9467 157.334 40.9088 157.327C40.871 157.32 40.8362 157.301 40.8095 157.273C40.7829 157.246 40.7657 157.21 40.7605 157.172C40.7553 157.134 40.7623 157.095 40.7805 157.061C41.5814 155.565 41.959 153.878 41.8727 152.183C41.8687 152.117 41.8515 152.052 41.8224 151.993C41.7933 151.933 41.7527 151.88 41.703 151.836L38.1956 148.544C38.1611 148.519 38.1189 148.506 38.0762 148.509C38.0335 148.511 37.993 148.529 37.962 148.558C37.9308 148.588 37.9111 148.627 37.906 148.669C37.9009 148.712 37.9108 148.755 37.9342 148.791C39.355 151.027 38.4583 154.42 36.7361 156.367L36.727 156.377C36.4892 156.643 36.156 156.804 35.7998 156.826C35.4437 156.847 35.0933 156.728 34.825 156.492L34.8156 156.484C32.8683 154.762 31.5655 151.504 32.7033 149.111C32.7221 149.073 32.7268 149.029 32.7165 148.987C32.7063 148.946 32.6818 148.909 32.6474 148.884C32.6129 148.858 32.5707 148.846 32.528 148.849C32.4853 148.851 32.4449 148.869 32.4138 148.898L29.3331 152.593Z" fill="white">
<animateTransform 
    attributeName="transform"
    type="translate"
    values="0 0; -100 0"  
    dur="2s"
    repeatCount="indefinite"
    keyTimes="0;1"
    calcMode="linear"
  />

    </path>
<path d="M68.2618 142.252L71.4384 142.058L68.8168 153.269L65.1865 153.491L63.2493 147.074L62.0888 153.68L58.4585 153.902L54.4901 143.094L57.864 142.888L60.0536 150.517L61.2773 142.679L64.8485 142.461L67.0184 150.091L68.2618 142.252Z" fill="white">
<animateTransform 
    attributeName="transform"
    type="translate"
    values="0 0; -100 0"  
    dur="2s"
    repeatCount="indefinite"
    keyTimes="0;1"
    calcMode="linear"
  />

    </path>
<path d="M80.1496 149.07C80.6073 148.567 80.8096 147.881 80.7565 147.013C80.7034 146.145 80.4195 145.496 79.9046 145.065C79.389 144.621 78.8155 144.419 78.1841 144.457C77.5527 144.496 77.0082 144.767 76.5505 145.27C76.0928 145.774 75.8905 146.459 75.9435 147.327C75.9966 148.195 76.281 148.851 76.7967 149.295C77.3115 149.726 77.8846 149.922 78.516 149.883C79.1473 149.845 79.6919 149.574 80.1496 149.07ZM74.2179 151.493C73.1802 150.5 72.611 149.182 72.5105 147.537C72.4099 145.893 72.8141 144.515 73.7231 143.403C74.6313 142.278 75.7826 141.673 77.1768 141.588C78.5843 141.502 79.6946 141.955 80.5079 142.949L80.4198 141.508L83.7937 141.302L84.4671 152.312L81.0932 152.518L80.9955 150.92C80.2507 152.127 79.1944 152.773 77.8264 152.856C76.4585 152.94 75.2556 152.485 74.2179 151.493Z" fill="white">
<animateTransform 
    attributeName="transform"
    type="translate"
    values="0 0; -100 0"  
    dur="2s"
    repeatCount="indefinite"
    keyTimes="0;1"
    calcMode="linear"
  />

    </path>
<path d="M85.3572 141.206L88.9481 140.987L91.9546 149.022L93.9596 140.68L97.5505 140.461L94.3173 151.709L89.9371 151.977L85.3572 141.206Z" fill="white">
<animateTransform 
    attributeName="transform"
    type="translate"
    values="0 0; -100 0"  
    dur="2s"
    repeatCount="indefinite"
    keyTimes="0;1"
    calcMode="linear"
  />

    </path>
<path d="M104.467 151.227C102.862 151.325 101.515 150.893 100.426 149.929C99.3369 148.953 98.7398 147.61 98.6352 145.9C98.5307 144.19 98.9538 142.798 99.9047 141.723C100.869 140.647 102.16 140.06 103.778 139.961C105.395 139.862 106.768 140.28 107.894 141.214C109.021 142.149 109.638 143.504 109.747 145.28C109.77 145.661 109.766 146.018 109.733 146.35L102.157 146.813C102.252 147.296 102.494 147.684 102.882 147.977C103.268 148.257 103.672 148.384 104.093 148.358C104.527 148.332 104.847 148.273 105.053 148.181C105.257 148.076 105.403 147.981 105.491 147.897C105.59 147.798 105.713 147.645 105.859 147.438L109.509 147.215C109.261 148.339 108.684 149.272 107.779 150.014C106.873 150.743 105.769 151.147 104.467 151.227ZM106.171 144.449C106.087 143.939 105.838 143.538 105.424 143.247C105.009 142.942 104.532 142.806 103.993 142.839C103.454 142.872 103.01 143.064 102.662 143.416C102.313 143.754 102.108 144.182 102.047 144.701L106.171 144.449Z" fill="white">
<animateTransform 
    attributeName="transform"
    type="translate"
    values="0 0; -100 0"  
    dur="2s"
    repeatCount="indefinite"
    keyTimes="0;1"
    calcMode="linear"
  />

    </path>
<path d="M114.949 139.397L115.074 141.449C115.775 139.953 116.783 139.166 118.098 139.085L118.308 142.518L117.48 142.569C116.704 142.616 116.13 142.836 115.758 143.229C115.399 143.62 115.247 144.277 115.304 145.197L115.622 150.406L112.248 150.612L111.575 139.603L114.949 139.397Z" fill="white">
<animateTransform 
    attributeName="transform"
    type="translate"
    values="0 0; -100 0"  
    dur="2s"
    repeatCount="indefinite"
    keyTimes="0;1"
    calcMode="linear"
  />

    </path>
<path d="M122.939 137.66C122.581 138.065 122.126 138.284 121.573 138.318C121.021 138.352 120.542 138.19 120.137 137.832C119.733 137.473 119.513 137.018 119.48 136.466C119.445 135.9 119.607 135.415 119.965 135.01C120.323 134.605 120.778 134.386 121.331 134.352C121.883 134.318 122.362 134.481 122.767 134.839C123.171 135.197 123.391 135.659 123.426 136.224C123.459 136.777 123.297 137.255 122.939 137.66ZM120.611 150.101L119.937 139.091L123.311 138.885L123.984 149.895L120.611 150.101Z" fill="white">
<animateTransform 
    attributeName="transform"
    type="translate"
    values="0 0; -100 0"  
    dur="2s"
    repeatCount="indefinite"
    keyTimes="0;1"
    calcMode="linear"
  />

    </path>
<path d="M133.348 145.856C133.766 145.355 133.948 144.658 133.893 143.763C133.839 142.869 133.567 142.205 133.079 141.773C132.589 141.328 132.029 141.124 131.398 141.163C130.766 141.202 130.235 141.472 129.803 141.974C129.384 142.461 129.202 143.152 129.257 144.047C129.312 144.941 129.584 145.611 130.073 146.056C130.575 146.501 131.142 146.704 131.774 146.665C132.405 146.627 132.93 146.357 133.348 145.856ZM127.731 148.24C126.562 147.268 125.926 145.934 125.823 144.237C125.719 142.54 126.188 141.152 127.231 140.071C128.273 138.978 129.61 138.381 131.241 138.281C132.872 138.181 134.265 138.611 135.419 139.57C136.586 140.516 137.222 141.837 137.325 143.533C137.429 145.23 136.967 146.632 135.939 147.738C134.911 148.843 133.581 149.446 131.95 149.546C130.319 149.646 128.913 149.21 127.731 148.24Z" fill="white">
<animateTransform 
    attributeName="transform"
    type="translate"
    values="0 0; -100 0"  
    dur="2s"
    repeatCount="indefinite"
    keyTimes="0;1"
    calcMode="linear"
  />

    </path>
<path d="M217.924 128.794L218.892 127.699C220.794 125.549 224.089 125.298 226.25 127.187C227.069 127.905 227.642 128.861 227.89 129.921C228.137 130.982 228.046 132.093 227.63 133.099C227.43 133.58 227.385 134.111 227.502 134.618C227.618 135.125 227.891 135.584 228.28 135.929C228.914 135.211 229.4 134.375 229.711 133.469C230.021 132.563 230.15 131.605 230.091 130.649C230.031 129.693 229.783 128.758 229.362 127.898C228.941 127.038 228.354 126.269 227.636 125.636C224.614 122.977 219.992 123.316 217.325 126.331L208.093 136.765L207.235 136.006C205.049 134.072 204.83 130.705 206.803 128.553C207.533 127.759 208.492 127.211 209.547 126.985C210.602 126.759 211.701 126.866 212.693 127.292C213.146 127.49 213.65 127.54 214.133 127.434C214.616 127.329 215.053 127.074 215.382 126.705L215.406 126.678C215.413 126.67 215.419 126.661 215.422 126.65C215.426 126.64 215.428 126.629 215.427 126.618C215.426 126.607 215.423 126.596 215.419 126.586C215.414 126.576 215.407 126.567 215.399 126.56C213.965 125.324 212.106 124.693 210.215 124.803C208.325 124.913 206.551 125.753 205.269 127.147C202.509 130.159 202.808 134.867 205.867 137.574L216.299 146.803L215.318 147.911C213.416 150.061 210.121 150.313 207.96 148.423C207.142 147.705 206.568 146.749 206.321 145.689C206.073 144.629 206.164 143.517 206.58 142.511C206.78 142.031 206.825 141.499 206.708 140.992C206.592 140.485 206.32 140.027 205.93 139.681C205.296 140.4 204.81 141.235 204.5 142.141C204.189 143.047 204.06 144.005 204.12 144.961C204.18 145.917 204.427 146.852 204.848 147.712C205.269 148.572 205.856 149.341 206.574 149.974C209.597 152.633 214.218 152.294 216.885 149.279L226.129 138.831L226.99 139.593C229.14 141.495 229.392 144.79 227.502 146.95C226.785 147.769 225.828 148.343 224.768 148.59C223.708 148.838 222.597 148.747 221.591 148.331C221.11 148.131 220.578 148.086 220.071 148.203C219.563 148.319 219.105 148.592 218.76 148.981C219.478 149.615 220.314 150.101 221.22 150.412C222.126 150.723 223.084 150.852 224.04 150.792C224.996 150.732 225.93 150.484 226.791 150.063C227.651 149.642 228.42 149.056 229.053 148.337C231.712 145.315 231.373 140.694 228.358 138.026L217.924 128.794ZM217.677 145.244L209.651 138.144L216.545 130.352L224.57 137.453L217.677 145.244Z" fill="white">
<animateTransform 
    attributeName="transform"
    type="translate"
    values="0 0; -100 0"  
    dur="2s"
    repeatCount="indefinite"
    keyTimes="0;1"
    calcMode="linear"
  />

    </path>
<path d="M243.57 144.99C242.065 145.082 240.887 144.711 240.037 143.876C239.193 143.041 238.678 141.862 238.491 140.338L240.843 139.595C241.107 141.976 241.976 143.121 243.45 143.031C244.644 142.958 245.204 142.324 245.131 141.13C245.11 140.776 245.04 140.452 244.922 140.16C244.81 139.861 244.647 139.593 244.433 139.356C244.218 139.114 244.026 138.923 243.855 138.783C243.684 138.638 243.451 138.461 243.158 138.255L240.027 136.049C239.453 135.654 238.981 135.136 238.611 134.497C238.247 133.852 238.039 133.106 237.988 132.26C237.912 131.029 238.235 130.026 238.955 129.251C239.676 128.477 240.667 128.051 241.93 127.974C243.285 127.891 244.382 128.158 245.218 128.775C246.061 129.385 246.612 130.291 246.873 131.492C246.9 131.621 246.933 131.8 246.972 132.029L244.62 132.772C244.607 132.667 244.582 132.509 244.544 132.299C244.392 131.547 244.116 130.955 243.715 130.524C243.32 130.086 242.765 129.889 242.049 129.933C241.477 129.968 241.046 130.157 240.754 130.499C240.463 130.835 240.335 131.289 240.37 131.862C240.427 132.801 240.873 133.563 241.708 134.149L244.839 136.354C246.51 137.544 247.4 139.035 247.51 140.826C247.585 142.051 247.264 143.032 246.547 143.768C245.837 144.505 244.844 144.912 243.57 144.99Z" fill="white">
<animateTransform 
    attributeName="transform"
    type="translate"
    values="0 0; -100 0"  
    dur="2s"
    repeatCount="indefinite"
    keyTimes="0;1"
    calcMode="linear"
  />

    </path>
<path d="M252.62 142.47C253.248 142.432 253.835 142.233 254.381 141.875L253.929 134.487C253.903 134.476 253.839 134.443 253.736 134.387C253.632 134.331 253.558 134.295 253.514 134.279C253.475 134.256 253.407 134.223 253.311 134.179C253.215 134.135 253.135 134.105 253.071 134.09C253.014 134.069 252.938 134.049 252.843 134.029C252.754 134.004 252.666 133.987 252.578 133.98C252.496 133.973 252.409 133.972 252.315 133.977C252.116 133.99 251.942 134.047 251.792 134.15C251.648 134.246 251.53 134.359 251.439 134.49C251.347 134.62 251.27 134.803 251.21 135.037C251.156 135.272 251.118 135.48 251.098 135.662C251.078 135.838 251.067 136.076 251.067 136.376C251.066 136.669 251.068 136.897 251.071 137.059C251.081 137.221 251.095 137.448 251.113 137.74C251.114 137.752 251.114 137.762 251.115 137.768C251.121 137.874 251.132 138.045 251.146 138.281C251.161 138.517 251.174 138.744 251.188 138.962C251.201 139.18 251.214 139.385 251.225 139.578C251.257 139.994 251.298 140.36 251.349 140.675C251.405 140.984 251.483 141.288 251.582 141.588C251.688 141.881 251.826 142.106 251.998 142.264C252.176 142.416 252.383 142.484 252.62 142.47ZM254.739 147.734L254.455 143.079C254.122 143.467 253.774 143.788 253.409 144.042C253.05 144.294 252.627 144.436 252.142 144.465C251.682 144.494 251.265 144.404 250.89 144.196C250.521 143.981 250.216 143.697 249.976 143.343C249.742 142.989 249.539 142.568 249.365 142.079C249.198 141.584 249.071 141.095 248.985 140.614C248.906 140.132 248.85 139.629 248.818 139.107L248.707 137.288C248.674 136.747 248.669 136.251 248.691 135.8C248.713 135.349 248.777 134.902 248.881 134.459C248.985 134.016 249.133 133.638 249.326 133.327C249.525 133.009 249.797 132.749 250.14 132.547C250.483 132.339 250.888 132.22 251.354 132.192C251.622 132.175 251.873 132.197 252.107 132.258C252.348 132.312 252.579 132.41 252.8 132.553C253.027 132.695 253.203 132.821 253.328 132.932C253.46 133.037 253.638 133.194 253.863 133.405L253.79 132.211L256.178 132.065L257.127 147.587L254.739 147.734Z" fill="white">
<animateTransform 
    attributeName="transform"
    type="translate"
    values="0 0; -100 0"  
    dur="2s"
    repeatCount="indefinite"
    keyTimes="0;1"
    calcMode="linear"
  />

    </path>
<path d="M260.538 143.952C260.015 143.984 259.584 143.826 259.245 143.479C258.905 143.125 258.718 142.674 258.685 142.127L258.062 131.95L260.45 131.804L261.028 141.253C261.043 141.502 261.13 141.7 261.289 141.846C261.454 141.992 261.658 142.058 261.9 142.043C262.031 142.035 262.158 142.011 262.28 141.973C262.403 141.934 262.521 141.874 262.634 141.792C262.754 141.703 262.846 141.635 262.912 141.588C262.977 141.534 263.069 141.447 263.186 141.327C263.31 141.207 263.387 141.134 263.416 141.107L262.838 131.658L265.226 131.512L265.957 143.452L263.569 143.598L263.49 142.311C263.266 142.53 263.101 142.69 262.995 142.79C262.895 142.89 262.738 143.028 262.524 143.203C262.31 143.372 262.118 143.5 261.948 143.585C261.784 143.663 261.577 143.739 261.325 143.81C261.074 143.888 260.812 143.935 260.538 143.952Z" fill="white">
<animateTransform 
    attributeName="transform"
    type="translate"
    values="0 0; -100 0"  
    dur="2s"
    repeatCount="indefinite"
    keyTimes="0;1"
    calcMode="linear"
  />

    </path>
<path d="M271.202 141.333C271.37 141.323 271.528 141.264 271.678 141.154C271.833 141.045 271.949 140.941 272.024 140.843C272.099 140.745 272.191 140.614 272.299 140.452C272.316 140.419 272.33 140.397 272.342 140.384L272.14 137.081C272.045 137.156 271.886 137.272 271.665 137.429C271.444 137.586 271.267 137.715 271.136 137.817C271.005 137.912 270.848 138.047 270.665 138.22C270.481 138.387 270.342 138.549 270.245 138.705C270.148 138.854 270.066 139.037 269.998 139.254C269.93 139.47 269.903 139.693 269.917 139.923C269.977 140.912 270.406 141.382 271.202 141.333ZM270.127 143.365C269.462 143.406 268.879 143.155 268.377 142.611C267.882 142.061 267.612 141.425 267.568 140.704C267.532 140.125 267.596 139.594 267.76 139.109C267.93 138.625 268.116 138.236 268.316 137.942C268.517 137.643 268.862 137.329 269.354 136.999C269.845 136.663 270.218 136.431 270.473 136.303C270.727 136.175 271.17 135.964 271.801 135.669C271.91 135.619 271.992 135.58 272.046 135.551L271.994 134.693C271.957 134.09 271.845 133.629 271.657 133.309C271.468 132.984 271.144 132.835 270.684 132.863C270.273 132.888 269.986 133.049 269.824 133.347C269.667 133.637 269.591 134.032 269.596 134.531C269.594 134.6 269.598 134.702 269.606 134.839L267.218 134.985C267.16 133.84 267.425 132.91 268.012 132.193C268.598 131.477 269.451 131.085 270.571 131.016C271.684 130.948 272.579 131.24 273.255 131.891C273.938 132.536 274.313 133.422 274.382 134.547L274.711 139.92C274.787 141.164 274.95 142.153 275.201 142.887L272.822 143.032L272.396 141.26C272.286 141.517 272.196 141.716 272.123 141.858C272.057 141.999 271.955 142.177 271.819 142.391C271.682 142.599 271.542 142.764 271.4 142.885C271.257 143 271.076 143.105 270.857 143.199C270.638 143.294 270.395 143.349 270.127 143.365Z" fill="white">
<animateTransform 
    attributeName="transform"
    type="translate"
    values="0 0; -100 0"  
    dur="2s"
    repeatCount="indefinite"
    keyTimes="0;1"
    calcMode="linear"
  />

    </path>
<path d="M276.955 142.779L276.225 130.839L278.613 130.693L278.71 132.288C278.924 131.801 279.25 131.369 279.689 130.992C280.134 130.609 280.639 130.4 281.205 130.366C281.224 130.365 281.352 130.369 281.59 130.38L281.751 133.02C281.299 132.873 280.852 132.813 280.411 132.84C279.913 132.87 279.521 133.044 279.235 133.361C278.948 133.678 278.82 134.082 278.85 134.574L279.343 142.633L276.955 142.779Z" fill="white">
<animateTransform 
    attributeName="transform"
    type="translate"
    values="0 0; -100 0"  
    dur="2s"
    repeatCount="indefinite"
    keyTimes="0;1"
    calcMode="linear"
  />

    </path>
<path d="M286.723 142.35C286.144 142.386 285.634 142.317 285.193 142.144C284.758 141.971 284.403 141.734 284.129 141.432C283.86 141.124 283.633 140.726 283.447 140.238C283.261 139.744 283.122 139.25 283.029 138.756C282.942 138.256 282.872 137.673 282.819 137.009C282.768 136.487 282.737 135.965 282.723 135.441C282.704 134.818 282.711 134.266 282.743 133.783C282.782 133.294 282.869 132.817 283.002 132.353C283.136 131.889 283.322 131.504 283.559 131.196C283.802 130.887 284.127 130.633 284.533 130.434C284.945 130.228 285.431 130.107 285.99 130.073C286.5 130.042 286.952 130.083 287.346 130.196C287.746 130.303 288.082 130.485 288.353 130.743C288.631 130.995 288.864 131.28 289.052 131.599C289.246 131.918 289.401 132.311 289.517 132.779C289.633 133.24 289.72 133.696 289.779 134.149C289.844 134.6 289.895 135.121 289.931 135.712L289.948 135.992L285.172 136.284L285.208 136.881C285.213 136.962 285.221 137.09 285.232 137.264C285.233 137.495 285.245 137.734 285.266 137.983C285.294 138.224 285.321 138.463 285.348 138.699C285.374 138.934 285.422 139.159 285.492 139.373C285.561 139.581 285.64 139.764 285.731 139.92C285.822 140.077 285.942 140.198 286.09 140.282C286.245 140.366 286.422 140.402 286.621 140.39C286.87 140.375 287.073 140.316 287.228 140.213C287.384 140.103 287.493 139.95 287.556 139.753C287.625 139.555 287.669 139.359 287.689 139.164C287.708 138.969 287.712 138.726 287.7 138.433L287.669 137.929L290.039 137.784L290.068 138.26C290.09 139.538 289.835 140.521 289.303 141.209C288.77 141.897 287.91 142.278 286.723 142.35ZM285.099 135.09L287.468 134.945L287.424 134.227C287.399 133.91 287.363 133.635 287.317 133.4C287.272 133.166 287.201 132.933 287.106 132.702C287.017 132.47 286.888 132.297 286.719 132.182C286.549 132.068 286.346 132.018 286.11 132.032C285.868 132.047 285.666 132.125 285.506 132.266C285.353 132.406 285.243 132.603 285.177 132.857C285.118 133.104 285.079 133.347 285.063 133.585C285.046 133.823 285.045 134.107 285.059 134.437L285.099 135.09Z" fill="white">
<animateTransform 
    attributeName="transform"
    type="translate"
    values="0 0; -100 0"  
    dur="2s"
    repeatCount="indefinite"
    keyTimes="0;1"
    calcMode="linear"
  />

    </path>
<path d="M296.517 141.751C295.012 141.843 293.835 141.472 292.985 140.638C292.141 139.803 291.626 138.624 291.439 137.099L293.79 136.356C294.055 138.737 294.924 139.883 296.397 139.792C297.592 139.719 298.152 139.086 298.079 137.892C298.057 137.537 297.988 137.214 297.87 136.921C297.758 136.622 297.595 136.355 297.381 136.118C297.166 135.875 296.973 135.684 296.802 135.545C296.631 135.399 296.399 135.223 296.105 135.016L292.974 132.811C292.401 132.415 291.929 131.898 291.559 131.259C291.195 130.613 290.987 129.867 290.935 129.022C290.86 127.79 291.183 126.787 291.903 126.013C292.623 125.239 293.615 124.813 294.877 124.736C296.233 124.653 297.329 124.92 298.166 125.536C299.009 126.146 299.56 127.052 299.821 128.253C299.848 128.383 299.88 128.562 299.919 128.791L297.568 129.534C297.555 129.428 297.53 129.271 297.492 129.061C297.34 128.308 297.063 127.717 296.662 127.286C296.267 126.848 295.712 126.651 294.997 126.695C294.425 126.73 293.993 126.918 293.702 127.261C293.411 127.597 293.282 128.051 293.317 128.623C293.375 129.562 293.821 130.325 294.656 130.91L297.787 133.116C299.458 134.306 300.348 135.796 300.457 137.587C300.532 138.812 300.211 139.793 299.495 140.53C298.785 141.266 297.792 141.673 296.517 141.751Z" fill="white">
<animateTransform 
    attributeName="transform"
    type="translate"
    values="0 0; -100 0"  
    dur="2s"
    repeatCount="indefinite"
    keyTimes="0;1"
    calcMode="linear"
  />

    </path>
<path d="M305.65 141.193C304.711 141.25 304.012 141.053 303.554 140.6C303.101 140.147 302.839 139.436 302.768 138.466L302.314 131.041L301.119 131.114L301.01 129.323L302.204 129.25L301.948 125.071L304.336 124.925L304.592 129.104L306.383 128.994L306.493 130.785L304.702 130.895L305.128 137.863C305.157 138.342 305.244 138.69 305.388 138.905C305.532 139.121 305.804 139.217 306.202 139.193C306.376 139.182 306.641 139.135 306.998 139.05L307.117 140.991C306.524 141.102 306.035 141.169 305.65 141.193Z" fill="white">
<animateTransform 
    attributeName="transform"
    type="translate"
    values="0 0; -100 0"  
    dur="2s"
    repeatCount="indefinite"
    keyTimes="0;1"
    calcMode="linear"
  />

    </path>
<path d="M314.835 139.507C314.327 140.288 313.433 140.717 312.152 140.795C310.871 140.873 309.93 140.556 309.331 139.844C308.732 139.132 308.39 138.073 308.304 136.667L308.085 133.085C307.999 131.68 308.21 130.587 308.717 129.807C309.225 129.027 310.12 128.597 311.401 128.519C312.682 128.441 313.622 128.758 314.221 129.47C314.82 130.182 315.163 131.241 315.249 132.647L315.468 136.229C315.554 137.634 315.343 138.727 314.835 139.507ZM311.579 138.789C311.713 138.831 311.864 138.846 312.032 138.836C312.2 138.826 312.344 138.792 312.466 138.735C312.593 138.677 312.695 138.611 312.772 138.538C312.854 138.458 312.92 138.348 312.967 138.208C313.014 138.061 313.05 137.934 313.075 137.827C313.1 137.719 313.112 137.565 313.112 137.366C313.113 137.166 313.109 137.01 313.102 136.898C313.101 136.779 313.094 136.605 313.08 136.375L312.861 132.793C312.847 132.563 312.833 132.392 312.82 132.28C312.813 132.162 312.797 132.004 312.772 131.806C312.748 131.608 312.717 131.457 312.679 131.353C312.641 131.249 312.59 131.13 312.526 130.997C312.461 130.857 312.383 130.756 312.292 130.693C312.207 130.623 312.097 130.568 311.964 130.526C311.836 130.484 311.688 130.468 311.521 130.478C311.353 130.488 311.205 130.522 311.077 130.58C310.956 130.637 310.854 130.706 310.772 130.786C310.695 130.859 310.633 130.969 310.586 131.116C310.538 131.256 310.502 131.38 310.477 131.487C310.453 131.595 310.44 131.749 310.44 131.949C310.44 132.148 310.44 132.307 310.441 132.426C310.448 132.538 310.459 132.709 310.473 132.939L310.692 136.521C310.706 136.751 310.716 136.925 310.724 137.044C310.737 137.155 310.756 137.31 310.78 137.508C310.805 137.706 310.836 137.857 310.873 137.961C310.911 138.065 310.962 138.187 311.027 138.326C311.091 138.46 311.166 138.561 311.251 138.631C311.343 138.694 311.452 138.747 311.579 138.789Z" fill="white">
<animateTransform 
    attributeName="transform"
    type="translate"
    values="0 0; -100 0"  
    dur="2s"
    repeatCount="indefinite"
    keyTimes="0;1"
    calcMode="linear"
  />

    </path>
<path d="M317.682 140.288L316.952 128.348L319.34 128.202L319.419 129.489C319.754 129.144 320.028 128.881 320.241 128.699C320.455 128.511 320.753 128.331 321.135 128.158C321.524 127.978 321.942 127.874 322.39 127.847C322.9 127.816 323.324 127.977 323.664 128.331C324.004 128.684 324.191 129.132 324.224 129.673L324.847 139.85L322.458 139.996L321.911 131.041C321.885 130.624 321.808 130.326 321.678 130.147C321.548 129.961 321.303 129.88 320.942 129.902C320.737 129.914 320.534 129.97 320.335 130.07C320.14 130.163 319.996 130.25 319.901 130.331C319.806 130.405 319.67 130.526 319.492 130.693L320.07 140.142L317.682 140.288Z" fill="white">
<animateTransform 
    attributeName="transform"
    type="translate"
    values="0 0; -100 0"  
    dur="2s"
    repeatCount="indefinite"
    keyTimes="0;1"
    calcMode="linear"
  />

    </path>
<path d="M330.323 139.684C329.745 139.719 329.235 139.65 328.794 139.478C328.359 139.304 328.004 139.067 327.73 138.766C327.461 138.457 327.234 138.059 327.048 137.571C326.862 137.077 326.722 136.583 326.63 136.089C326.543 135.589 326.473 135.007 326.42 134.342C326.369 133.821 326.337 133.298 326.324 132.775C326.305 132.152 326.311 131.599 326.344 131.116C326.383 130.627 326.469 130.15 326.603 129.687C326.737 129.223 326.923 128.837 327.16 128.529C327.403 128.221 327.728 127.967 328.134 127.767C328.546 127.561 329.031 127.441 329.591 127.406C330.101 127.375 330.553 127.416 330.947 127.529C331.347 127.636 331.682 127.818 331.954 128.076C332.232 128.328 332.464 128.613 332.653 128.933C332.847 129.252 333.002 129.645 333.118 130.112C333.234 130.573 333.321 131.03 333.38 131.482C333.445 131.933 333.495 132.455 333.531 133.046L333.549 133.325L328.772 133.618L328.809 134.215C328.814 134.295 328.822 134.423 328.832 134.597C328.834 134.828 328.846 135.067 328.867 135.316C328.894 135.558 328.921 135.796 328.948 136.032C328.975 136.267 329.023 136.492 329.092 136.707C329.161 136.915 329.241 137.097 329.332 137.254C329.423 137.41 329.542 137.531 329.691 137.616C329.846 137.7 330.023 137.736 330.222 137.724C330.471 137.708 330.673 137.649 330.829 137.546C330.985 137.437 331.094 137.283 331.157 137.086C331.226 136.888 331.27 136.692 331.289 136.497C331.309 136.303 331.313 136.059 331.301 135.766L331.27 135.262L333.639 135.118L333.669 135.593C333.691 136.872 333.435 137.855 332.903 138.543C332.371 139.231 331.511 139.611 330.323 139.684ZM328.699 132.423L331.069 132.279L331.025 131.56C330.999 131.243 330.964 130.968 330.918 130.733C330.873 130.499 330.802 130.266 330.707 130.035C330.618 129.803 330.489 129.63 330.319 129.515C330.15 129.401 329.947 129.351 329.711 129.365C329.468 129.38 329.267 129.458 329.107 129.599C328.953 129.739 328.844 129.937 328.778 130.19C328.718 130.437 328.68 130.68 328.664 130.918C328.647 131.156 328.646 131.441 328.659 131.77L328.699 132.423Z" fill="white">
<animateTransform 
    attributeName="transform"
    type="translate"
    values="0 0; -100 0"  
    dur="2s"
    repeatCount="indefinite"
    keyTimes="0;1"
    calcMode="linear"
  />

    </path>
<path d="M518.25 125.221C517.832 124.808 517.47 124.341 517.174 123.832C516.707 123.035 516.086 122.34 515.349 121.787C514.611 121.235 513.771 120.837 512.878 120.617C512.098 120.425 511.29 120.373 510.492 120.463C511.073 120.393 511.658 120.548 512.131 120.895C512.604 121.242 512.929 121.756 513.041 122.334C513.329 123.581 513.955 124.722 514.849 125.631C515.744 126.541 516.871 127.182 518.106 127.483C519.518 127.828 521.001 127.714 522.344 127.158C520.801 127 519.357 126.317 518.25 125.221Z" fill="white">
<animateTransform 
    attributeName="transform"
    type="translate"
    values="0 0; -100 0"  
    dur="2s"
    repeatCount="indefinite"
    keyTimes="0;1"
    calcMode="linear"
  />

    </path>
<path d="M508.1 120.484C508.325 121.251 508.684 121.972 509.16 122.616C508.813 122.149 508.655 121.569 508.717 120.991C508.779 120.413 509.057 119.879 509.496 119.494C510.426 118.631 511.096 117.528 511.432 116.31C511.768 115.091 511.757 113.804 511.4 112.591C510.992 111.205 510.15 109.983 508.996 109.103C509.63 110.517 509.759 112.104 509.361 113.601C509.208 114.166 508.98 114.709 508.684 115.216C508.231 116.011 507.942 116.888 507.836 117.795C507.73 118.702 507.808 119.621 508.065 120.498L508.1 120.484Z" fill="white">
<animateTransform 
    attributeName="transform"
    type="translate"
    values="0 0; -100 0"  
    dur="2s"
    repeatCount="indefinite"
    keyTimes="0;1"
    calcMode="linear"
  />

    </path>
<path d="M511.679 122.982C511.452 123.521 511.033 123.953 510.505 124.19C509.978 124.427 509.381 124.453 508.834 124.262C507.633 123.887 506.353 123.859 505.138 124.18C503.923 124.501 502.821 125.159 501.954 126.081C500.965 127.136 500.333 128.484 500.149 129.929C501.051 128.666 502.351 127.754 503.834 127.344C504.392 127.192 504.966 127.111 505.543 127.103C506.448 127.096 507.343 126.904 508.174 126.539C509.005 126.174 509.755 125.644 510.38 124.979C510.927 124.396 511.369 123.72 511.687 122.982L511.679 122.982Z" fill="white">
<animateTransform 
    attributeName="transform"
    type="translate"
    values="0 0; -100 0"  
    dur="2s"
    repeatCount="indefinite"
    keyTimes="0;1"
    calcMode="linear"
  />

    </path>
<path d="M400.416 135.937L403.687 135.737L403.2 127.77C403.146 126.888 403.344 126.165 403.794 125.603C404.245 125.041 404.861 124.736 405.644 124.688C406.443 124.639 407.092 124.867 407.591 125.371C408.105 125.858 408.39 126.55 408.445 127.45L408.932 135.416L412.204 135.216L411.716 127.249C411.662 126.367 411.861 125.645 412.311 125.082C412.761 124.52 413.377 124.215 414.16 124.167C414.959 124.118 415.608 124.346 416.107 124.85C416.621 125.337 416.906 126.03 416.961 126.929L417.448 134.896L420.72 134.695L420.185 125.954C420.123 124.939 419.844 124.062 419.348 123.323C418.867 122.567 418.239 121.996 417.463 121.609C416.687 121.221 415.816 121.057 414.851 121.117C413.952 121.172 413.147 121.405 412.437 121.816C411.743 122.226 411.186 122.811 410.764 123.572C410.324 122.931 409.717 122.433 408.943 122.079C408.186 121.725 407.35 121.575 406.434 121.631C405.585 121.683 404.838 121.896 404.192 122.27C403.547 122.644 403.069 123.174 402.76 123.861L402.657 122.163L399.585 122.351L400.416 135.937Z" fill="white">
<animateTransform 
    attributeName="transform"
    type="translate"
    values="0 0; -100 0"  
    dur="2s"
    repeatCount="indefinite"
    keyTimes="0;1"
    calcMode="linear"
  />

    </path>
<path d="M427.627 134.574C429.392 134.466 430.772 133.797 431.766 132.566L431.854 134.014L434.951 133.825L434.398 124.784C434.34 123.835 434.047 123.009 433.52 122.306C432.992 121.603 432.291 121.078 431.418 120.73C430.56 120.365 429.573 120.216 428.458 120.284C427.092 120.368 425.897 120.767 424.871 121.481C423.845 122.196 423.165 123.098 422.831 124.188L425.582 125.323C425.794 124.692 426.156 124.177 426.666 123.778C427.175 123.363 427.788 123.133 428.504 123.089C429.253 123.043 429.865 123.206 430.339 123.579C430.828 123.933 431.091 124.402 431.127 124.984L431.154 125.434L427.148 126.331C425.566 126.695 424.415 127.275 423.695 128.071C422.975 128.867 422.649 129.831 422.718 130.963C422.792 132.162 423.274 133.085 424.166 133.733C425.058 134.38 426.212 134.66 427.627 134.574ZM426.107 130.631C426.049 129.682 426.654 129.043 427.92 128.715L431.307 127.931L431.34 128.481C431.397 129.413 431.121 130.224 430.512 130.913C429.919 131.601 429.106 131.977 428.074 132.04C427.524 132.073 427.067 131.968 426.701 131.723C426.334 131.461 426.136 131.097 426.107 130.631Z" fill="white">
<animateTransform 
    attributeName="transform"
    type="translate"
    values="0 0; -100 0"  
    dur="2s"
    repeatCount="indefinite"
    keyTimes="0;1"
    calcMode="linear"
  />

    </path>
<path d="M437.975 133.64L441.247 133.44L440.784 125.873C440.721 124.84 440.955 124.024 441.486 123.423C442.034 122.805 442.765 122.468 443.681 122.412L444.855 122.34L444.677 119.443L443.878 119.492C443.046 119.542 442.322 119.737 441.708 120.076C441.094 120.414 440.635 120.985 440.334 121.789L440.216 119.866L437.144 120.054L437.975 133.64Z" fill="white">
<animateTransform 
    attributeName="transform"
    type="translate"
    values="0 0; -100 0"  
    dur="2s"
    repeatCount="indefinite"
    keyTimes="0;1"
    calcMode="linear"
  />

    </path>
<path d="M453.885 132.817C454.434 132.784 454.973 132.709 455.501 132.593L455.328 129.771C455.015 129.84 454.725 129.883 454.459 129.899C453.659 129.948 453.065 129.801 452.677 129.457C452.288 129.113 452.073 128.6 452.031 127.917L451.675 122.098L454.797 121.907L454.618 118.985L451.496 119.176L451.307 116.079L448.035 116.279L448.099 117.328C448.14 117.994 447.988 118.513 447.643 118.885C447.298 119.257 446.793 119.464 446.127 119.504L445.877 119.52L446.056 122.442L448.403 122.298L448.77 128.292C448.863 129.807 449.351 130.964 450.236 131.762C451.137 132.559 452.353 132.911 453.885 132.817Z" fill="white">
<animateTransform 
    attributeName="transform"
    type="translate"
    values="0 0; -100 0"  
    dur="2s"
    repeatCount="indefinite"
    keyTimes="0;1"
    calcMode="linear"
  />

    </path>
<path d="M457.075 117.306L460.346 117.106L460.132 113.609L456.861 113.809L457.075 117.306ZM457.999 132.415L461.27 132.215L460.439 118.629L457.168 118.829L457.999 132.415Z" fill="white">
<animateTransform 
    attributeName="transform"
    type="translate"
    values="0 0; -100 0"  
    dur="2s"
    repeatCount="indefinite"
    keyTimes="0;1"
    calcMode="linear"
  />

    </path>
<path d="M464.291 132.031L467.563 131.83L467.076 123.863C467.022 122.981 467.228 122.258 467.695 121.695C468.179 121.13 468.828 120.823 469.644 120.773C470.46 120.724 471.134 120.95 471.666 121.452C472.214 121.937 472.515 122.628 472.57 123.527L473.057 131.494L476.329 131.294L475.794 122.553C475.732 121.537 475.461 120.66 474.982 119.921C474.501 119.164 473.856 118.594 473.047 118.209C472.255 117.823 471.359 117.66 470.36 117.721C469.511 117.773 468.755 117.987 468.093 118.361C467.447 118.735 466.961 119.258 466.634 119.93L466.532 118.256L463.46 118.444L464.291 132.031Z" fill="white">
<animateTransform 
    attributeName="transform"
    type="translate"
    values="0 0; -100 0"  
    dur="2s"
    repeatCount="indefinite"
    keyTimes="0;1"
    calcMode="linear"
  />

    </path>
<path d="M485.757 131.018C487.072 130.938 488.253 130.565 489.298 129.899C490.343 129.217 491.157 128.323 491.742 127.218C492.325 126.096 492.575 124.852 492.491 123.487C492.408 122.122 492.009 120.926 491.294 119.9C490.596 118.874 489.687 118.085 488.567 117.535C487.447 116.986 486.221 116.751 484.89 116.833C483.541 116.915 482.344 117.298 481.3 117.98C480.255 118.662 479.441 119.556 478.857 120.661C478.289 121.765 478.047 123 478.131 124.366C478.214 125.731 478.605 126.927 479.303 127.954C480.017 128.98 480.934 129.768 482.054 130.317C483.191 130.866 484.425 131.1 485.757 131.018ZM485.574 128.021C484.841 128.066 484.173 127.932 483.569 127.618C482.981 127.303 482.502 126.847 482.132 126.252C481.776 125.638 481.575 124.94 481.527 124.158C481.479 123.375 481.595 122.666 481.873 122.031C482.169 121.394 482.589 120.884 483.133 120.5C483.694 120.098 484.34 119.875 485.073 119.83C485.805 119.785 486.458 119.929 487.029 120.262C487.617 120.577 488.088 121.032 488.442 121.629C488.812 122.225 489.022 122.914 489.07 123.696C489.117 124.479 488.994 125.197 488.7 125.85C488.421 126.485 488.01 126.995 487.465 127.379C486.937 127.763 486.306 127.977 485.574 128.021Z" fill="white">
<animateTransform 
    attributeName="transform"
    type="translate"
    values="0 0; -100 0"  
    dur="2s"
    repeatCount="indefinite"
    keyTimes="0;1"
    calcMode="linear"
  />

    </path>
<path d="M591.733 107.196L593.285 107.856C593.57 107.961 593.875 107.997 594.176 107.962C594.477 107.927 594.765 107.822 595.019 107.656L596.385 106.643C596.619 106.45 596.804 106.204 596.925 105.926C597.046 105.648 597.1 105.346 597.081 105.043L596.887 103.351C596.836 103.052 596.715 102.77 596.535 102.527C596.354 102.284 596.119 102.087 595.849 101.952L594.296 101.272C594.012 101.166 593.706 101.129 593.405 101.163C593.104 101.197 592.815 101.302 592.562 101.469L591.195 102.482C590.962 102.675 590.777 102.92 590.656 103.198C590.535 103.476 590.481 103.779 590.499 104.081L590.694 105.774C590.742 106.076 590.861 106.363 591.041 106.61C591.222 106.858 591.459 107.058 591.733 107.196Z" fill="white">
<animateTransform 
    attributeName="transform"
    type="translate"
    values="0 0; -100 0"  
    dur="2s"
    repeatCount="indefinite"
    keyTimes="0;1"
    calcMode="linear"
  />

    </path>
<path d="M600.952 108.838L599.399 108.159C599.115 108.055 598.811 108.018 598.51 108.053C598.21 108.088 597.922 108.193 597.669 108.359L596.287 109.373C596.055 109.567 595.871 109.813 595.75 110.09C595.629 110.368 595.575 110.67 595.592 110.973L595.786 112.665C595.837 112.963 595.958 113.245 596.138 113.488C596.318 113.731 596.553 113.929 596.824 114.064L598.376 114.725C598.659 114.831 598.964 114.868 599.264 114.834C599.565 114.8 599.853 114.695 600.106 114.529L601.476 113.515C601.709 113.32 601.893 113.074 602.014 112.796C602.134 112.517 602.189 112.215 602.172 111.912L601.978 110.223C601.925 109.929 601.805 109.651 601.627 109.411C601.449 109.17 601.218 108.975 600.952 108.838Z" fill="white">
<animateTransform 
    attributeName="transform"
    type="translate"
    values="0 0; -100 0"  
    dur="2s"
    repeatCount="indefinite"
    keyTimes="0;1"
    calcMode="linear"
  />

    </path>
<path d="M606.037 115.716L604.485 115.055C604.2 114.949 603.895 114.912 603.594 114.946C603.293 114.98 603.004 115.085 602.751 115.252L601.384 116.265C601.151 116.458 600.967 116.704 600.846 116.982C600.725 117.26 600.671 117.562 600.688 117.864L600.883 119.557C600.937 119.85 601.058 120.127 601.236 120.366C601.415 120.604 601.646 120.799 601.912 120.934L603.464 121.595C603.748 121.699 604.053 121.735 604.354 121.7C604.655 121.665 604.944 121.56 605.197 121.394L606.568 120.381C606.801 120.187 606.985 119.942 607.105 119.664C607.225 119.386 607.278 119.084 607.26 118.781L607.079 117.118C607.028 116.819 606.907 116.536 606.726 116.292C606.545 116.048 606.309 115.851 606.037 115.716Z" fill="white">
<animateTransform 
    attributeName="transform"
    type="translate"
    values="0 0; -100 0"  
    dur="2s"
    repeatCount="indefinite"
    keyTimes="0;1"
    calcMode="linear"
  />

    </path>
<path d="M594.683 112.177L594.531 110.86C594.514 110.558 594.568 110.256 594.689 109.978C594.81 109.7 594.994 109.454 595.226 109.261L597.891 107.287C598.144 107.121 598.432 107.016 598.732 106.982C599.033 106.947 599.337 106.983 599.621 107.087L600.84 107.617C601.124 107.723 601.429 107.76 601.73 107.726C602.032 107.692 602.321 107.587 602.574 107.42L603.94 106.403C604.174 106.21 604.358 105.965 604.479 105.687C604.6 105.409 604.654 105.106 604.636 104.804L604.442 103.115C604.391 102.816 604.271 102.533 604.09 102.29C603.91 102.046 603.675 101.848 603.404 101.712L601.851 101.033C601.566 100.928 601.261 100.892 600.96 100.927C600.659 100.962 600.37 101.067 600.117 101.233L598.719 102.233C598.487 102.427 598.303 102.672 598.182 102.95C598.062 103.228 598.009 103.53 598.027 103.832L598.176 105.15C598.194 105.452 598.141 105.754 598.021 106.032C597.901 106.31 597.717 106.556 597.484 106.749L594.819 108.722C594.566 108.889 594.277 108.994 593.976 109.028C593.675 109.062 593.37 109.025 593.085 108.919L591.87 108.393C591.586 108.287 591.281 108.25 590.98 108.284C590.679 108.318 590.39 108.423 590.136 108.589L588.77 109.603C588.536 109.796 588.352 110.041 588.231 110.319C588.11 110.597 588.056 110.9 588.074 111.202L588.268 112.895C588.319 113.194 588.439 113.476 588.62 113.72C588.8 113.964 589.035 114.162 589.306 114.297L590.859 114.958C591.143 115.062 591.448 115.099 591.749 115.064C592.05 115.029 592.339 114.924 592.592 114.758L593.959 113.745C594.193 113.557 594.38 113.318 594.506 113.046C594.631 112.774 594.692 112.477 594.683 112.177Z" fill="white">
<animateTransform 
    attributeName="transform"
    type="translate"
    values="0 0; -100 0"  
    dur="2s"
    repeatCount="indefinite"
    keyTimes="0;1"
    calcMode="linear"
  />

    </path>
<path d="M609.511 109.993C609.459 109.695 609.338 109.412 609.158 109.169C608.977 108.925 608.743 108.727 608.473 108.59L606.921 107.929C606.636 107.826 606.331 107.79 606.03 107.824C605.729 107.859 605.44 107.964 605.187 108.13L603.82 109.143C603.587 109.337 603.403 109.582 603.282 109.86C603.161 110.138 603.107 110.44 603.125 110.743L603.277 112.064C603.294 112.366 603.241 112.668 603.12 112.946C602.999 113.224 602.814 113.47 602.581 113.663L599.92 115.632C599.667 115.799 599.378 115.904 599.077 115.938C598.776 115.973 598.471 115.937 598.187 115.833L596.967 115.303C596.684 115.199 596.379 115.163 596.079 115.197C595.778 115.232 595.49 115.337 595.238 115.503L593.856 116.514C593.623 116.707 593.439 116.953 593.318 117.231C593.197 117.509 593.143 117.811 593.16 118.113L593.354 119.806C593.405 120.104 593.526 120.386 593.706 120.629C593.887 120.872 594.122 121.069 594.392 121.205L595.945 121.884C596.229 121.99 596.533 122.027 596.834 121.993C597.135 121.959 597.423 121.854 597.675 121.688L599.046 120.674C599.278 120.48 599.462 120.235 599.583 119.957C599.704 119.679 599.758 119.377 599.742 119.075L599.589 117.754C599.571 117.451 599.625 117.149 599.746 116.871C599.867 116.593 600.051 116.348 600.285 116.154L602.946 114.181C603.199 114.015 603.488 113.91 603.789 113.876C604.09 113.842 604.395 113.879 604.679 113.985L605.895 114.511C606.179 114.617 606.484 114.654 606.785 114.62C607.086 114.586 607.375 114.481 607.628 114.314L608.999 113.301C609.231 113.107 609.415 112.862 609.535 112.584C609.656 112.306 609.709 112.004 609.691 111.702L609.511 109.993Z" fill="white">
<animateTransform 
    attributeName="transform"
    type="translate"
    values="0 0; -100 0"  
    dur="2s"
    repeatCount="indefinite"
    keyTimes="0;1"
    calcMode="linear"
  />

    </path>
<path d="M614.152 102.896L619.796 102.551L623.099 113.103L625.091 102.227L630.985 101.867L626.666 119.378L620.298 119.767L614.152 102.896Z" fill="white">
<animateTransform 
    attributeName="transform"
    type="translate"
    values="0 0; -100 0"  
    dur="2s"
    repeatCount="indefinite"
    keyTimes="0;1"
    calcMode="linear"
  />

    </path>
<path d="M637.589 118.91C636.191 118.996 635.073 118.613 634.235 117.762C633.398 116.911 632.931 115.711 632.837 114.162L632.366 106.47L637.661 106.146L638.118 113.614C638.141 113.997 638.259 114.29 638.472 114.494C638.701 114.681 638.982 114.764 639.315 114.744C639.648 114.723 639.983 114.603 640.32 114.381L640.807 117.836C640.459 118.141 639.989 118.387 639.399 118.574C638.825 118.759 638.222 118.872 637.589 118.91ZM634.899 104.435C634.116 104.483 633.436 104.282 632.857 103.833C632.293 103.366 631.99 102.775 631.946 102.059C631.902 101.343 632.149 100.726 632.685 100.209C633.222 99.6911 633.856 99.41 634.589 99.3652C635.355 99.3183 636.028 99.5279 636.608 99.9937C637.204 100.459 637.524 101.032 637.565 101.715C637.61 102.448 637.364 103.073 636.828 103.59C636.291 104.108 635.648 104.389 634.899 104.435Z" fill="white">
<animateTransform 
    attributeName="transform"
    type="translate"
    values="0 0; -100 0"  
    dur="2s"
    repeatCount="indefinite"
    keyTimes="0;1"
    calcMode="linear"
  />

    </path>
<path d="M641.549 106.084L646.818 105.762L646.974 108.309C647.297 107.303 647.769 106.547 648.39 106.042C649.026 105.518 649.785 105.229 650.668 105.175L651.641 109.202C650.059 109.299 648.905 109.545 648.177 109.94C647.465 110.318 647.131 110.873 647.176 111.606L647.573 118.099L642.303 118.421L641.549 106.084Z" fill="white">
<animateTransform 
    attributeName="transform"
    type="translate"
    values="0 0; -100 0"  
    dur="2s"
    repeatCount="indefinite"
    keyTimes="0;1"
    calcMode="linear"
  />

    </path>
<path d="M660.03 117.538C658.631 117.623 657.365 117.425 656.233 116.943C655.117 116.459 654.222 115.754 653.547 114.826C652.887 113.88 652.519 112.775 652.441 111.509C652.364 110.244 652.604 109.109 653.161 108.106C653.717 107.086 654.519 106.277 655.569 105.678C656.635 105.078 657.868 104.735 659.266 104.649C660.682 104.563 661.947 104.761 663.063 105.244C664.194 105.71 665.089 106.407 665.748 107.336C666.406 108.265 666.774 109.362 666.852 110.628C666.93 111.91 666.691 113.061 666.135 114.081C665.595 115.083 664.792 115.893 663.727 116.509C662.677 117.108 661.445 117.451 660.03 117.538ZM659.85 113.788C660.533 113.747 661.076 113.463 661.478 112.937C661.896 112.393 662.08 111.722 662.032 110.923C661.983 110.123 661.718 109.488 661.238 109.016C660.774 108.526 660.2 108.302 659.517 108.344C658.835 108.386 658.284 108.678 657.866 109.222C657.464 109.748 657.287 110.411 657.336 111.21C657.385 112.009 657.642 112.653 658.106 113.143C658.586 113.615 659.168 113.83 659.85 113.788Z" fill="white">
<animateTransform 
    attributeName="transform"
    type="translate"
    values="0 0; -100 0"  
    dur="2s"
    repeatCount="indefinite"
    keyTimes="0;1"
    calcMode="linear"
  />

    </path>
<path d="M676.525 122.069C675.609 122.125 674.729 122.087 673.885 121.955L674.059 118.234C674.714 118.294 675.317 118.307 675.866 118.274C676.899 118.211 677.662 117.855 678.157 117.206C678.654 116.574 678.908 115.539 678.92 114.101C678.022 115.543 676.566 116.326 674.551 116.449C673.453 116.516 672.42 116.295 671.453 115.786C670.502 115.276 669.723 114.555 669.114 113.623C668.522 112.69 668.191 111.649 668.121 110.5C668.05 109.335 668.251 108.253 668.725 107.254C669.198 106.24 669.874 105.421 670.756 104.799C671.653 104.176 672.652 103.831 673.751 103.763C674.766 103.701 675.665 103.914 676.447 104.401C677.244 104.87 677.786 105.539 678.073 106.407L677.896 103.51L683.166 103.188L683.748 112.703C683.926 115.617 683.395 117.863 682.155 119.443C680.932 121.039 679.055 121.914 676.525 122.069ZM675.946 112.604C676.612 112.563 677.172 112.295 677.626 111.799C678.079 111.286 678.303 110.705 678.297 110.053L678.284 109.853C678.212 109.223 677.912 108.681 677.383 108.229C676.87 107.776 676.29 107.569 675.64 107.609C674.958 107.65 674.39 107.936 673.938 108.465C673.484 108.977 673.279 109.575 673.32 110.257C673.362 110.94 673.64 111.516 674.153 111.986C674.666 112.439 675.263 112.645 675.946 112.604Z" fill="white">
<animateTransform 
    attributeName="transform"
    type="translate"
    values="0 0; -100 0"  
    dur="2s"
    repeatCount="indefinite"
    keyTimes="0;1"
    calcMode="linear"
  />

    </path>
<path d="M692.004 115.582C690.922 115.648 689.889 115.427 688.905 114.919C687.937 114.394 687.14 113.657 686.514 112.709C685.886 111.745 685.536 110.655 685.461 109.44C685.388 108.241 685.605 107.141 686.112 106.141C686.618 105.124 687.329 104.312 688.244 103.704C689.16 103.097 690.15 102.76 691.216 102.695C692.081 102.642 692.895 102.835 693.657 103.273C694.436 103.71 695.047 104.399 695.489 105.342L695.311 102.445L700.556 102.124L701.332 114.811L696.087 115.132L695.945 112.809C695.216 114.542 693.902 115.466 692.004 115.582ZM693.386 111.537C694.052 111.496 694.604 111.228 695.041 110.734C695.495 110.221 695.718 109.639 695.712 108.988L695.699 108.788C695.625 108.124 695.324 107.574 694.796 107.139C694.285 106.702 693.713 106.503 693.08 106.542C692.381 106.585 691.797 106.871 691.328 107.401C690.875 107.914 690.669 108.511 690.711 109.194C690.753 109.893 691.039 110.469 691.568 110.921C692.097 111.373 692.703 111.579 693.386 111.537Z" fill="white">
<animateTransform 
    attributeName="transform"
    type="translate"
    values="0 0; -100 0"  
    dur="2s"
    repeatCount="indefinite"
    keyTimes="0;1"
    calcMode="linear"
  />

    </path>
<path d="M703.107 102.319L708.127 102.012L708.283 104.559C709.13 102.569 710.603 101.509 712.701 101.381C714.299 101.283 715.583 101.781 716.553 102.875C717.538 103.951 718.092 105.497 718.215 107.511L718.597 113.755L713.352 114.076L712.938 107.308C712.894 106.592 712.703 106.052 712.363 105.688C712.04 105.324 711.603 105.158 711.054 105.192C710.654 105.216 710.271 105.373 709.905 105.663C709.537 105.936 709.243 106.322 709.023 106.82C708.819 107.317 708.736 107.874 708.774 108.49L709.131 114.334L703.862 114.656L703.107 102.319Z" fill="white">
<animateTransform 
    attributeName="transform"
    type="translate"
    values="0 0; -100 0"  
    dur="2s"
    repeatCount="indefinite"
    keyTimes="0;1"
    calcMode="linear"
  />

    </path>
</svg>
