<svg width="50" height="22" viewBox="0 0 50 22" fill="none" xmlns="http://www.w3.org/2000/svg">
<path d="M30.7031 1.3125C30.7031 1.3125 29.2969 1.3125 28.5938 1.70312C27.5781 2.17188 27.1875 3.10938 27.1875 5.53125C27.1875 5.53125 27.7344 4.98438 28.4375 4.75C30.8594 3.89062 30.7031 2.32812 30.7031 1.3125ZM21.6406 4.125C22.1094 2.01562 24.0625 1.07812 25.9375 1.3125L20.8594 20.6875C20.8594 20.6875 19.1406 20.8438 18.2812 20.375C17.1875 19.8281 16.6406 19.4375 16.0156 16.7812C15.3906 14.4375 13.75 7.48438 13.5938 7.01562C13.2031 5.92188 12.7344 5.84375 12.3438 7.01562C12.1875 7.48438 10.5469 14.4375 9.92188 16.7812C9.29688 19.4375 8.75 19.8281 7.65625 20.375C6.79688 20.8438 5.07812 20.6875 5.07812 20.6875L0 1.3125C1.79688 1.07812 3.82812 2.01562 4.29688 4.125L6.95312 14.4375L9.21875 6C9.76562 3.42188 10.8594 2.17188 12.9688 2.17188C15.1562 2.17188 16.1719 3.5 16.7188 6L18.9844 14.4375L21.6406 4.125ZM30.7031 4.51562V5.21875V16.9375C30.7031 19.3594 30.4688 19.9062 29.375 20.4531C28.5156 20.8438 27.1875 20.6875 27.1875 20.6875V8.8125C27.1875 7.17188 27.0312 6.625 28.2031 6.07812C28.75 5.84375 29.1406 5.6875 29.6094 5.45312C30.3906 4.98438 30.7031 4.51562 30.7031 4.51562ZM43.4375 11.0781L49.9219 20.6875C49.9219 20.6875 47.1094 21.0781 45.7812 19.8281C44.6875 18.8906 43.9062 17.6406 41.6406 14.2812C41.5625 14.2812 41.1719 13.5 40.625 14.2812C37.8906 18.2656 37.4219 19.0469 36.4844 19.8281C35.1562 21.0781 32.2656 20.6875 32.2656 20.6875L38.75 11.0781L32.2656 1.39062C32.2656 1.39062 35 0.921875 36.4062 2.17188C37.4219 3.10938 38.2812 4.51562 40.625 7.875C41.1719 8.65625 41.5625 7.875 41.6406 7.875C43.9844 4.51562 44.8438 3.10938 45.8594 2.17188C47.1875 0.921875 50 1.39062 50 1.39062L43.4375 11.0781Z" fill="#AD954F"/>
</svg>
