<svg width="60" height="53" viewBox="0 0 60 53" fill="none" xmlns="http://www.w3.org/2000/svg">
<path d="M5.625 26.4512H15V18.9512C15 14.8496 11.7188 11.4512 7.5 11.4512H6.5625C5.03906 11.4512 3.75 10.2793 3.75 8.63867V3.01367C3.75 1.49023 5.03906 0.201172 6.5625 0.201172H7.5C17.9297 0.201172 26.25 8.63867 26.25 18.9512V47.0762C26.25 50.2402 23.7891 52.7012 20.625 52.7012H5.625C2.57812 52.7012 0 50.2402 0 47.0762V32.0762C0 29.0293 2.57812 26.4512 5.625 26.4512ZM39.375 26.4512H48.75V18.9512C48.75 14.8496 45.4688 11.4512 41.25 11.4512H40.3125C38.7891 11.4512 37.5 10.2793 37.5 8.63867V3.01367C37.5 1.49023 38.7891 0.201172 40.3125 0.201172H41.25C51.6797 0.201172 60 8.63867 60 18.9512V47.0762C60 50.2402 57.5391 52.7012 54.375 52.7012H39.375C36.3281 52.7012 33.75 50.2402 33.75 47.0762V32.0762C33.75 29.0293 36.3281 26.4512 39.375 26.4512Z" fill="#AD954F"/>
</svg>
