<svg width="31" height="31" viewBox="0 0 31 31" fill="none" xmlns="http://www.w3.org/2000/svg">
<path d="M21.4566 19.5288C21.2196 20.36 20.2877 20.684 19.5707 20.1662C18.8114 19.6188 18.0687 19.0473 17.3191 18.4863C16.5129 17.8829 15.7126 17.272 14.8988 16.6785C14.4809 16.3734 14.2893 15.9797 14.2923 15.468C14.2992 14.3105 14.2946 13.1529 14.2946 11.9954C14.2946 10.8281 14.2848 9.6607 14.2976 8.49258C14.3075 7.59927 15.107 7.02694 15.9117 7.31689C16.419 7.49858 16.7044 7.94751 16.7044 8.57888C16.7067 10.582 16.7135 12.5852 16.6968 14.5875C16.6946 14.9138 16.7915 15.1099 17.0542 15.3022C18.3624 16.2598 19.6563 17.2364 20.9509 18.2115C21.421 18.565 21.5959 19.0412 21.4566 19.5288Z" fill="white"/>
<path d="M30.9979 14.3225C30.9782 14.2991 30.9676 14.2726 30.9676 14.2408V14.24C30.9638 13.0068 30.6769 11.8243 30.2908 10.6668C29.3838 7.94976 27.8371 5.6544 25.668 3.77542C24.1327 2.44378 22.4035 1.44903 20.4775 0.805539C19.2049 0.380081 17.9042 0.0871048 16.5483 0.055309H16.5407C15.4558 0.0310837 14.3724 0.00988645 13.2981 0.143883C13.0339 0.176436 12.7697 0.21883 12.507 0.27258C8.99638 0.991771 6.0574 2.69512 3.70818 5.39852C1.78974 7.60606 0.610207 10.1626 0.121133 13.0394C0.0522385 13.4444 0.0681372 13.8577 0 14.262V14.5042C0.0370969 14.5383 0.0310403 14.5815 0.0302832 14.6231C0.0302832 14.6307 0.0302832 14.6375 0.0310403 14.6443V14.7624C0.0196841 14.8373 0.0582952 14.9191 0 14.9872V16.0751C0.0582952 16.1432 0.0196841 16.225 0.0310403 16.2992V16.415C0.0302832 16.4233 0.0302832 16.4309 0.0302832 16.4392C0.0302832 16.4453 0.0302832 16.4506 0.0310403 16.4566C0.0317974 16.493 0.0317974 16.5293 0 16.5581V16.7996C0.0681372 17.2046 0.0522385 17.6172 0.122647 18.0215C0.76238 21.7211 2.49079 24.8129 5.32757 27.2801C7.52613 29.1916 10.0737 30.3703 12.9438 30.8662C13.3693 30.9396 13.8023 30.9275 14.2278 30.9987H14.5299C14.564 30.9624 14.6071 30.9684 14.6495 30.9684C14.6556 30.9684 14.6616 30.9677 14.6677 30.9677H14.7782C14.8373 30.9752 14.9024 30.9472 14.9538 30.9987H16.1046C16.1712 30.9412 16.2515 30.9782 16.3249 30.9677C16.3325 30.9684 16.3401 30.9684 16.3476 30.9684C16.3544 30.9684 16.3613 30.9684 16.3681 30.9677C16.4037 30.9669 16.4392 30.9677 16.468 30.9987H16.649C17.1055 30.9359 17.5696 30.9518 18.0246 30.8723C21.7191 30.2288 24.8065 28.5035 27.2715 25.682C29.187 23.4881 30.3688 20.9459 30.8654 18.0813C30.9396 17.6566 30.9267 17.2243 30.9979 16.7996V16.5581C30.9661 16.5293 30.9661 16.493 30.9669 16.4566C30.9676 16.4506 30.9676 16.4453 30.9676 16.4392C30.9676 16.4309 30.9676 16.4233 30.9669 16.415V16.2999C30.9782 16.225 30.9396 16.1432 30.9979 16.0751V14.9872C30.9396 14.9191 30.9782 14.8373 30.9669 14.7624V14.6443C30.9676 14.6375 30.9676 14.6299 30.9676 14.6231C30.9669 14.5807 30.9608 14.5383 30.9979 14.5042V14.3225ZM15.4777 28.5966C8.24309 28.5663 2.40903 22.7341 2.40676 15.5323C2.40524 8.32298 8.28549 2.45665 15.505 2.46573C22.7344 2.47406 28.6108 8.34796 28.5911 15.5452C28.5715 22.7628 22.6791 28.6269 15.4777 28.5966Z" fill="white"/>
<path d="M12.507 0.272557C12.7697 0.218807 13.0339 0.176413 13.2981 0.14386C10.7725 0.509512 8.34605 1.5724 6.05664 3.303C2.61117 5.90723 0.659417 9.43581 0.107505 13.7252C0.084793 13.9039 0.124161 14.1015 0 14.262C0.0681372 13.8577 0.0522385 13.4444 0.121133 13.0393C0.610207 10.1626 1.78974 7.60603 3.70818 5.3985C6.0574 2.6951 8.99638 0.991748 12.507 0.272557Z" fill="white"/>
<path d="M15.5496 0.00227113C15.3823 0.00227113 15.2142 0.00151409 15.0469 0.00227113C15.2142 -0.000757043 15.3815 -0.000757043 15.5496 0.00227113Z" fill="white"/>
<path d="M30.9662 14.24C30.8693 13.9478 30.8875 13.6359 30.836 13.3361C29.8086 7.38575 26.5123 3.18264 20.866 1.06217C19.4056 0.513309 17.9641 0.179453 16.5469 0.0552979C17.9028 0.0870937 19.2035 0.380069 20.4761 0.805528C22.4021 1.44901 24.1313 2.44377 25.6667 3.77541C27.8357 5.65439 29.3824 7.94974 30.2894 10.6668C30.6755 11.8243 30.9624 13.0068 30.9662 14.24Z" fill="white"/>
<path d="M30.9993 16.7996C30.9282 17.2243 30.941 17.6565 30.8668 18.0812C30.3702 20.9459 29.1884 23.488 27.273 25.6819C24.8079 28.5034 21.7206 30.2287 18.026 30.8722C17.571 30.9517 17.1069 30.9358 16.6504 30.9987C16.8548 30.8685 17.0918 30.9192 17.3106 30.8927C23.9365 30.1001 29.3746 25.1293 30.6821 18.6467C30.7949 18.0858 30.8517 17.5142 30.9357 16.9472C30.9433 16.8934 30.9161 16.8223 30.9993 16.7996Z" fill="white"/>
<path d="M14.2278 30.9987C13.8023 30.9275 13.3693 30.9396 12.9438 30.8662C10.0737 30.3703 7.52613 29.1916 5.32757 27.2801C2.49079 24.8129 0.76238 21.7211 0.122647 18.0214C0.0522385 17.6172 0.0681372 17.2046 0 16.7996C0.134003 17.1046 0.118105 17.4362 0.163529 17.7557C1.07505 24.0899 5.89387 29.262 12.1708 30.636C12.8015 30.7746 13.4382 30.8685 14.0802 30.9351C14.1339 30.9411 14.2051 30.9154 14.2278 30.9987Z" fill="white"/>
<path d="M0.0552669 14.7434C0.0545098 14.8289 0.0931209 14.9228 0 14.9871C0 14.9069 0 14.8259 0 14.7456C0.0174128 14.7184 0.0363398 14.7184 0.0552669 14.7434Z" fill="white"/>
<path d="M30.9981 14.9872C30.905 14.9228 30.9436 14.8289 30.9428 14.7434C30.9625 14.7177 30.9807 14.7192 30.9981 14.7457C30.9981 14.8259 30.9981 14.9069 30.9981 14.9872Z" fill="white"/>
<path d="M0 16.0751C0.0931209 16.1402 0.0552668 16.2333 0.0537527 16.3196C0.0348257 16.3438 0.0166558 16.3438 0 16.3173C0 16.2363 0 16.1553 0 16.0751Z" fill="white"/>
<path d="M30.9447 16.3189C30.9425 16.2333 30.9054 16.1394 30.9985 16.0743C30.9985 16.1546 30.9985 16.2356 30.9985 16.3158C30.9818 16.3423 30.9637 16.3446 30.9447 16.3189Z" fill="white"/>
<path d="M16.1055 30.9986C16.1713 30.9063 16.2652 30.9434 16.3515 30.9464C16.3682 30.9593 16.3735 30.9714 16.3667 30.9828C16.3598 30.9933 16.3538 30.9986 16.3477 30.9986C16.2667 30.9986 16.1865 30.9986 16.1055 30.9986Z" fill="white"/>
<path d="M14.7707 30.9457C14.8388 30.9404 14.9107 30.9215 14.9539 30.9987C14.8933 30.9987 14.8327 30.9987 14.7722 30.9987C14.7533 30.9873 14.7464 30.976 14.7517 30.9639C14.7586 30.9517 14.7646 30.9457 14.7707 30.9457Z" fill="white"/>
<path d="M0 14.5042C0.0749509 14.5178 0.056781 14.5723 0.0529956 14.6216C0.0370969 14.6511 0.0196841 14.6541 0 14.6253C0 14.5845 0 14.5443 0 14.5042Z" fill="white"/>
<path d="M30.9466 14.6216C30.9421 14.5723 30.9239 14.5178 30.9996 14.5042C30.9996 14.5443 30.9996 14.5845 30.9996 14.6253C30.9799 14.6518 30.9625 14.6526 30.9466 14.6216Z" fill="white"/>
<path d="M0 14.6246C0.0174128 14.6246 0.0355828 14.6238 0.0529956 14.6208C0.0537527 14.6617 0.0552668 14.7025 0.0560239 14.7434C0.037854 14.7449 0.018927 14.7457 0.00075708 14.7457C0 14.7056 0 14.6647 0 14.6246Z" fill="white"/>
<path d="M30.9456 14.6215C30.963 14.6238 30.9805 14.6253 30.9986 14.6253C30.9986 14.6654 30.9986 14.7056 30.9986 14.7464C30.9797 14.7472 30.9615 14.7464 30.9434 14.7442C30.9441 14.7025 30.9449 14.6616 30.9456 14.6215Z" fill="white"/>
<path d="M0 16.3166C0.0181699 16.3166 0.0355828 16.3173 0.0537527 16.3189C0.0529956 16.3597 0.0529956 16.3999 0.0522385 16.4407C0.0333115 16.465 0.0158987 16.4627 0 16.437C0 16.3968 0 16.3567 0 16.3166Z" fill="white"/>
<path d="M30.9453 16.3188C30.9635 16.3173 30.9809 16.3165 30.9991 16.3165C30.9991 16.3567 30.9991 16.3968 30.9991 16.4377C30.9832 16.4626 30.9658 16.4649 30.9468 16.4414C30.9461 16.4006 30.9453 16.3597 30.9453 16.3188Z" fill="white"/>
<path d="M0 16.4377C0.0174128 16.4377 0.0348257 16.4392 0.0522385 16.4415C0.0575381 16.4907 0.0764651 16.5459 0 16.5588C0 16.5179 0 16.4778 0 16.4377Z" fill="white"/>
<path d="M30.9472 16.4407C30.9646 16.4385 30.982 16.4377 30.9994 16.437C30.9994 16.4771 30.9994 16.5172 30.9994 16.5581C30.9237 16.5452 30.9419 16.4899 30.9472 16.4407Z" fill="white"/>
<path d="M14.5312 30.9986C14.5471 30.9282 14.6001 30.9418 14.6486 30.9479C14.6706 30.9577 14.6781 30.9683 14.6721 30.9805C14.6653 30.9926 14.6592 30.9986 14.6524 30.9986C14.6115 30.9986 14.5714 30.9986 14.5312 30.9986Z" fill="white"/>
<path d="M14.6522 30.9987C14.6522 30.9813 14.6507 30.9646 14.6484 30.9479C14.6893 30.9472 14.7302 30.9464 14.7711 30.9457C14.7726 30.9638 14.7734 30.9813 14.7734 30.9994C14.7325 30.9987 14.6923 30.9987 14.6522 30.9987Z" fill="white"/>
<path d="M16.3478 30.9987C16.3471 30.9813 16.3486 30.9639 16.3516 30.9465C16.4008 30.9412 16.4538 30.9275 16.469 30.9987C16.4289 30.9987 16.388 30.9987 16.3478 30.9987Z" fill="white"/>
<path d="M21.4566 19.5288C21.2196 20.36 20.2877 20.684 19.5707 20.1662C18.8114 19.6188 18.0687 19.0473 17.3191 18.4863C16.5129 17.8829 15.7126 17.272 14.8988 16.6785C14.4809 16.3734 14.2893 15.9797 14.2923 15.468C14.2992 14.3105 14.2946 13.1529 14.2946 11.9954C14.2946 10.8281 14.2848 9.6607 14.2976 8.49258C14.3075 7.59927 15.107 7.02694 15.9117 7.31689C16.419 7.49858 16.7044 7.94751 16.7044 8.57888C16.7067 10.582 16.7135 12.5852 16.6968 14.5875C16.6946 14.9138 16.7915 15.1099 17.0542 15.3022C18.3624 16.2598 19.6563 17.2364 20.9509 18.2115C21.421 18.565 21.5959 19.0412 21.4566 19.5288Z" fill="white"/>
<path d="M21.4566 19.5288C21.2196 20.36 20.2877 20.684 19.5707 20.1662C18.8114 19.6188 18.0687 19.0473 17.3191 18.4863C16.5129 17.8829 15.7126 17.272 14.8988 16.6785C14.4809 16.3734 14.2893 15.9797 14.2923 15.468C14.2992 14.3105 14.2946 13.1529 14.2946 11.9954C14.2946 10.8281 14.2848 9.6607 14.2976 8.49258C14.3075 7.59927 15.107 7.02694 15.9117 7.31689C16.419 7.49858 16.7044 7.94751 16.7044 8.57888C16.7067 10.582 16.7135 12.5852 16.6968 14.5875C16.6946 14.9138 16.7915 15.1099 17.0542 15.3022C18.3624 16.2598 19.6563 17.2364 20.9509 18.2115C21.421 18.565 21.5959 19.0412 21.4566 19.5288Z" fill="white"/>
</svg>
