<svg width="31" height="31" viewBox="0 0 31 31" fill="none" xmlns="http://www.w3.org/2000/svg">
<path d="M29.3572 22.1233C28.0577 20.7993 26.7415 19.491 25.4182 18.1899C24.7067 17.491 23.8495 17.1673 22.842 17.3375C22.0965 17.4625 21.514 17.8828 20.9924 18.4004C20.3173 19.0715 19.6446 19.7466 18.9719 20.4209C18.8856 20.5072 18.8215 20.584 18.6751 20.4969C18.2319 20.2365 17.7633 20.0165 17.3304 19.7403C15.7665 18.7431 14.3783 17.5314 13.116 16.1772C11.8829 14.8539 10.7464 13.4586 9.95888 11.8092C9.87182 11.6256 9.8924 11.5227 10.0428 11.3834C10.8588 10.6292 11.6597 9.85752 12.3894 9.0178C13.4373 7.81242 13.4452 6.27148 12.3657 5.0851C11.0701 3.66129 9.67237 2.33562 8.30555 0.979875C8.12352 0.799425 7.91774 0.637179 7.70247 0.497885C6.59682 -0.219956 5.23316 -0.165347 4.21852 0.686249C3.10812 1.61857 2.12594 2.68702 1.1303 3.73806C1.02187 3.85203 0.933232 3.98658 0.84459 4.11796C-0.0442033 5.42384 -0.101979 6.88089 0.0895509 8.37593C0.285829 9.91134 0.807392 11.3526 1.41522 12.7653C2.83824 16.0719 4.89521 18.9591 7.32574 21.5852C10.3744 24.8784 13.9573 27.4371 18.0815 29.2202C19.5496 29.855 21.0676 30.3306 22.6782 30.4438C22.6869 30.447 22.6948 30.4501 22.7035 30.4525C22.789 30.4763 22.8776 30.4557 22.9639 30.4628C22.9702 30.4636 22.9774 30.4644 22.9837 30.4652H22.9845C22.9924 30.466 23.0003 30.466 23.0082 30.466C23.1016 30.466 23.1974 30.4391 23.2852 30.4937H23.7023C23.8084 30.424 23.935 30.4905 24.0458 30.4509C24.0529 30.4486 24.0601 30.4462 24.0672 30.4422C24.9995 30.3536 25.8606 30.0489 26.5594 29.4315C27.6152 28.5 28.6053 27.4909 29.5266 26.4296C30.747 25.0216 30.6568 23.4482 29.3572 22.1233ZM22.7178 28.9227C20.8468 28.7311 19.127 28.0671 17.4578 27.2487C14.0942 25.5994 11.1247 23.4071 8.57622 20.6631C5.96049 17.8464 3.79035 14.7344 2.41244 11.112C1.88455 9.72535 1.55927 8.29995 1.55135 7.0194C1.51574 6.02138 1.91462 5.07086 2.7306 4.2802C3.42233 3.61143 4.09347 2.9205 4.7757 2.24223C4.89521 2.12351 5.02105 2.00955 5.15401 1.90666C5.77609 1.42546 6.46544 1.43258 7.04794 1.95731C7.51885 2.38232 7.96523 2.83502 8.41477 3.28377C9.25053 4.11717 10.0831 4.95451 10.9142 5.79345C11.8354 6.72339 11.8394 7.41749 10.9268 8.34428C10.224 9.05816 9.52042 9.77125 8.78358 10.4519C8.19158 11.0004 8.11639 11.4776 8.44089 12.2129C9.24341 14.034 10.4496 15.5733 11.7776 17.0272C13.3035 18.698 14.9948 20.174 16.9426 21.3398C17.3407 21.578 17.7578 21.7862 18.1693 22.0023C18.8112 22.3386 19.3272 22.2626 19.8432 21.7514C20.5761 21.0248 21.3027 20.2919 22.034 19.5638C22.1606 19.4388 22.2888 19.3121 22.4297 19.2037C23.0383 18.7328 23.7451 18.7391 24.2904 19.2741C25.6437 20.6014 26.9884 21.9374 28.3117 23.2931C28.9979 23.9959 29.0113 24.7383 28.3481 25.4585C27.5155 26.3631 26.66 27.2495 25.7712 28.098C24.918 28.9124 23.8448 29.0382 22.7178 28.9227Z" fill="white"/>
</svg>
