<svg width="33" height="23" viewBox="0 0 33 23" fill="none" xmlns="http://www.w3.org/2000/svg">
<path d="M32.0736 20.1716C32.0066 20.3751 31.9556 20.5869 31.8685 20.7811C31.3771 21.8811 30.5307 22.4964 29.3227 22.5433C28.437 22.5784 27.5488 22.5516 26.6615 22.5516C18.7605 22.5516 10.8587 22.5525 2.95771 22.5516C1.40899 22.5516 0.272148 21.6031 0.0285384 20.1063C7.54853e-05 19.933 0.00174977 19.7531 0.00174977 19.5764C7.54853e-05 14.0446 -0.000761659 8.51272 0.00091263 2.98086C0.00091263 1.19607 1.19803 0.000627859 2.98366 0.000627859C11.6992 -0.000209286 20.4139 -0.000209286 29.1294 0.000627859C30.5391 0.000627859 31.6416 0.823541 31.9824 2.12112C32.0033 2.20064 32.0083 2.2852 32.0209 2.36724C32.0418 2.35886 32.0594 2.36305 32.0736 2.38063C32.0577 2.38733 32.0435 2.39068 32.0301 2.389C32.0259 2.38984 32.0217 2.389 32.0175 2.38733C31.9999 2.38314 31.984 2.37142 31.9706 2.353C31.9087 2.2651 31.8903 2.1613 31.8593 2.06168C31.4968 0.886327 30.5056 0.133734 29.2742 0.0994109C29.2223 0.0977366 29.1695 0.0977366 29.1176 0.0977366C20.4005 0.0977366 11.6841 0.0977366 2.96692 0.0985738C1.90709 0.0985738 1.0599 0.509612 0.490642 1.42126C0.18927 1.90429 0.0963471 2.44593 0.0963471 3.01016C0.0988586 8.25153 0.0980214 13.4921 0.0980214 18.7326C0.0980214 19.0666 0.0929986 19.4006 0.0996957 19.7346C0.132344 21.2566 1.29514 22.4202 2.8179 22.452C3.22476 22.4612 3.63245 22.4545 4.0393 22.4545C12.3806 22.4545 20.7211 22.4528 29.0624 22.4562C29.9062 22.4562 30.6438 22.2101 31.2348 21.5889C31.5353 21.2716 31.7237 20.8916 31.8652 20.4822C31.9062 20.3633 31.8953 20.2018 32.0736 20.1716Z" fill="#FEFEFE"/>
<path d="M32.0301 2.389C32.0276 2.38147 32.0251 2.37393 32.0209 2.36724C32.0083 2.2852 32.0033 2.20064 31.9824 2.12112C31.6416 0.823541 30.5391 0.000627859 29.1294 0.000627859C20.4139 -0.000209286 11.6992 -0.000209286 2.98366 0.000627859C1.19803 0.000627859 0.00091263 1.19607 0.00091263 2.98086C-0.000761659 8.51272 7.54853e-05 14.0446 0.00174977 19.5764C0.00174977 19.7531 7.54853e-05 19.933 0.0285384 20.1063C0.272148 21.6031 1.40899 22.5516 2.95771 22.5516C10.8587 22.5525 18.7605 22.5516 26.6615 22.5516C27.5488 22.5516 28.437 22.5784 29.3227 22.5433C30.5307 22.4964 31.3771 21.8811 31.8685 20.7811C31.9556 20.5869 32.0066 20.3751 32.0736 20.1716V2.69372C32.0041 2.6008 32.0669 2.48611 32.0301 2.389ZM1.90291 19.3713V3.26717C4.16654 5.51071 6.4419 7.76598 8.71726 10.0221C9.06552 10.3678 9.40037 10.7278 9.76118 11.0601C9.94284 11.2267 9.93363 11.3188 9.76118 11.4913C7.36695 13.8805 4.98025 16.2781 2.59271 18.6731C2.37171 18.895 2.15321 19.1177 1.90291 19.3713ZM28.8246 1.90346C28.4714 2.25004 28.1507 2.55727 27.8377 2.8712C24.2044 6.51361 20.5637 10.1485 16.9481 13.8093C16.4274 14.3367 15.6538 14.3443 15.1197 13.8026C11.2706 9.90489 7.39374 6.03393 3.52529 2.15376C3.45162 2.08093 3.37377 2.01229 3.25824 1.90346H28.8246ZM5.41473 18.499C7.29663 16.618 9.17853 14.736 11.047 12.8416C11.2588 12.6273 11.3593 12.6608 11.546 12.8541C12.3086 13.6402 13.0888 14.4096 13.8615 15.1873C15.1172 16.4505 16.9531 16.4522 18.2113 15.1898C19.0066 14.392 19.8044 13.5959 20.5955 12.793C20.7236 12.6633 20.7964 12.6122 20.9572 12.7746C23.5372 15.3748 26.1249 17.9666 28.7108 20.5609C28.7309 20.581 28.7468 20.6069 28.7828 20.653H3.22057C3.98991 19.8979 4.70818 19.2047 5.41473 18.499ZM22.3267 11.5047C22.1442 11.3222 22.1384 11.2359 22.3251 11.0493C24.8666 8.51355 27.399 5.96863 29.933 3.42539C30.0042 3.35423 30.0695 3.27721 30.1791 3.15666V19.3814C30.0226 19.2198 29.9037 19.0951 29.7815 18.9728C27.2985 16.4815 24.8172 13.9885 22.3267 11.5047Z" fill="white"/>
<path d="M32.072 2.38046V2.69356C31.9899 2.60231 31.9975 2.49515 32.0159 2.38716C32.0167 2.38046 32.0184 2.37377 32.0192 2.36707C32.0402 2.3587 32.0578 2.36288 32.072 2.38046Z" fill="#404040"/>
</svg>
