<svg width="24" height="24" viewBox="0 0 24 24" fill="none" xmlns="http://www.w3.org/2000/svg">
<path d="M18.0011 13.7139C18.6831 13.7139 19.3372 13.9848 19.8194 14.467C20.3016 14.9493 20.5725 15.6033 20.5725 16.2853V16.8982C20.5725 19.9642 16.964 22.2853 12.0011 22.2853C7.03826 22.2853 3.42969 20.085 3.42969 16.8982V16.2853C3.42969 15.6033 3.70061 14.9493 4.18284 14.467C4.66508 13.9848 5.31913 13.7139 6.00112 13.7139H18.0011ZM18.0011 14.9996H6.00112C5.68164 14.9996 5.3736 15.1185 5.13702 15.3332C4.90045 15.5479 4.75228 15.843 4.7214 16.161L4.7154 16.2853V16.8982C4.7154 19.1902 7.62026 20.9996 12.0011 20.9996C16.2234 20.9996 19.1625 19.1953 19.2834 17.0362L19.2868 16.8982V16.2853C19.2868 15.9658 19.1679 15.6578 18.9532 15.4212C18.7385 15.1846 18.4434 15.0365 18.1254 15.0056L18.0011 14.9996ZM12.0011 1.71387C12.6765 1.71387 13.3452 1.84689 13.9692 2.10534C14.5932 2.3638 15.1601 2.74262 15.6377 3.22018C16.1152 3.69773 16.494 4.26468 16.7525 4.88864C17.0109 5.5126 17.144 6.18135 17.144 6.85672C17.144 7.53209 17.0109 8.20085 16.7525 8.82481C16.494 9.44877 16.1152 10.0157 15.6377 10.4933C15.1601 10.9708 14.5932 11.3497 13.9692 11.6081C13.3452 11.8666 12.6765 11.9996 12.0011 11.9996C10.6371 11.9996 9.32904 11.4577 8.36457 10.4933C7.40009 9.5288 6.85826 8.2207 6.85826 6.85672C6.85826 5.49275 7.40009 4.18465 8.36457 3.22018C9.32904 2.2557 10.6371 1.71387 12.0011 1.71387ZM12.0011 2.99958C10.9781 2.99958 9.99706 3.40596 9.2737 4.12931C8.55035 4.85267 8.14397 5.83375 8.14397 6.85672C8.14397 7.8797 8.55035 8.86078 9.2737 9.58414C9.99706 10.3075 10.9781 10.7139 12.0011 10.7139C13.0241 10.7139 14.0052 10.3075 14.7285 9.58414C15.4519 8.86078 15.8583 7.8797 15.8583 6.85672C15.8583 5.83375 15.4519 4.85267 14.7285 4.12931C14.0052 3.40596 13.0241 2.99958 12.0011 2.99958Z" fill="black"/>
</svg>
