<svg width="53" height="65" viewBox="0 0 53 65" fill="none" xmlns="http://www.w3.org/2000/svg">
<path d="M40.2933 22.0941C40.0786 21.4016 37.3259 13.1759 27.1681 11.5934C21.016 10.635 14.6949 12.4044 10.2626 16.6963C6.3776 20.4564 3.20094 26.7994 5.55392 37.2396C5.55392 37.2422 5.55392 37.2449 5.5566 37.2449C5.63173 37.2291 7.46957 36.8499 7.82641 38.9142C7.82641 38.9142 8.0652 40.3677 7.04298 40.8627C7.04029 40.8627 7.03761 40.8653 7.04029 40.8653C7.11274 41.0312 11.7811 51.5846 25.3302 51.3608C25.3302 51.3608 36.9476 51.4055 42.3404 41.9607C42.4477 41.7738 42.5523 41.5894 42.665 41.4051C43.148 40.6178 44.9456 37.2264 45.407 29.888C45.4151 29.7432 45.5439 29.63 45.6914 29.6379L45.9114 29.6511C46.0483 29.659 46.1583 29.7669 46.1636 29.9038C46.2146 31.2256 46.3461 37.7662 44.2802 41.829C44.1809 42.0239 44.0843 42.2187 43.9985 42.4215C43.2902 44.1119 38.5278 53.8043 22.725 53.1091C22.725 53.1091 5.18903 53.1987 0.576976 36.3917C0.576976 36.3917 -3.76142 20.4353 11.3545 12.2359C11.3545 12.2359 19.712 6.94869 33.0009 10.7561C33.0036 10.7561 38.6593 12.6388 39.4401 13.7578V13.7605L40.3013 22.0915C40.304 22.0968 40.2959 22.0994 40.2933 22.0941Z" fill="white"/>
<path d="M22.5882 6.36678C24.3797 6.36678 25.8319 4.94153 25.8319 3.18339C25.8319 1.42525 24.3797 0 22.5882 0C20.7967 0 19.3445 1.42525 19.3445 3.18339C19.3445 4.94153 20.7967 6.36678 22.5882 6.36678Z" fill="white"/>
<path d="M15.9666 36.9315C15.9666 36.9315 14.1664 35.9652 13.9759 33.232C13.7854 30.4884 15.363 27.9159 17.8608 26.6731C18.8723 26.1701 20.1038 25.8015 21.5365 25.8173H46.6922C46.8613 25.8173 47.0303 25.812 47.1993 25.8015C48.2913 25.733 52.3292 25.4276 52.9999 24.6535V32.0946H52.3185C52.3185 32.0946 52.4553 27.6578 49.123 27.5235L38.2542 27.434L38.2998 60.645C38.2998 60.645 38.1174 64.4998 42.6838 64.276V64.6341H30.3984L30.3528 64.1865C30.3528 64.1865 34.6456 63.9179 34.7368 60.7345L34.7824 27.4788L22.1322 27.5235C22.1322 27.5235 16.6052 27.7026 15.5105 32.2288C15.5105 32.2236 14.9176 34.0167 15.9666 36.9315Z" fill="white"/>
</svg>
